<?xml version="1.0" encoding="utf-8"?>
<!-- Generator: Adobe Illustrator 17.0.0, SVG Export Plug-In . SVG Version: 6.00 Build 0)  -->
<!DOCTYPE svg PUBLIC "-//W3C//DTD SVG 1.1//EN" "http://www.w3.org/Graphics/SVG/1.1/DTD/svg11.dtd">
<svg version="1.1" id="Layer_1" xmlns="http://www.w3.org/2000/svg" xmlns:xlink="http://www.w3.org/1999/xlink" x="0px" y="0px"
	 width="100px" height="40px" viewBox="0 0 100 40" enable-background="new 0 0 100 40" xml:space="preserve">
<path fill="#FFFFFF" d="M24.433,23.806c0.175-0.523,0.179-1.064,0.183-1.607c0.002-0.291,0.025-0.582,0.039-0.872
	c0.024-0.001,0.049-0.003,0.073-0.004c0.005,0.088,0.01,0.175,0.016,0.263c0.036,0.512,0.084,1.024,0.102,1.536
	c0.006,0.171-0.089,0.343-0.093,0.516c-0.003,0.14,0.064,0.282,0.092,0.424c0.02,0.101,0.053,0.226-0.179,0.154
	c0.05,0.143,0.128,0.262,0.123,0.377c-0.009,0.208-0.083,0.413-0.1,0.622c-0.012,0.146,0.042,0.297,0.038,0.445
	c-0.006,0.193-0.047,0.385-0.059,0.578c-0.009,0.155-0.003,0.311,0.005,0.467c0.023,0.425,0.062,0.849,0.074,1.273
	c0.056,1.952,0.116,3.904,0.153,5.856c0.015,0.777-0.018,1.556-0.045,2.333c-0.008,0.227-0.074,0.452-0.123,0.728
	c1.919,0.056,3.835-0.013,5.752-0.059c0.001-0.028,0.002-0.055,0.003-0.083c-0.04-0.009-0.079-0.018-0.124-0.029
	c0.012-0.006,0.022-0.018,0.031-0.016c0.187,0.028,0.374,0.051,0.559,0.086c0.519,0.099,0.588,0.056,0.577-0.47
	c-0.014-0.669-0.064-1.337-0.079-2.006c-0.033-1.465-0.05-2.931-0.079-4.397c-0.012-0.59-0.057-1.18-0.051-1.769
	c0.031-2.701,0.072-5.402,0.12-8.103c0.003-0.198,0.115-0.394,0.122-0.593c0.023-0.659,0.016-1.319,0.032-1.978
	c0.003-0.144,0.051-0.287,0.124-0.424c0.026,0.405,0.052,0.81,0.079,1.214c0.015,0,0.03,0.001,0.045,0.001c0-0.319,0-0.638,0-0.995
	c0.304,0.271,0.223,0.604,0.25,0.895c0.052,0.576,0.06,1.156,0.087,1.734c0.024,0,0.048,0,0.072,0c0-0.445,0-0.889,0-1.334
	c0.018,0.001,0.037,0.002,0.055,0.003c0.042,0.456,0.084,0.911,0.126,1.367c-0.013,0.003-0.027,0.005-0.04,0.008
	c-0.008-0.036-0.016-0.072-0.026-0.116c-0.01,0.011-0.023,0.019-0.023,0.027c-0.001,0.654-0.015,1.309,0.005,1.963
	c0.01,0.332,0.096,0.661,0.121,0.993c0.016,0.209-0.024,0.421-0.03,0.632c-0.013,0.516-0.03,1.031-0.026,1.547
	c0.002,0.203,0.056,0.405,0.086,0.608c0.042,0,0.084-0.001,0.126-0.001c0.027-0.244,0.054-0.489,0.081-0.733
	c0.016-0.001,0.032-0.002,0.047-0.002c0.039,0.492,0.078,0.985,0.116,1.477c0.032,0.004,0.063,0.009,0.095,0.013
	c0.032-0.089,0.064-0.178,0.097-0.268c0.01,0.053,0.021,0.11,0.032,0.167c0.019,0,0.037,0,0.056,0c0-0.199-0.01-0.398,0.002-0.595
	c0.019-0.301,0.042-0.603,0.084-0.902c0.046-0.329-0.044-0.518-0.306-0.539c0.011,0.125,0.021,0.246,0.031,0.365
	c-0.008,0.007-0.015,0.017-0.019,0.016c-0.031-0.01-0.077-0.039-0.087-0.029c-0.024,0.023-0.03,0.064-0.043,0.098
	c-0.023-0.013-0.046-0.026-0.069-0.039c0-0.25,0-0.501,0-0.756c0.062-0.027,0.132-0.058,0.21-0.092
	c0.011,0.059,0.022,0.124,0.034,0.19c0.01,0,0.02-0.001,0.031-0.001c0.012-0.077,0.023-0.153,0.045-0.296
	c0.018,0.122,0.027,0.183,0.039,0.262c0.206-0.067,0.218-0.173,0.122-0.337c-0.044-0.076-0.078-0.183-0.062-0.264
	c0.05-0.246,0.127-0.487,0.193-0.729c-0.036,0.003-0.073,0.006-0.109,0.01c-0.049-0.071-0.139-0.142-0.141-0.214
	c-0.012-0.533-0.007-1.066-0.006-1.599c0.024,0.508,0.049,1.015,0.073,1.522c0.023,0.002,0.046,0.004,0.069,0.005
	c0.023-0.15,0.047-0.301,0.07-0.451c0.013,0,0.027,0.001,0.04,0.001c0,0.244,0,0.487,0,0.731c0.017,0,0.034,0,0.052,0
	c0-0.843,0-1.685,0-2.528c0.014,0,0.027-0.001,0.041-0.001c0.069,0.756,0.152,1.511,0.198,2.268c0.014,0.23-0.085,0.465-0.109,0.7
	c-0.009,0.092,0.035,0.197,0.077,0.284c0.056,0.115,0.102,0.201-0.065,0.268c-0.03,0.012-0.012,0.151-0.013,0.232
	c-0.002,0.179,0.002,0.359-0.003,0.538c-0.007,0.252,0.02,0.514-0.043,0.752c-0.059,0.222,0.139,0.443-0.043,0.662
	c-0.047,0.057,0.038,0.213,0.041,0.325c0.025,1.023,0.041,2.046,0.069,3.069c0.047,1.722,0.111,3.443,0.149,5.164
	c0.014,0.634-0.027,1.269-0.043,1.904c-0.002,0.088,0,0.175,0,0.269c0.329,0.027,0.638,0.04,0.943,0.085
	c0.117,0.017,0.23,0.097,0.332,0.167c0.035,0.024,0.03,0.105,0.044,0.159c-0.019,0.016-0.039,0.032-0.058,0.049
	c0.229,0.091,0.463,0.173,0.685,0.28c0.058,0.028,0.079,0.136,0.095,0.224c0.338,0.184,0.341,0.209,0.038,0.535
	c0.065,0.072,0.131,0.145,0.197,0.218c-0.664,0.37-1.391,0.426-2.115,0.481c-0.793,0.06-1.588,0.1-2.383,0.137
	c-0.857,0.039-1.715,0.065-2.585,0.034c0.042-0.022,0.084-0.045,0.163-0.087c-0.265,0-0.497,0-0.729,0
	c-0.001,0.011-0.003,0.021-0.004,0.032c0.105,0.017,0.21,0.035,0.315,0.052c-0.001,0.011-0.002,0.022-0.003,0.033
	c-0.609,0.032-1.234,0.166-1.825,0.077c-1.635-0.246-3.269-0.028-4.901-0.105c-0.073-0.003-0.146-0.016-0.219-0.024
	c0-0.023,0-0.046,0.001-0.07c0.099-0.008,0.199-0.016,0.37-0.03c-0.144-0.017-0.219-0.026-0.294-0.036
	c0.001-0.01,0.003-0.02,0.004-0.03c0.147-0.011,0.295-0.023,0.442-0.034c0-0.013-0.001-0.025-0.001-0.038c-0.857,0-1.714,0-2.571,0
	c0-0.021,0-0.041,0-0.062c1.774,0,3.549,0,5.305,0c-0.067,0.015-0.155,0.036-0.244,0.056c0.238,0.043,0.476,0.14,0.686-0.064
	c0.04-0.039,0.133-0.03,0.202-0.031c0.974-0.019,1.949-0.032,2.923-0.056c0.817-0.02,1.634-0.053,2.256-0.073
	c-0.554,0-1.302-0.003-2.051,0.001c-0.626,0.003-1.252,0.016-1.878,0.023c-0.974,0.011-1.949,0.027-2.923,0.029
	c-1.571,0.004-3.148,0.086-4.711-0.027c-1.511-0.109-3.015-0.017-4.522-0.066c-1.626-0.053-3.255-0.016-4.882-0.01
	c-0.299,0.001-0.598,0.06-0.897,0.058c-0.3-0.002-0.599-0.047-0.907-0.022c0.036,0.015,0.072,0.029,0.162,0.066
	c-0.898,0.041-1.735,0.088-2.573,0.111c-0.195,0.005-0.397-0.053-0.585-0.115c-0.115-0.037-0.103-0.252-0.279-0.249
	c-0.016,0-0.033-0.052-0.047-0.051c-0.326,0.019-0.509-0.233-0.768-0.404c0.065-0.08,0.128-0.157,0.203-0.25
	c-0.048-0.053-0.097-0.107-0.144-0.159c0.905-0.362,1.879-0.29,2.833-0.399c-0.27-3.734-0.288-7.426,0.06-11.114
	c0.024-0.001,0.048-0.003,0.072-0.004c0.029,0.201,0.057,0.402,0.086,0.603c0.018-0.002,0.036-0.004,0.054-0.007
	c0-0.141,0-0.282,0-0.513c0.085,0.105,0.145,0.147,0.155,0.198c0.038,0.201,0.065,0.405,0.085,0.609
	c0.019,0.194,0.023,0.39,0.078,0.588c0.015-0.235,0.029-0.469,0.044-0.704c0.027,0,0.053,0.001,0.08,0.001
	c0,0.386-0.023,0.774,0.006,1.157c0.031,0.407-0.104,0.828,0.103,1.223c0.036,0.069,0.039,0.189,0.003,0.258
	c-0.175,0.34-0.106,0.69-0.061,1.039c0.006,0.047,0.075,0.085,0.115,0.128c0.037-0.051,0.098-0.098,0.106-0.152
	c0.033-0.239,0.051-0.479,0.075-0.732c0.046-0.01,0.104-0.023,0.211-0.047c-0.067,0.249-0.163,0.467-0.176,0.689
	c-0.014,0.234,0.052,0.472,0.086,0.734c0.305-0.156,0.17-0.438,0.249-0.64c0.114-0.292,0.03-0.506-0.181-0.722
	c0.123-0.019,0.193-0.029,0.294-0.045c-0.294-0.294-0.058-0.506,0.048-0.759C8.3,28.75,8.248,28.778,8.167,28.821
	c-0.006-0.122-0.01-0.216-0.015-0.31c0.01-0.002,0.021-0.005,0.031-0.007c0.016,0.044,0.032,0.087,0.048,0.132
	c0.316-0.277,0.155-0.665,0.29-1c0,0.079-0.006,0.159,0.001,0.238c0.025,0.256,0.057,0.511,0.081,0.767
	c0.005,0.056-0.012,0.115-0.023,0.172c-0.017,0.085-0.074,0.181-0.051,0.252c0.093,0.293,0.028,0.565-0.053,0.846
	c-0.032,0.112,0.004,0.244,0.008,0.367c0.027,0.766,0.052,1.532,0.082,2.298c0.036,0.935,0.085,1.87,0.111,2.805
	c0.009,0.329-0.019,0.662-0.056,0.99c-0.015,0.139-0.096,0.27-0.147,0.405c-0.023-0.005-0.046-0.009-0.069-0.014
	c-0.016-0.078-0.032-0.155-0.058-0.277c-0.108,0.133-0.19,0.233-0.309,0.379c0.316,0.016,0.571,0.06,0.819,0.035
	c0.787-0.079,1.568-0.087,2.352,0.036c0.084,0.013,0.273,0.138,0.268-0.115c0-0.001,0.05-0.004,0.077-0.005
	c0.561-0.018,1.123-0.058,1.683-0.046c0.349,0.007,0.696,0.09,1.113,0.149c-0.269-4.697-0.28-9.313,0.054-13.925
	c0.031-0.002,0.061-0.004,0.092-0.006c0.022,0.236,0.043,0.472,0.068,0.741c0.119-0.222-0.024-0.477,0.118-0.655
	c0.024,0.005,0.048,0.011,0.072,0.016c-0.016,0.154-0.033,0.309-0.049,0.463c0.013,0.002,0.026,0.005,0.04,0.007
	c0.015-0.044,0.029-0.088,0.062-0.185c0.034,0.518,0.064,0.984,0.094,1.45c0.023,0.001,0.045,0.002,0.068,0.002
	c0-0.291,0-0.583,0-0.874c0.034,0,0.069,0,0.103,0c0,0.482-0.001,0.964,0,1.446c0.001,0.382-0.074,0.784,0.023,1.14
	c0.151,0.556-0.083,1.084-0.007,1.622c0.03,0.211,0.07,0.421,0.105,0.632c0.042-0.003,0.083-0.005,0.125-0.008
	c0.019-0.232,0.038-0.463,0.056-0.695c0.003-0.036-0.006-0.073,0.002-0.107c0.029-0.123,0.063-0.244,0.096-0.366
	c0.034,0.019,0.101,0.048,0.099,0.055c-0.044,0.142,0.137,0.317-0.064,0.439c-0.041,0.025-0.088,0.087-0.085,0.128
	c0.029,0.376,0.068,0.751,0.104,1.126c0.041,0.005,0.081,0.01,0.122,0.015c0.043-0.158,0.099-0.313,0.126-0.474
	c0.037-0.219,0.062-0.441,0.07-0.662c0.004-0.11-0.003-0.262-0.07-0.324c-0.145-0.133-0.178-0.252-0.057-0.411
	c0.018,0.033,0.042,0.078,0.084,0.154c0.035-0.066,0.081-0.111,0.074-0.146c-0.033-0.17-0.084-0.337-0.12-0.507
	c-0.006-0.026,0.026-0.07,0.053-0.092c0.051-0.043,0.11-0.075,0.234-0.156c-0.153-0.029-0.215-0.04-0.286-0.053
	c0-0.113,0-0.227,0-0.34c0.007-0.001,0.014-0.001,0.02-0.002c0.008,0.057,0.016,0.113,0.024,0.17
	c0.014,0.004,0.029,0.008,0.043,0.012c0.027-0.081,0.053-0.161,0.094-0.285c0.014,0.096,0.022,0.153,0.03,0.209
	c0.009,0,0.019,0.001,0.028,0.001c0-0.545,0-1.091,0-1.636c0.008,0,0.017,0,0.025,0c0.061,0.589,0.126,1.179,0.18,1.769
	c0.007,0.074-0.058,0.153-0.058,0.23c-0.001,0.14,0.019,0.281,0.033,0.421c0.002,0.024,0.035,0.062,0.029,0.068
	c-0.22,0.213,0.027,0.485-0.101,0.731c-0.086,0.167-0.04,0.408-0.037,0.616c0.008,0.569,0.018,1.139,0.037,1.708
	c0.044,1.321,0.105,2.641,0.135,3.962c0.016,0.705-0.016,1.412-0.039,2.117c-0.004,0.119-0.068,0.236-0.126,0.426
	c1.415,0,2.802,0,4.189,0c0,0.016,0,0.031,0,0.047c-0.027-0.015-0.054-0.029-0.08-0.044c0.006-0.02,0.011-0.041,0.017-0.061
	c0.22,0.059,0.438,0.142,0.662,0.171c0.236,0.03,0.479,0.007,0.726-0.027c-0.082-0.014-0.164-0.028-0.246-0.042
	c0-0.005,0.001-0.01,0.001-0.015c0.34,0,0.68-0.004,1.02,0.001c0.197,0.003,0.27-0.022,0.237-0.274
	c-0.049-0.383,0.013-0.778,0.001-1.168c-0.028-0.91-0.082-1.819-0.107-2.729c-0.023-0.831-0.024-1.663-0.034-2.495
	c-0.016-1.368-0.056-2.737-0.041-4.105c0.019-1.681,0.076-3.362,0.131-5.042c0.027-0.833,0.085-1.665,0.134-2.497
	c0.007-0.118,0.043-0.234,0.066-0.351c0.027,0,0.055,0.001,0.082,0.001c0.03,0.383,0.06,0.766,0.09,1.149
	c0.02-0.001,0.04-0.003,0.06-0.004c0-0.303,0-0.606,0-0.909c0.01-0.006,0.02-0.012,0.03-0.018c0.007,0.037,0.015,0.073,0.022,0.11
	c0.018-0.012,0.035-0.024,0.053-0.036c0.009-0.069,0.018-0.138,0.026-0.207c0.013-0.001,0.027-0.002,0.04-0.003
	c0.059,0.836,0.118,1.672,0.177,2.508c0.02,0.001,0.04,0.002,0.059,0.003c0-0.439,0-0.877,0-1.339
	c0.081,0.03,0.106,0.035,0.107,0.04c0.022,0.567,0.056,1.133,0.056,1.7c0.001,0.431-0.065,0.863-0.056,1.293
	c0.007,0.338,0.097,0.673,0.123,1.011c0.015,0.192-0.03,0.387-0.039,0.581c-0.019,0.4-0.036,0.801-0.047,1.201
	c-0.003,0.124,0.007,0.252,0.032,0.373c0.028,0.138,0.081,0.27,0.122,0.405c0.032-0.003,0.065-0.006,0.097-0.008
	c0.031-0.231,0.063-0.462,0.094-0.693c0.016,0,0.033-0.001,0.049-0.001c0.042,0.476,0.085,0.952,0.127,1.427
	c0.028,0.011,0.057,0.022,0.085,0.033c0.064-0.123,0.169-0.241,0.186-0.371c0.052-0.405,0.082-0.813,0.098-1.221
	c0.005-0.134-0.027-0.289-0.096-0.402c-0.145-0.237-0.16-0.228-0.076-0.541c0.024,0.094,0.039,0.156,0.055,0.217
	c0.026,0.007,0.052,0.015,0.079,0.022c0.025-0.088,0.091-0.239,0.067-0.255c-0.239-0.16-0.091-0.314-0.014-0.473
	c0.007-0.014,0-0.034,0-0.052L24.433,23.806z M28.426,37.181c-0.302,0.008-0.612-0.063-0.972,0.046
	c0.252,0.144,0.786,0.091,0.973-0.047c0.081,0.033,0.163,0.098,0.243,0.094c0.374-0.016,0.746-0.051,1.119-0.08
	c0-0.004,0-0.009,0-0.013C29.334,37.181,28.88,37.181,28.426,37.181z M23.727,30.464c0.026-0.001,0.053-0.003,0.079-0.004
	c0.032-0.271,0.084-0.542,0.089-0.813c0.003-0.17-0.094-0.341-0.092-0.511c0.005-0.443,0.061-0.886,0.058-1.328
	c-0.003-0.405-0.058-0.809-0.092-1.213c-0.003-0.032-0.027-0.061-0.041-0.092c-0.029,0-0.059,0.001-0.088,0.001
	c0,0.138,0.002,0.276-0.001,0.413c-0.003,0.137,0.001,0.275-0.02,0.41c-0.014,0.093-0.091,0.18-0.092,0.27
	c-0.002,0.267,0.03,0.535,0.027,0.803c-0.003,0.228,0.205,0.452,0.012,0.686c-0.019,0.023-0.005,0.114,0.017,0.124
	c0.193,0.093,0.087,0.235,0.07,0.363C23.612,29.876,23.557,30.183,23.727,30.464z M32.604,25.977
	c-0.071,0.094-0.104,0.118-0.107,0.145c-0.042,0.368-0.094,0.736-0.114,1.105c-0.016,0.284,0.004,0.571,0.018,0.856
	c0.012,0.25,0.167,0.494,0.024,0.75c-0.014,0.026-0.008,0.092,0.01,0.102c0.211,0.115,0.081,0.287,0.076,0.435
	c-0.007,0.222-0.028,0.445-0.026,0.667c0.001,0.083,0.05,0.165,0.096,0.304c0.046-0.098,0.066-0.128,0.073-0.159
	c0.089-0.383,0.034-0.751-0.018-1.14c-0.068-0.507,0.041-1.037,0.071-1.558c0.003-0.06-0.009-0.122-0.016-0.182
	c-0.029-0.244-0.065-0.488-0.084-0.733C32.593,26.399,32.604,26.227,32.604,25.977z M32.888,27.47
	c-0.013,0.009-0.027,0.017-0.04,0.026c0.072,0.25,0.147,0.5,0.215,0.751c0.016,0.058,0.028,0.167,0.007,0.177
	c-0.242,0.116-0.141,0.324-0.139,0.498c0.005,0.357,0.021,0.714,0.04,1.07c0.005,0.097,0.034,0.194,0.053,0.29
	c0.136-1.15,0.21-2.292-0.006-3.427c-0.031-0.004-0.062-0.008-0.094-0.011c-0.047,0.249-0.094,0.498-0.141,0.747
	c0.025,0.006,0.049,0.011,0.074,0.017C32.867,27.562,32.877,27.516,32.888,27.47z M24.244,28.316
	c0.007,0.001,0.014,0.002,0.02,0.003c0,0.157,0,0.315,0,0.438c-0.054,0.014-0.123,0.019-0.126,0.035
	c-0.09,0.563,0.047,1.113,0.083,1.67c0.071-0.622,0.099-1.242,0.108-1.863c0.003-0.223-0.095-0.459-0.048-0.667
	c0.053-0.236-0.087-0.413-0.088-0.623c0-0.015-0.038-0.03-0.058-0.045c-0.199,0.272-0.165,0.821,0.072,1.192
	C24.221,28.41,24.233,28.363,24.244,28.316z M15.246,32.048c0.041-0.006,0.082-0.012,0.123-0.018
	c-0.029-0.961-0.057-1.922-0.086-2.882c-0.105,0.279-0.164,0.558-0.198,0.84c-0.068,0.573,0.205,1.129,0.09,1.709
	C15.155,31.805,15.221,31.93,15.246,32.048z M15.642,29.652c-0.196,0.245-0.222,0.687-0.021,0.835
	c0.182,0.135,0.093,0.284,0.119,0.428c0.001,0.005-0.02,0.015-0.03,0.023c-0.013-0.05-0.024-0.096-0.036-0.143
	c-0.017,0.002-0.033,0.004-0.05,0.006c0,0.4,0,0.8,0,1.199c0.024,0,0.048,0,0.072,0C15.823,31.226,15.83,30.455,15.642,29.652z
	 M7.772,32.976c-0.027-0.761-0.055-1.522-0.082-2.283C7.454,31.063,7.532,32.778,7.772,32.976z M7.612,37.842
	c-0.004,0.036-0.008,0.072-0.012,0.108c0.572,0.005,1.147,0.202,1.717,0c0-0.036-0.001-0.072-0.001-0.108
	C8.748,37.842,8.18,37.842,7.612,37.842z M15.684,37.895c0.001-0.02,0.001-0.04,0.002-0.061c-0.919,0-1.839,0-2.758,0
	c0,0.02,0,0.04-0.001,0.061C13.847,37.895,14.766,37.895,15.684,37.895z M8.09,32.983c0.116-0.639,0.164-1.252-0.057-1.901
	c-0.172,0.314-0.163,0.397,0.059,0.816C7.956,32.117,7.952,32.515,8.09,32.983z M32.814,37.341c0.432,0.232,1.43,0.132,1.503-0.102
	C33.813,37.273,33.313,37.307,32.814,37.341z M31.528,37.558c-0.082-0.225-0.67-0.238-1.065,0
	C30.857,37.558,31.181,37.558,31.528,37.558z M6.03,38.021c0.434,0.02,0.833,0.038,1.239,0.057
	C7.158,37.844,6.364,37.799,6.03,38.021z M9.77,37.905c0.309,0.094,1.422,0.056,1.571-0.054C11.039,37.756,9.875,37.795,9.77,37.905
	z M25.694,37.484c-0.65,0-1.274,0-1.897,0c0.001,0.033,0.003,0.067,0.004,0.1C24.423,37.552,25.045,37.519,25.694,37.484z
	 M32.681,30.885c-0.027,0.002-0.053,0.004-0.08,0.005c0,0.336,0,0.672,0,1.008c0.027,0,0.053-0.001,0.08-0.001
	C32.681,31.56,32.681,31.222,32.681,30.885z M28.649,37.451c0.467,0.023,0.932,0.205,1.395,0.07c0-0.023,0-0.047,0-0.07
	C29.579,37.451,29.114,37.451,28.649,37.451z M23.85,31.001c-0.045,0.001-0.09,0.002-0.135,0.002
	c0.018,0.316,0.036,0.632,0.054,0.948c0.027-0.001,0.054-0.002,0.081-0.004C23.85,31.633,23.85,31.317,23.85,31.001z M33.078,31.762
	c0.022-0.001,0.043-0.002,0.065-0.003c-0.02-0.363-0.04-0.727-0.059-1.09c-0.03,0.002-0.059,0.003-0.089,0.005
	C32.911,31.042,33.032,31.4,33.078,31.762z M21.341,38.407c-0.001-0.013-0.003-0.026-0.004-0.04c-0.618,0-1.237,0-1.855,0
	c0,0.013,0,0.026,0,0.04C20.102,38.407,20.722,38.407,21.341,38.407z M24.228,31.762c0.03-0.001,0.06-0.003,0.09-0.004
	c-0.015-0.318-0.03-0.637-0.046-0.955c-0.039,0.003-0.078,0.006-0.117,0.008C24.18,31.128,24.204,31.445,24.228,31.762z
	 M25.872,37.985c0.003-0.017,0.006-0.033,0.01-0.05c-0.507,0-1.013,0-1.52,0c0,0.017,0,0.033,0,0.05
	C24.865,37.985,25.369,37.985,25.872,37.985z M25.12,37.557c0,0.014-0.001,0.028-0.001,0.042c0.504,0,1.008,0,1.511,0
	c0-0.014,0-0.028,0-0.042C26.127,37.557,25.623,37.557,25.12,37.557z M14.029,37.487c0,0.019,0,0.037,0,0.056
	c0.444,0,0.888,0,1.331,0c0-0.019,0-0.037,0-0.056C14.916,37.487,14.473,37.487,14.029,37.487z M24.472,36.179
	c-0.053,0.235-0.106,0.467-0.158,0.697C24.595,36.848,24.611,36.773,24.472,36.179z M25.497,37.22c0,0.017,0,0.034,0,0.051
	c0.346,0,0.691,0,1.037,0c0-0.017,0-0.034,0-0.051C26.188,37.22,25.842,37.22,25.497,37.22z M13.597,37.13c0,0.016,0,0.032,0,0.048
	c0.254,0,0.508,0,0.762,0c0-0.016,0-0.032,0-0.048C14.105,37.13,13.851,37.13,13.597,37.13z M15.354,32.495
	c-0.038,0.002-0.076,0.003-0.113,0.005c0.016,0.215,0.032,0.43,0.048,0.646c0.022-0.001,0.044-0.003,0.065-0.004
	C15.354,32.927,15.354,32.711,15.354,32.495z"/>
<path fill="#FFFFFF" d="M37.947,18.366c-0.059-0.017-0.132-0.018-0.175-0.054c-0.438-0.367-0.871-0.739-1.304-1.112
	c-0.344-0.296-0.682-0.598-1.028-0.89c-0.228-0.192-0.438-0.436-0.703-0.547c-0.612-0.257-1.043-0.741-1.546-1.132
	c-0.591-0.46-1.138-0.975-1.719-1.447c-0.476-0.387-0.982-0.737-1.463-1.119c-0.401-0.319-0.783-0.662-1.176-0.99
	c-0.082-0.069-0.179-0.12-0.269-0.179c-0.014,0.02-0.027,0.039-0.041,0.059c0.66,0.565,1.319,1.13,1.979,1.695
	c-0.011,0.013-0.021,0.026-0.032,0.039c-0.098-0.078-0.196-0.156-0.294-0.234c-0.018,0.018-0.036,0.037-0.054,0.055
	c0.183,0.203,0.365,0.406,0.548,0.609c-0.003,0.005-0.006,0.011-0.009,0.016c-0.231-0.187-0.464-0.371-0.693-0.562
	c-1.448-1.206-2.893-2.417-4.347-3.615c-0.173-0.143-0.426-0.19-0.598-0.334c-0.395-0.332-0.765-0.695-1.141-1.05
	c-0.045-0.043-0.067-0.111-0.098-0.169C23.765,7.37,23.757,7.309,23.731,7.3c-0.681-0.234-1.081-0.818-1.587-1.27
	c-0.617-0.552-1.24-1.097-1.875-1.658c-0.047,0.033-0.106,0.068-0.158,0.113c-0.431,0.377-0.856,0.761-1.292,1.132
	c-0.617,0.525-1.24,1.043-1.868,1.555c-0.097,0.079-0.236,0.107-0.356,0.159c-0.024,0.011-0.057,0.019-0.069,0.038
	c-0.339,0.539-0.825,0.971-1.347,1.269c-1.363,0.778-2.45,1.901-3.715,2.796c-0.4,0.283-0.78,0.595-1.172,0.891
	c-0.072,0.055-0.153,0.098-0.27,0.102c0.02-0.051,0.039-0.102,0.08-0.208c-0.122,0.08-0.206,0.135-0.29,0.19
	c-0.009-0.01-0.018-0.021-0.027-0.031c0.67-0.54,1.34-1.08,2.063-1.663c-0.095,0.013-0.129,0.007-0.15,0.021
	c-0.359,0.248-0.729,0.483-1.072,0.752c-0.462,0.363-0.867,0.811-1.361,1.12c-1.099,0.687-2.021,1.599-3.081,2.332
	c-0.321,0.222-0.676,0.395-0.988,0.627c-0.499,0.37-0.969,0.779-1.463,1.155c-0.414,0.315-0.845,0.607-1.266,0.907
	c-0.275,0.204-0.552,0.41-0.829,0.616c0.005-0.036-0.004-0.091,0.017-0.107c0.29-0.225,0.595-0.431,0.873-0.67
	c0.41-0.353,0.782-0.753,1.205-1.09c0.495-0.394,1.03-0.739,1.542-1.112c0.441-0.322,0.878-0.65,1.309-0.984
	c0.087-0.067,0.143-0.174,0.214-0.262c-0.026-0.028-0.053-0.057-0.079-0.085c-0.525,0.377-1.051,0.754-1.576,1.131
	c-0.012-0.014-0.023-0.029-0.035-0.043c0.821-0.655,1.643-1.31,2.464-1.965c-0.006-0.015-0.012-0.031-0.018-0.046
	c-0.044,0.004-0.088,0.008-0.143,0.013c0.018-0.047,0.035-0.09,0.071-0.183c-0.182,0.024-0.332,0.044-0.537,0.071
	c0.046-0.081,0.066-0.155,0.113-0.195c0.253-0.212,0.513-0.414,0.769-0.622c0.241-0.195,0.48-0.393,0.72-0.59
	c0.691-0.567,1.377-1.141,2.075-1.699c1.885-1.509,3.777-3.01,5.662-4.52c0.229-0.183,0.42-0.414,0.645-0.602
	c0.147-0.123,0.387-0.172,0.477-0.32c0.334-0.55,0.917-0.84,1.311-1.322c0.072-0.088,0.166-0.158,0.26-0.245
	c-0.06-0.092-0.111-0.171-0.176-0.271c0.097-0.028,0.184-0.054,0.269-0.079c0.019-0.416,0.049-0.442,0.369-0.326
	c0-0.026,0-0.052-0.001-0.078C19.535,2.033,19.632,2,19.72,2.017c0.206,0.041,0.407,0.107,0.522,0.138
	c0.118-0.064,0.184-0.13,0.223-0.116c0.206,0.068,0.441,0.114,0.6,0.247c0.363,0.302,0.694,0.644,1.026,0.981
	c0.332,0.338,0.645,0.694,0.975,1.033c0.071,0.073,0.187,0.101,0.268,0.167c0.154,0.124,0.302,0.257,0.445,0.394
	c0.083,0.079,0.144,0.183,0.231,0.256c1.956,1.663,3.917,3.321,5.871,4.988c0.613,0.523,1.205,1.068,1.812,1.598
	c0.483,0.422,0.979,0.83,1.458,1.256c0.21,0.187,0.399,0.4,0.587,0.61c0.032,0.036,0.013,0.118,0.018,0.194
	c-0.192-0.175-0.373-0.348-0.563-0.511c-0.059-0.051-0.137-0.084-0.211-0.114c-0.153-0.062-0.22-0.014-0.163,0.173
	c-0.092-0.062-0.168-0.113-0.245-0.165c-0.018,0.023-0.035,0.046-0.053,0.069c0.92,0.783,1.839,1.565,2.759,2.348
	c-0.01,0.012-0.02,0.025-0.029,0.037c-0.546-0.418-1.092-0.837-1.638-1.255c-0.021,0.012-0.042,0.024-0.064,0.036
	c0.065,0.115,0.104,0.261,0.199,0.339c0.348,0.284,0.721,0.539,1.073,0.818c0.291,0.231,0.56,0.489,0.85,0.721
	c0.17,0.136,0.377,0.229,0.541,0.371c0.234,0.202,0.433,0.443,0.665,0.648c0.564,0.497,1.139,0.982,1.709,1.473
	c0.058,0.05,0.107,0.109,0.16,0.165c0,0-0.011,0.017-0.017,0.018c-0.017,0.001-0.034-0.002-0.049-0.003
	C38.437,18.744,38.192,18.555,37.947,18.366z M11.424,9.743c-0.131,0.14-0.262,0.28-0.393,0.419
	c0.021,0.023,0.041,0.045,0.062,0.068c1.117-0.884,2.234-1.768,3.35-2.652c-0.016-0.02-0.031-0.04-0.047-0.061
	c-1.037,0.632-1.909,1.484-2.875,2.21c0.147-0.188,0.294-0.376,0.44-0.564c-0.017-0.018-0.033-0.037-0.05-0.055
	c-0.25,0.213-0.5,0.425-0.75,0.638c0.017,0.028,0.033,0.057,0.05,0.085C11.282,9.803,11.353,9.773,11.424,9.743z M28.866,9.853
	c0.07,0.026,0.139,0.053,0.209,0.079c0.016-0.027,0.031-0.054,0.047-0.081c-0.235-0.213-0.471-0.426-0.706-0.64
	c-0.02,0.019-0.04,0.039-0.059,0.058c0.144,0.191,0.288,0.382,0.432,0.573c-0.992-0.765-1.854-1.694-2.927-2.358
	c0.27,0.392,3.203,2.798,3.386,2.803C29.121,10.143,28.993,9.998,28.866,9.853z M23.198,5.312c0.028-0.02,0.056-0.04,0.083-0.06
	c-0.025-0.079-0.025-0.191-0.079-0.231c-0.375-0.283-0.76-0.552-1.144-0.823c-0.002-0.001-0.02,0.022-0.037,0.04
	C22.335,4.687,22.76,5.007,23.198,5.312z M18.334,4.486c-0.019-0.028-0.037-0.057-0.056-0.085c-0.098,0.048-0.202,0.088-0.295,0.145
	c-0.236,0.145-0.481,0.281-0.694,0.455c-0.137,0.112-0.358,0.218-0.237,0.558C17.501,5.183,17.917,4.835,18.334,4.486z
	 M23.625,5.394c-0.038,0.04-0.076,0.08-0.114,0.119c0.309,0.425,0.778,0.686,1.196,1.114c0.007-0.143,0.039-0.237,0.009-0.264
	C24.358,6.034,23.99,5.716,23.625,5.394z M16.77,5.636c-0.016-0.019-0.032-0.038-0.048-0.058c-0.033,0.008-0.074,0.007-0.099,0.026
	c-0.326,0.255-0.655,0.508-0.971,0.774c-0.059,0.049-0.068,0.157-0.1,0.238c0.03,0.017,0.061,0.033,0.091,0.05
	C15.995,6.298,16.494,6.084,16.77,5.636z M18.489,4.09c0.019,0.025,0.038,0.05,0.058,0.075c0.377-0.106,0.589-0.427,0.848-0.685
	c-0.018-0.023-0.036-0.046-0.054-0.07C19.057,3.636,18.773,3.863,18.489,4.09z M21.235,3.384c-0.021,0.005-0.041,0.01-0.062,0.015
	c0.028,0.069,0.038,0.157,0.087,0.204c0.101,0.097,0.218,0.181,0.339,0.254c0.048,0.029,0.123,0.015,0.186,0.021
	c-0.031-0.063-0.046-0.146-0.096-0.185C21.545,3.58,21.387,3.486,21.235,3.384z M26.372,9.01c-0.028,0.031-0.055,0.062-0.083,0.094
	c0.208,0.163,0.416,0.326,0.624,0.489c0.018-0.022,0.036-0.044,0.054-0.067C26.769,9.354,26.57,9.182,26.372,9.01z"/>
<path fill="#FFFFFF" d="M73.758,31.184c-0.199,0-0.382,0-0.594,0c0-1.648,0-3.281,0-4.982c-0.147,0.103-0.248,0.167-0.341,0.24
	c-1.058,0.84-2.118,1.677-3.168,2.526c-0.167,0.135-0.267,0.128-0.43-0.004c-1.063-0.862-2.136-1.712-3.206-2.565
	c-0.062-0.049-0.128-0.093-0.238-0.171c-0.014,0.145-0.033,0.252-0.034,0.359c-0.002,1.36-0.001,2.72-0.001,4.08
	c0,0.578,0,0.578-0.637,0.508c0-0.098,0-0.202,0-0.305c0-1.781-0.001-3.561,0.003-5.342c0-0.107,0.041-0.214,0.062-0.321
	c0.14,0.032,0.313,0.022,0.416,0.102c0.779,0.601,1.544,1.22,2.313,1.834c0.455,0.362,0.914,0.72,1.362,1.089
	c0.138,0.114,0.231,0.103,0.369-0.007c1.195-0.955,2.395-1.903,3.596-2.85c0.089-0.071,0.188-0.145,0.294-0.175
	c0.138-0.038,0.262-0.019,0.262,0.188c-0.005,1.897-0.004,3.794-0.006,5.691C73.78,31.105,73.77,31.131,73.758,31.184z"/>
<path fill="#FFFFFF" d="M52.852,28.544c0.788,0.869,1.576,1.737,2.408,2.654c-0.304,0-0.543,0.013-0.779-0.007
	c-0.082-0.007-0.172-0.083-0.232-0.151c-0.683-0.769-1.366-1.539-2.038-2.318c-0.13-0.151-0.265-0.209-0.461-0.206
	c-0.59,0.011-1.181,0.003-1.772,0.004c-0.359,0-0.36,0.001-0.361,0.35c-0.001,0.76,0,1.52,0,2.304c-0.208,0-0.398,0-0.61,0
	c0-1.955,0-3.91,0-5.882c0.057-0.009,0.115-0.027,0.174-0.027c1.548-0.001,3.097-0.006,4.645,0.001
	c0.714,0.004,1.306,0.413,1.493,1.014c0.316,1.022-0.271,2.249-1.572,2.186c-0.284-0.014-0.569-0.002-0.854-0.002
	C52.88,28.492,52.866,28.518,52.852,28.544z M51.767,28.004c0.634,0,1.269,0.006,1.903-0.002c0.55-0.007,0.989-0.387,1.069-0.907
	c0.095-0.619-0.142-1.063-0.676-1.233c-0.159-0.051-0.332-0.082-0.499-0.083c-1.233-0.007-2.466-0.001-3.699-0.007
	c-0.185-0.001-0.253,0.058-0.251,0.246c0.008,0.581,0.008,1.162,0,1.742c-0.003,0.186,0.062,0.25,0.249,0.247
	C50.498,27.998,51.132,28.004,51.767,28.004z"/>
<path fill="#FFFFFF" d="M75.543,25.279c1.991,0,3.964,0,5.934,0c0.101,0.439,0.081,0.466-0.333,0.466
	c-1.548,0-3.095,0.005-4.643-0.005c-0.25-0.002-0.351,0.06-0.34,0.328c0.019,0.489,0.006,0.98,0.006,1.499c1.793,0,3.55,0,5.33,0
	c0,0.182,0,0.335,0,0.517c-0.118,0-0.223,0-0.328,0c-1.566,0-3.131,0.005-4.697-0.005c-0.235-0.002-0.313,0.065-0.309,0.3
	c0.012,0.68,0.012,1.36,0,2.04c-0.004,0.231,0.084,0.28,0.297,0.279c1.575-0.008,3.149-0.004,4.724-0.004c0.097,0,0.194,0,0.314,0
	c0,0.165,0,0.312,0,0.483c-1.976,0-3.955,0-5.953,0C75.543,29.219,75.543,27.265,75.543,25.279z"/>
<path fill="#FFFFFF" d="M89.165,25.283c0.065,0.461,0.065,0.462-0.36,0.462c-1.539,0-3.078,0-4.617,0
	c-0.359,0-0.36,0.002-0.36,0.351c-0.001,0.385,0.015,0.77-0.005,1.154c-0.014,0.255,0.062,0.336,0.325,0.334
	c1.575-0.012,3.149-0.006,4.724-0.006c0.096,0,0.192,0,0.304,0c0,0.175,0,0.322,0,0.506c-0.112,0-0.216,0-0.32,0
	c-1.575,0-3.149,0.004-4.724-0.005c-0.231-0.001-0.314,0.059-0.309,0.3c0.015,0.662,0.016,1.324-0.001,1.986
	c-0.007,0.255,0.062,0.335,0.325,0.333c1.575-0.012,3.149-0.006,4.724-0.006c0.096,0,0.193,0,0.304,0c0,0.175,0,0.322,0,0.488
	c-1.981,0-3.955,0-5.953,0c0-1.959,0-3.92,0-5.898C85.201,25.283,87.174,25.283,89.165,25.283z"/>
<path fill="#FFFFFF" d="M91.495,26.365c-0.011,0.185-0.023,0.297-0.023,0.409c-0.001,1.369,0,2.737-0.004,4.106
	c0,0.101-0.021,0.28-0.063,0.29c-0.152,0.036-0.322,0.037-0.474,0.002c-0.043-0.01-0.068-0.186-0.068-0.286
	c-0.004-1.261-0.003-2.523-0.003-3.784c0-0.546-0.001-1.091,0.001-1.637c0-0.086,0.009-0.172,0.017-0.324
	c2.052,1.654,4.059,3.271,6.114,4.927c0-1.624,0-3.191,0-4.78c0.221,0,0.411,0,0.619,0c0,1.993,0,3.98,0,6.024
	C95.565,29.657,93.556,28.032,91.495,26.365z"/>
<path fill="#FFFFFF" d="M63.899,31.197c-0.259,0-0.481,0.013-0.699-0.008c-0.067-0.006-0.143-0.094-0.184-0.162
	c-0.227-0.374-0.449-0.752-0.664-1.133c-0.079-0.141-0.178-0.196-0.342-0.195c-1.333,0.006-2.666,0.006-3.998,0
	c-0.175-0.001-0.277,0.058-0.361,0.212c-0.193,0.353-0.418,0.688-0.603,1.044c-0.102,0.196-0.229,0.271-0.441,0.247
	c-0.132-0.015-0.267-0.003-0.43-0.003c0.04-0.083,0.065-0.146,0.099-0.204c1.117-1.852,2.235-3.703,3.354-5.553
	c0.214-0.354,0.593-0.348,0.808,0.008c1.106,1.827,2.211,3.654,3.317,5.482C63.8,31.005,63.838,31.083,63.899,31.197z M61.95,29.174
	c-0.657-1.12-1.286-2.192-1.944-3.314c-0.663,1.131-1.291,2.204-1.942,3.314C59.379,29.174,60.635,29.174,61.95,29.174z"/>
<path fill="#FFFFFF" d="M46.687,28.449c0.233,0,0.433,0,0.664,0c0,0.737,0.008,1.46-0.011,2.182
	c-0.002,0.077-0.147,0.184-0.246,0.22c-0.998,0.362-2.033,0.463-3.087,0.416c-0.679-0.03-1.326-0.181-1.929-0.499
	c-1.102-0.58-1.607-1.656-1.487-2.884c0.134-1.369,0.968-2.145,2.214-2.486c1.396-0.381,2.798-0.288,4.165,0.195
	c0.465,0.164,0.463,0.187,0.224,0.658c-0.886-0.461-1.85-0.586-2.827-0.547c-0.528,0.021-1.07,0.109-1.572,0.273
	c-0.987,0.323-1.535,1.116-1.562,2.118c-0.029,1.077,0.481,1.92,1.443,2.327c1.202,0.509,2.422,0.414,3.65,0.082
	c0.281-0.076,0.385-0.196,0.369-0.494C46.667,29.502,46.687,28.991,46.687,28.449z"/>
<path fill="#FFFFFF" d="M11.736,17.18c-0.063,0.175-0.117,0.324-0.168,0.467c-0.369-0.113-0.718-0.255-1.08-0.324
	c-0.707-0.136-1.422-0.164-2.127,0.02c-0.943,0.246-1.444,0.862-1.446,1.749c-0.002,0.887,0.519,1.566,1.429,1.809
	c0.842,0.225,1.683,0.168,2.509-0.098c0.071-0.023,0.16-0.122,0.166-0.193c0.021-0.239,0.008-0.481,0.008-0.774
	c-0.302,0-0.584,0-0.866,0c-0.125,0-0.251,0-0.376,0c-0.574,0-0.574,0-0.509-0.617c0.789,0,1.581,0,2.399,0
	c0.006,0.07,0.017,0.147,0.017,0.223c0.002,0.439-0.027,0.88,0.01,1.315c0.028,0.328-0.104,0.459-0.393,0.539
	c-1.139,0.315-2.284,0.444-3.429,0.065c-1.852-0.614-2.011-2.816-1.044-3.824c0.433-0.451,0.981-0.686,1.582-0.785
	c1.04-0.171,2.065-0.104,3.054,0.295C11.551,17.082,11.628,17.127,11.736,17.18z"/>
<path fill="#FFFFFF" d="M16.782,16.905c0,0.179,0,0.338,0,0.542c-0.096,0-0.189,0-0.283,0c-0.85,0-1.7,0.005-2.55-0.004
	c-0.196-0.002-0.28,0.051-0.263,0.256c0.024,0.291,0.034,0.582,0.05,0.873c0.275,0.011,0.55,0.029,0.825,0.032
	c0.546,0.005,1.092,0.014,1.637-0.004c0.25-0.008,0.246,0.125,0.249,0.3c0.003,0.179-0.028,0.278-0.247,0.274
	c-0.742-0.012-1.485,0.003-2.227-0.009c-0.227-0.004-0.292,0.074-0.288,0.293c0.012,0.581,0.004,1.163,0.004,1.744
	c0,0.097,0,0.194,0,0.308c-0.21,0-0.394,0-0.605,0c0-1.525,0-3.056,0-4.605C14.309,16.905,15.53,16.905,16.782,16.905z"/>
<path fill="#FFFFFF" d="M66.263,36.226c0-0.564,0.004-1.128-0.002-1.691c-0.002-0.179,0.048-0.253,0.243-0.251
	c0.859,0.01,1.719-0.009,2.577,0.013c0.317,0.008,0.641,0.071,0.946,0.161c0.832,0.246,1.251,0.791,1.298,1.636
	c0.045,0.808-0.343,1.494-1.097,1.794c-0.391,0.156-0.824,0.255-1.244,0.277c-0.821,0.042-1.646,0.005-2.469,0.017
	c-0.211,0.003-0.257-0.077-0.255-0.265C66.268,37.353,66.263,36.789,66.263,36.226z M66.696,36.214c0,0.456,0.008,0.913-0.004,1.369
	c-0.005,0.202,0.066,0.261,0.264,0.257c0.59-0.011,1.181,0.008,1.771-0.009c0.31-0.009,0.628-0.028,0.925-0.108
	c0.93-0.252,1.238-0.88,1.238-1.57c0-0.778-0.484-1.35-1.342-1.448c-0.884-0.101-1.783-0.069-2.675-0.094
	c-0.167-0.005-0.178,0.108-0.178,0.235C66.697,35.302,66.696,35.758,66.696,36.214z"/>
<path fill="#FFFFFF" d="M88.867,38.239c-0.562,0.023-1.085-0.074-1.568-0.335c-0.657-0.356-0.976-0.917-0.981-1.662
	c-0.005-0.755,0.299-1.349,0.978-1.688c1.012-0.506,2.057-0.504,3.076-0.028c0.739,0.346,1.056,0.975,1.03,1.789
	c-0.025,0.778-0.407,1.314-1.092,1.645C89.851,38.181,89.361,38.266,88.867,38.239z M88.758,37.966
	c0.293-0.033,0.507-0.048,0.718-0.083c0.14-0.023,0.278-0.065,0.412-0.113c0.623-0.224,1.03-0.765,1.051-1.387
	c0.028-0.831-0.276-1.381-0.958-1.662c-0.714-0.294-1.449-0.301-2.17-0.029c-0.71,0.268-1.053,0.828-1.036,1.615
	c0.015,0.697,0.419,1.252,1.117,1.476C88.194,37.881,88.516,37.917,88.758,37.966z"/>
<path fill="#FFFFFF" d="M49.296,38.239c-0.505,0.027-0.993-0.062-1.454-0.279c-0.719-0.338-1.084-0.922-1.095-1.703
	c-0.011-0.779,0.319-1.401,1.04-1.736c1.011-0.468,2.047-0.47,3.052,0.022c0.691,0.338,1.005,0.932,0.998,1.702
	c-0.007,0.771-0.345,1.335-1.031,1.684C50.334,38.17,49.829,38.263,49.296,38.239z M49.21,37.969
	c0.304-0.036,0.519-0.05,0.728-0.088c0.874-0.16,1.381-0.708,1.444-1.55c0.059-0.786-0.369-1.43-1.14-1.679
	c-0.638-0.206-1.286-0.205-1.922,0.01c-0.715,0.241-1.124,0.827-1.12,1.565c0.004,0.751,0.403,1.321,1.127,1.555
	C48.638,37.881,48.969,37.919,49.21,37.969z"/>
<path fill="#FFFFFF" d="M63.865,37.366c0-1.015,0-2.031,0-3.062c0.142,0,0.255,0,0.387,0c0,1.295,0,2.588,0,3.942
	c-1.406-1.08-2.788-2.141-4.235-3.252c0,1.093,0,2.119,0,3.164c-0.17,0-0.289,0-0.424,0c0-1.298,0-2.591,0-3.952
	c1.418,1.085,2.806,2.146,4.194,3.208C63.813,37.398,63.839,37.382,63.865,37.366z"/>
<path fill="#FFFFFF" d="M93.334,35.084c0,1.018,0,2.035,0,3.073c-0.142,0-0.26,0-0.394,0c0-1.3,0-2.591,0-3.938
	c1.412,1.08,2.791,2.134,4.218,3.226c0-1.081,0-2.096,0-3.133c0.145,0,0.264,0,0.409,0c0,1.288,0,2.578,0,3.923
	c-1.408-1.081-2.784-2.138-4.16-3.195C93.383,35.054,93.358,35.069,93.334,35.084z"/>
<path fill="#FFFFFF" d="M77.647,38.151c-0.369,0.111-0.605-0.016-0.732-0.35c-0.188-0.492-0.53-0.644-1.058-0.604
	c-0.703,0.054-1.413,0.023-2.119,0.008c-0.227-0.005-0.369,0.06-0.464,0.267c-0.063,0.137-0.177,0.252-0.233,0.391
	c-0.125,0.31-0.348,0.37-0.662,0.292c0.032-0.065,0.056-0.129,0.092-0.186c0.752-1.185,1.504-2.369,2.258-3.553
	c0.148-0.233,0.395-0.26,0.529-0.05c0.791,1.234,1.577,2.471,2.363,3.708C77.636,38.094,77.638,38.121,77.647,38.151z
	 M76.348,36.858c-0.463-0.749-0.895-1.448-1.355-2.193c-0.465,0.755-0.897,1.456-1.351,2.193
	C74.565,36.858,75.423,36.858,76.348,36.858z"/>
<path fill="#FFFFFF" d="M53.699,34.268c0,0.702,0.029,1.346-0.007,1.987c-0.058,1.048,0.427,1.446,1.334,1.604
	c0.587,0.102,1.175,0.073,1.733-0.179c0.479-0.217,0.73-0.576,0.722-1.115c-0.009-0.68-0.003-1.361-0.001-2.041
	c0-0.069,0.009-0.139,0.015-0.222c0.128,0,0.241,0,0.384,0c0.009,0.094,0.025,0.188,0.025,0.283
	c0.002,0.698-0.007,1.396,0.004,2.094c0.008,0.575-0.248,0.992-0.756,1.222c-1.022,0.463-2.064,0.463-3.091,0.018
	c-0.51-0.221-0.79-0.63-0.792-1.202c-0.002-0.734,0.004-1.468-0.004-2.202C53.26,34.17,53.498,34.327,53.699,34.268z"/>
<path fill="#FFFFFF" d="M45.231,36.194c-0.541,0-1.076,0-1.611,0c-0.59,0-1.18,0.008-1.77-0.004
	c-0.22-0.005-0.299,0.061-0.293,0.287c0.013,0.553,0.004,1.106,0.004,1.68c-0.141,0-0.259,0-0.397,0c0-1.278,0-2.552,0-3.847
	c1.357,0,2.71,0,4.069,0c0.087,0.231-0.005,0.301-0.231,0.299c-1.028-0.006-2.056-0.003-3.084-0.002
	c-0.356,0-0.356,0.002-0.357,0.354c-0.001,0.206,0.015,0.413-0.004,0.617c-0.022,0.245,0.085,0.303,0.31,0.301
	c1.046-0.008,2.092-0.001,3.138-0.006C45.213,35.872,45.319,35.928,45.231,36.194z"/>
<path fill="#FFFFFF" d="M79.923,38.162c0-1.186,0-2.346,0-3.546c-0.768,0-1.515,0-2.283,0c-0.008-0.123-0.013-0.207-0.019-0.311
	c0.097-0.007,0.175-0.017,0.253-0.017c1.502-0.001,3.004-0.002,4.506,0.002c0.109,0,0.273-0.064,0.276,0.147
	c0.003,0.2-0.149,0.167-0.268,0.167c-0.554,0.003-1.109,0.001-1.663,0.003c-0.105,0-0.211,0.012-0.343,0.021
	c0,1.186,0,2.353,0,3.534C80.224,38.162,80.094,38.162,79.923,38.162z"/>
<path fill="#FFFFFF" d="M84.608,38.166c-0.132,0-0.245,0-0.384,0c-0.008-0.113-0.022-0.217-0.022-0.321
	c-0.002-1.074-0.001-2.148-0.001-3.222c0-0.362,0.002-0.363,0.407-0.309C84.608,35.585,84.608,36.861,84.608,38.166z"/>
<path fill="#FFFFFF" d="M99.238,25.152c0.452,0,0.807,0.353,0.799,0.795c-0.008,0.423-0.375,0.789-0.793,0.79
	c-0.439,0.001-0.788-0.36-0.787-0.811C98.458,25.48,98.789,25.152,99.238,25.152z M98.528,25.93
	c-0.001,0.398,0.311,0.723,0.701,0.73c0.392,0.007,0.734-0.336,0.731-0.732c-0.003-0.392-0.324-0.709-0.719-0.712
	C98.851,25.212,98.528,25.536,98.528,25.93z"/>
<path fill="#FFFFFF" d="M41.333,16.027c0.275-0.2,0.544-0.397,0.85-0.619c0,0.397,0,0.739,0,1.082
	c-0.018,0.002-0.036,0.004-0.054,0.005c0-0.278,0-0.557,0-0.835c-0.026-0.014-0.051-0.028-0.077-0.042
	c-0.238,0.174-0.477,0.348-0.72,0.525c-0.236-0.175-0.462-0.343-0.738-0.548c0,0.34,0,0.619,0,0.898
	c-0.024,0-0.047,0.001-0.071,0.001c0-0.338,0-0.676,0-1.065C40.799,15.634,41.06,15.826,41.333,16.027z"/>
<path fill="#FFFFFF" d="M3.313,15.734c-0.428,0.64-1.158,0.922-1.686,1.442c-0.022-0.026-0.044-0.052-0.066-0.078
	c0.559-0.48,1.119-0.961,1.678-1.441C3.264,15.683,3.288,15.709,3.313,15.734z"/>
<path fill="#FFFFFF" d="M38.359,17.498c-0.283-0.223-0.577-0.435-0.847-0.672c-0.206-0.182-0.383-0.396-0.534-0.636
	c0.511,0.382,1.037,0.745,1.441,1.241C38.399,17.453,38.379,17.475,38.359,17.498z"/>
<path fill="#FFFFFF" d="M39.622,15.506c0,0.364,0,0.673,0,0.983c-0.029,0.002-0.059,0.004-0.088,0.006c0-0.182,0.001-0.363,0-0.545
	c-0.002-0.515,0.027-0.428-0.422-0.437c-0.074-0.001-0.147-0.01-0.218-0.057c0.442,0,0.884,0,1.326,0
	c0.001,0.017,0.002,0.033,0.003,0.05C40.035,15.506,39.848,15.506,39.622,15.506z"/>
<path fill="#FFFFFF" d="M24.442,23.797c-0.04-0.028-0.115-0.057-0.115-0.085c-0.006-0.791-0.005-1.583,0.02-2.375
	c0,0.585,0,1.169,0,1.754c0.03,0.003,0.06,0.005,0.09,0.008c0.024-0.14,0.047-0.279,0.071-0.419c0.016,0.23,0.097,0.456-0.109,0.669
	c-0.07,0.073,0.019,0.3,0.035,0.456C24.433,23.806,24.442,23.797,24.442,23.797z"/>
<path fill="#FFFFFF" d="M24.122,24.479c-0.052,0.244,0.141,0.574-0.225,0.763c0-0.462,0-0.91,0-1.403
	C24.094,24.037,23.741,24.344,24.122,24.479z"/>
<path fill="#FFFFFF" d="M21.078,38.823c-0.6,0-1.2,0-1.8,0c0-0.003-0.001-0.005-0.001-0.008c0.597-0.028,1.195-0.056,1.792-0.083
	C21.072,38.761,21.075,38.792,21.078,38.823z"/>
<path fill="#FFFFFF" d="M1.64,18.244c0.277-0.206,0.554-0.411,0.829-0.616c0.008,0.029,0.032,0.076,0.024,0.082
	c-0.357,0.275-0.717,0.546-1.077,0.818c-0.016-0.02-0.032-0.04-0.048-0.06C1.458,18.394,1.549,18.319,1.64,18.244z"/>
<path fill="#FFFFFF" d="M37.947,18.366c0.245,0.189,0.49,0.378,0.734,0.566c0.087,0.057,0.175,0.114,0.262,0.172
	c-0.002,0.001,0.003-0.005,0.003-0.005c-0.025,0.007-0.062,0.029-0.075,0.019c-0.332-0.248-0.662-0.498-0.993-0.749
	c0.007-0.005,0.014-0.013,0.02-0.013C37.915,18.358,37.931,18.363,37.947,18.366z"/>
<path fill="#FFFFFF" d="M38.946,19.099c0,0-0.005,0.006-0.003,0.005c0.056,0.061,0.11,0.123,0.164,0.185
	c-0.011,0.022-0.023,0.043-0.034,0.065C39.031,19.269,38.988,19.184,38.946,19.099z"/>
<path fill="#FFFFFF" d="M39.069,19.348c0.01-0.021,0.02-0.042,0.03-0.063C39.089,19.306,39.079,19.327,39.069,19.348z"/>
<path fill="#FFFFFF" d="M99.31,25.998c0.067,0.131,0.134,0.262,0.201,0.393c-0.013,0.008-0.027,0.015-0.04,0.023
	c-0.098-0.152-0.196-0.303-0.293-0.455c-0.021,0.003-0.042,0.006-0.064,0.009c-0.017,0.122-0.034,0.244-0.052,0.366
	c-0.008,0-0.015-0.001-0.023-0.001c0-0.287,0-0.574,0-0.944c0.171,0.06,0.389,0.076,0.423,0.164
	c0.048,0.122-0.042,0.298-0.072,0.451C99.363,26.003,99.337,26.001,99.31,25.998z M98.992,25.682
	c0.114,0.104,0.195,0.222,0.24,0.209c0.085-0.023,0.149-0.121,0.222-0.188c-0.074-0.072-0.14-0.163-0.228-0.207
	C99.195,25.483,99.106,25.589,98.992,25.682z"/>
</svg>
