<?xml version="1.0" encoding="UTF-8"?>
<svg width="100px" height="40px" viewBox="0 0 100 40" version="1.1" xmlns="http://www.w3.org/2000/svg" xmlns:xlink="http://www.w3.org/1999/xlink">
    <!-- Generator: Sketch 49 (51002) - http://www.bohemiancoding.com/sketch -->
    <title>Artboard</title>
    <desc>Created with Sketch.</desc>
    <defs></defs>
    <g id="Artboard" stroke="none" stroke-width="1" fill="none" fill-rule="evenodd">
        <g id="fido_logo" transform="translate(10.000000, 9.000000)" fill="#FFFFFF" fill-rule="nonzero">
            <g id="Group" transform="translate(25.000000, 0.000000)">
                <path d="M10.755,10.775 L4.153,10.775 L4.153,17.128 C4.153,17.401 3.93,17.625 3.657,17.625 L0.579,17.625 C0.306,17.625 0.082,17.402 0.082,17.128 L0.082,3.677 C0.082,1.691 1.72,0.252 3.656,0.252 L10.754,0.252 C11.027,0.252 11.25,0.475 11.25,0.748 L11.25,3.453 C11.25,3.726 11.027,3.95 10.754,3.95 L4.648,3.95 C4.375,3.95 4.152,4.098 4.152,4.347 L4.152,7.101 L10.754,7.101 C11.027,7.101 11.25,7.324 11.25,7.597 L11.25,10.277 C11.251,10.552 11.028,10.775 10.755,10.775 Z" id="Shape"></path>
                <path d="M18.304,17.624 L15.202,17.624 C14.929,17.624 14.705,17.401 14.705,17.127 L14.705,0.748 C14.705,0.475 14.929,0.252 15.202,0.252 L18.304,0.252 C18.577,0.252 18.801,0.475 18.801,0.748 L18.801,17.128 C18.8,17.401 18.576,17.624 18.304,17.624 Z" id="Shape"></path>
                <path d="M31.873,17.624 L23.063,17.624 C22.79,17.624 22.567,17.401 22.567,17.127 L22.567,0.748 C22.567,0.475 22.79,0.252 23.063,0.252 L31.873,0.252 C34.131,0.252 36.465,1.89 36.465,4.173 L36.465,13.728 C36.464,15.986 34.355,17.624 31.873,17.624 Z M32.369,4.397 C32.369,4.099 32.196,3.951 31.873,3.951 L26.661,3.951 L26.661,13.927 L31.897,13.927 C32.145,13.927 32.369,13.754 32.369,13.431 L32.369,4.397 Z" id="Shape"></path>
                <path d="M49.716,17.624 L44.504,17.624 C42.196,17.624 40.161,16.036 40.161,13.727 L40.161,4.147 C40.161,1.64 42.246,0.25 44.504,0.25 L49.716,0.25 C52.099,0.25 54.059,1.566 54.059,4.147 L54.059,13.727 C54.059,16.111 52.049,17.624 49.716,17.624 Z M49.964,4.545 C49.964,4.123 49.766,3.95 49.368,3.95 L44.826,3.95 C44.529,3.95 44.256,4.148 44.256,4.521 L44.256,13.306 C44.256,13.629 44.479,13.926 44.852,13.926 L49.393,13.926 C49.74,13.926 49.964,13.678 49.964,13.38 L49.964,4.545 Z" id="Shape"></path>
            </g>
            <path d="M22.662,9.374 C22.304,9.016 21.895,8.811 21.543,8.811 C21.11,8.811 20.615,9.111 20.217,9.613 C20.011,9.873 19.85,10.163 19.74,10.468 L16.713,10.523 C16.61,10.05 16.422,9.614 16.186,9.207 L18.395,6.997 C19.261,7.367 20.297,7.286 20.763,6.82 C21.38,6.202 21.245,4.499 20.254,3.509 C19.263,2.518 17.583,2.406 16.966,3.023 C16.501,3.488 16.17,4.276 16.85,5.451 L14.674,7.627 C14.232,7.348 13.742,7.139 13.215,7.024 L13.218,3.945 C13.523,3.834 13.815,3.677 14.074,3.471 C14.577,3.073 14.878,2.577 14.879,2.146 C14.878,1.794 14.674,1.386 14.315,1.027 C13.775,0.488 12.996,0.166 12.232,0.166 C11.56,0.166 10.874,0.415 10.345,0.85 C9.876,1.237 9.584,1.734 9.584,2.148 C9.584,2.5 9.79,2.909 10.15,3.267 C10.452,3.57 10.832,3.801 11.241,3.948 L11.293,7.018 C10.838,7.113 10.417,7.288 10.022,7.506 L7.79,5.276 C8.161,4.411 8.07,3.383 7.605,2.918 C6.988,2.302 5.281,2.441 4.29,3.431 C3.299,4.421 3.193,6.095 3.81,6.713 C4.275,7.179 5.688,6.884 6.245,6.822 L8.403,8.981 C8.115,9.417 7.905,9.907 7.779,10.43 L4.743,10.446 C4.596,10.037 4.354,9.668 4.05,9.365 C3.691,9.006 3.278,8.806 2.926,8.806 C2.512,8.806 2.012,9.1 1.625,9.57 C1.191,10.097 0.941,10.786 0.941,11.457 C0.942,12.221 1.263,13 1.803,13.54 C2.162,13.899 2.569,14.106 2.922,14.106 C3.58,14.106 4.371,13.397 4.721,12.449 L7.743,12.451 C7.856,12.992 8.07,13.496 8.355,13.949 L6.24,16.064 C5.066,15.384 4.252,15.702 3.786,16.167 C3.169,16.785 3.262,18.451 4.252,19.442 C5.243,20.433 6.981,20.607 7.598,19.99 C8.064,19.524 8.143,18.488 7.772,17.622 L9.934,15.46 C10.355,15.705 10.811,15.895 11.304,15.997 L11.276,19.006 C10.328,19.355 9.603,20.129 9.603,20.787 C9.603,21.14 9.8,21.538 10.158,21.897 C10.698,22.436 11.471,22.755 12.236,22.755 C12.908,22.756 13.593,22.504 14.12,22.07 C14.589,21.683 14.88,21.183 14.881,20.771 C14.88,20.418 14.675,20.009 14.315,19.65 C14.013,19.347 13.632,19.116 13.223,18.968 L13.256,15.978 C13.8,15.854 14.309,15.637 14.761,15.338 L16.869,17.446 C16.807,18.003 16.492,19.436 16.958,19.902 C17.575,20.519 19.275,20.385 20.266,19.395 C21.257,18.404 21.391,16.704 20.774,16.086 C20.308,15.621 19.281,15.529 18.416,15.901 L16.237,13.72 C16.465,13.31 16.642,12.869 16.735,12.393 L19.777,12.418 C19.925,12.827 20.14,13.223 20.443,13.526 C20.802,13.885 21.202,14.099 21.553,14.099 C21.966,14.099 22.46,13.812 22.847,13.342 C23.281,12.815 23.528,12.13 23.528,11.458 C23.524,10.691 23.202,9.914 22.662,9.374 Z M16.821,11.587 L15.476,11.624 C15.44,12.407 15.128,13.115 14.633,13.658 L18.401,17.64 L14.419,13.872 C13.876,14.366 13.168,14.677 12.384,14.714 L12.346,16.093 L12.234,20.194 L12.12,16.093 L12.082,14.713 C11.299,14.677 10.59,14.365 10.048,13.871 L9.052,14.813 L6.066,17.639 L8.893,14.651 L9.834,13.657 C9.34,13.115 9.028,12.406 8.991,11.623 L3.512,11.473 L7.65,11.358 L8.992,11.321 C9.029,10.538 9.34,9.83 9.835,9.287 L8.926,8.327 L6.066,5.306 L9.089,8.167 L10.047,9.073 C10.59,8.578 11.298,8.267 12.082,8.23 L12.234,2.751 L12.349,6.922 L12.385,8.231 C13.168,8.267 13.877,8.579 14.42,9.074 L18.4,5.305 L14.632,9.287 C15.127,9.829 15.438,10.538 15.475,11.321 L20.955,11.473 L16.821,11.587 Z" id="Shape"></path>
            <circle id="Oval" cx="12.234" cy="11.523" r="2.214"></circle>
            <g id="Group" transform="translate(25.000000, 19.000000)">
                <polygon id="Shape" points="3.106 1.575 3.085 1.575 2.324 3.733 1.632 3.733 0.871 1.575 0.85 1.575 0.85 3.733 0.252 3.733 0.252 0.8 1.317 0.8 2 2.737 2.017 2.737 2.701 0.8 3.765 0.8 3.765 3.733 3.106 3.733 3.106 1.575 3.106 1.575"></polygon>
                <path d="M5.589,3.776 C4.875,3.776 4.281,3.31 4.281,2.476 L4.281,2.057 C4.281,1.223 4.875,0.757 5.589,0.757 C6.303,0.757 6.897,1.223 6.897,2.057 L6.897,2.476 C6.897,3.31 6.302,3.776 5.589,3.776 Z M5.589,1.284 C5.238,1.284 4.973,1.515 4.973,1.964 L4.973,2.571 C4.973,3.02 5.238,3.251 5.589,3.251 C5.94,3.251 6.205,3.021 6.205,2.571 L6.205,1.964 C6.205,1.515 5.939,1.284 5.589,1.284 Z" id="Shape"></path>
                <path d="M8.265,2.383 C8.188,2.272 8.03,2.003 8.03,2.003 L8.013,2.015 L8.013,3.734 L7.41,3.734 L7.41,0.801 L7.97,0.801 L8.893,2.16 C8.974,2.28 9.047,2.412 9.128,2.537 L9.14,2.525 L9.14,0.803 L9.743,0.803 L9.743,3.736 L9.183,3.736 L8.265,2.383 Z" id="Shape"></path>
                <polygon id="Shape" points="10.363 0.801 12.428 0.801 12.355 1.327 11.013 1.327 11.013 1.968 12.265 1.968 12.265 2.494 11.013 2.494 11.013 3.208 12.368 3.208 12.441 3.734 10.364 3.734"></polygon>
                <polygon id="Shape" points="14.303 3.733 13.644 3.733 13.644 2.609 12.639 0.801 13.383 0.801 13.995 1.963 14.016 1.963 14.628 0.801 15.304 0.801 14.304 2.609"></polygon>
                <path d="M16.581,0.801 L17.243,0.801 L17.243,3.186 L18.448,3.186 L18.521,3.733 L16.581,3.733 C16.581,3.733 16.581,0.801 16.581,0.801 Z" id="Shape"></path>
                <polygon id="Shape" points="18.859 0.801 20.924 0.801 20.851 1.327 19.509 1.327 19.509 1.968 20.761 1.968 20.761 2.494 19.509 2.494 19.509 3.208 20.864 3.208 20.937 3.734 18.859 3.734 18.859 0.801"></polygon>
                <path d="M22.27,2.383 C22.193,2.272 22.035,2.003 22.035,2.003 L22.018,2.015 L22.018,3.734 L21.415,3.734 L21.415,0.801 L21.975,0.801 L22.898,2.16 C22.979,2.28 23.052,2.412 23.133,2.537 L23.145,2.525 L23.145,0.803 L23.749,0.803 L23.749,3.736 L23.189,3.736 L22.27,2.383 Z" id="Shape"></path>
                <path d="M26.788,2.101 L26.788,2.435 C26.788,3.269 26.194,3.735 25.48,3.735 L24.368,3.735 L24.368,0.801998394 L25.48,0.802 C26.194,0.801 26.788,1.267 26.788,2.101 Z M25.031,3.208 L25.48,3.208 C25.831,3.208 26.096,2.978 26.096,2.528 L26.096,2.006 C26.096,1.557 25.831,1.326 25.48,1.326 L25.031,1.326 C25.031,1.327 25.031,3.208 25.031,3.208 Z" id="Shape"></path>
                <path d="M28.651,0.801 L28.651,1.327 L28.309,1.327 L28.309,3.208 L28.651,3.208 L28.651,3.734 L27.3,3.734 L27.3,3.208 L27.646,3.208 L27.646,1.327 L27.3,1.327 L27.3,0.801 C27.3,0.801 28.651,0.801 28.651,0.801 Z" id="Shape"></path>
                <path d="M30.126,2.383 C30.049,2.272 29.891,2.003 29.891,2.003 L29.874,2.015 L29.874,3.734 L29.271,3.734 L29.271,0.801 L29.831,0.801 L30.754,2.16 C30.835,2.28 30.908,2.412 30.989,2.537 L31.002,2.525 L31.002,0.803 L31.604,0.803 L31.604,3.736 L31.044,3.736 L30.126,2.383 Z" id="Shape"></path>
                <path d="M33.438,3.251 C33.78,3.251 34.002,3.054 34.002,2.618 L33.34,2.618 L33.34,2.139 L34.623,2.139 L34.623,3.152 C34.623,3.494 34.649,3.733 34.649,3.733 L34.286,3.733 C34.26,3.665 34.222,3.553 34.184,3.404 C34,3.634 33.693,3.776 33.359,3.776 L33.338,3.776 C32.633,3.776 32.124,3.276 32.124,2.476 L32.124,2.057 C32.124,1.258 32.658,0.757 33.407,0.757 L33.467,0.757 C34.108,0.757 34.625,1.18 34.625,1.843 L33.999,1.843 C33.999,1.45 33.734,1.283 33.426,1.283 C33.08,1.283 32.815,1.514 32.815,1.963 L32.815,2.571 C32.814,3.019 33.096,3.251 33.438,3.251 Z" id="Shape"></path>
                <polygon id="Shape" points="36.152 0.801 36.814 0.801 36.814 3.186 38.019 3.186 38.092 3.733 36.152 3.733"></polygon>
                <path d="M39.781,0.801 L39.781,1.327 L39.439,1.327 L39.439,3.208 L39.781,3.208 L39.781,3.734 L38.43,3.734 L38.43,3.208 L38.776,3.208 L38.776,1.327 L38.43,1.327 L38.43,0.801 C38.43,0.801 39.781,0.801 39.781,0.801 Z" id="Shape"></path>
                <polygon id="Shape" points="43.255 1.575 43.234 1.575 42.473 3.733 41.781 3.733 41.02 1.575 40.999 1.575 40.999 3.733 40.401 3.733 40.401 0.8 41.466 0.8 42.15 2.737 42.167 2.737 42.851 0.8 43.916 0.8 43.916 3.733 43.257 3.733 43.257 1.575"></polygon>
                <path d="M45.884,0.801 L45.884,1.327 L45.542,1.327 L45.542,3.208 L45.884,3.208 L45.884,3.734 L44.533,3.734 L44.533,3.208 L44.879,3.208 L44.879,1.327 L44.533,1.327 L44.533,0.801 C44.533,0.801 45.884,0.801 45.884,0.801 Z" id="Shape"></path>
                <path d="M47.713,3.733 L47.06,3.733 L47.06,1.331 L46.226,1.331 L46.226,0.801 L48.543,0.801 L48.543,1.331 L47.713,1.331 C47.713,1.331 47.713,3.733 47.713,3.733 Z" id="Shape"></path>
                <polygon id="Shape" points="48.884 0.801 50.949 0.801 50.876 1.327 49.534 1.327 49.534 1.968 50.786 1.968 50.786 2.494 49.534 2.494 49.534 3.208 50.889 3.208 50.962 3.734 48.885 3.734"></polygon>
                <path d="M53.859,2.101 L53.859,2.435 C53.859,3.269 53.265,3.735 52.551,3.735 L51.44,3.735 L51.44,0.801998394 L52.552,0.802 C53.265,0.801 53.859,1.267 53.859,2.101 Z M52.102,3.208 L52.551,3.208 C52.902,3.208 53.167,2.978 53.167,2.528 L53.167,2.006 C53.167,1.557 52.902,1.326 52.551,1.326 L52.102,1.326 L52.102,3.208 Z" id="Shape"></path>
            </g>
        </g>
    </g>
</svg>