<?xml version="1.0" encoding="utf-8"?>
<!-- Generator: Adobe Illustrator 17.0.0, SVG Export Plug-In . SVG Version: 6.00 Build 0)  -->
<!DOCTYPE svg PUBLIC "-//W3C//DTD SVG 1.1//EN" "http://www.w3.org/Graphics/SVG/1.1/DTD/svg11.dtd">
<svg version="1.1" id="Layer_1" xmlns="http://www.w3.org/2000/svg" xmlns:xlink="http://www.w3.org/1999/xlink" x="0px" y="0px"
	 width="100px" height="30px" viewBox="0 0 100 30" enable-background="new 0 0 100 30" xml:space="preserve">
<g>
	<path fill="#FFFFFF" d="M43.755,13.775h-6.602v6.353c0,0.273-0.223,0.497-0.496,0.497h-3.078c-0.273,0-0.497-0.223-0.497-0.497
		V6.677c0-1.986,1.638-3.425,3.574-3.425h7.098c0.273,0,0.496,0.223,0.496,0.496v2.705c0,0.273-0.223,0.497-0.496,0.497h-6.106
		c-0.273,0-0.496,0.148-0.496,0.397v2.754h6.602c0.273,0,0.496,0.223,0.496,0.496v2.68C44.251,13.552,44.028,13.775,43.755,13.775z"
		/>
	<path fill="#FFFFFF" d="M51.304,20.624h-3.102c-0.273,0-0.497-0.223-0.497-0.497V3.748c0-0.273,0.224-0.496,0.497-0.496h3.102
		c0.273,0,0.497,0.223,0.497,0.496v16.38C51.8,20.401,51.576,20.624,51.304,20.624z"/>
	<path fill="#FFFFFF" d="M64.873,20.624h-8.81c-0.273,0-0.496-0.223-0.496-0.497V3.748c0-0.273,0.223-0.496,0.496-0.496h8.81
		c2.258,0,4.592,1.638,4.592,3.921v9.555C69.464,18.986,67.355,20.624,64.873,20.624z M65.369,7.397
		c0-0.298-0.173-0.446-0.496-0.446h-5.212v9.976h5.236c0.248,0,0.472-0.173,0.472-0.496V7.397z"/>
	<path fill="#FFFFFF" d="M82.716,20.624h-5.212c-2.308,0-4.343-1.588-4.343-3.897v-9.58c0-2.507,2.085-3.897,4.343-3.897h5.212
		c2.383,0,4.343,1.316,4.343,3.897v9.58C87.059,19.111,85.049,20.624,82.716,20.624z M82.964,7.545c0-0.422-0.198-0.595-0.596-0.595
		h-4.542c-0.297,0-0.57,0.198-0.57,0.571v8.785c0,0.323,0.223,0.62,0.596,0.62h4.541c0.347,0,0.571-0.248,0.571-0.546V7.545z"/>
</g>
<path fill="#FFFFFF" d="M30.662,12.374c-0.358-0.358-0.767-0.563-1.119-0.563c-0.433,0-0.928,0.3-1.326,0.802
	c-0.206,0.26-0.367,0.55-0.477,0.855l-3.027,0.055c-0.103-0.473-0.291-0.909-0.527-1.316l2.209-2.21
	c0.866,0.37,1.902,0.289,2.368-0.177c0.617-0.618,0.482-2.321-0.509-3.311c-0.991-0.991-2.671-1.103-3.288-0.486
	c-0.465,0.465-0.796,1.253-0.116,2.428l-2.176,2.176c-0.442-0.279-0.932-0.488-1.459-0.603l0.003-3.079
	c0.305-0.111,0.597-0.268,0.856-0.474c0.503-0.398,0.804-0.894,0.805-1.325c-0.001-0.352-0.205-0.76-0.564-1.119
	c-0.54-0.539-1.319-0.861-2.083-0.861c-0.672,0-1.358,0.249-1.887,0.684c-0.469,0.387-0.761,0.884-0.761,1.298
	c0,0.352,0.206,0.761,0.566,1.119c0.302,0.303,0.682,0.534,1.091,0.681l0.052,3.07c-0.455,0.095-0.876,0.27-1.271,0.488l-2.232-2.23
	c0.371-0.865,0.28-1.893-0.185-2.358c-0.617-0.616-2.324-0.477-3.315,0.513s-1.097,2.664-0.48,3.282
	c0.465,0.466,1.878,0.171,2.435,0.109l2.158,2.159c-0.288,0.436-0.498,0.926-0.624,1.449l-3.036,0.016
	c-0.147-0.409-0.389-0.778-0.693-1.081c-0.359-0.359-0.772-0.559-1.124-0.559c-0.414,0-0.914,0.294-1.301,0.764
	c-0.434,0.527-0.684,1.216-0.684,1.887C8.942,15.221,9.263,16,9.803,16.54c0.359,0.359,0.766,0.566,1.119,0.566
	c0.658,0,1.449-0.709,1.799-1.657l3.022,0.002c0.113,0.541,0.327,1.045,0.612,1.498l-2.115,2.115
	c-1.174-0.68-1.988-0.362-2.454,0.103c-0.617,0.618-0.524,2.284,0.466,3.275c0.991,0.991,2.729,1.165,3.346,0.548
	c0.466-0.466,0.545-1.502,0.174-2.368l2.162-2.162c0.421,0.245,0.877,0.435,1.37,0.537l-0.028,3.009
	c-0.948,0.349-1.673,1.123-1.673,1.781c0,0.353,0.197,0.751,0.555,1.11c0.54,0.539,1.313,0.858,2.078,0.858
	c0.672,0.001,1.357-0.251,1.884-0.685c0.469-0.387,0.76-0.887,0.761-1.299c-0.001-0.353-0.206-0.762-0.566-1.121
	c-0.302-0.303-0.683-0.534-1.092-0.682l0.033-2.99c0.544-0.124,1.053-0.341,1.505-0.64l2.108,2.108
	c-0.062,0.557-0.377,1.99,0.089,2.456c0.617,0.617,2.317,0.483,3.308-0.507c0.991-0.991,1.125-2.691,0.508-3.309
	c-0.466-0.465-1.493-0.557-2.358-0.185l-2.179-2.181c0.228-0.41,0.405-0.851,0.498-1.327l3.042,0.025
	c0.148,0.409,0.363,0.805,0.666,1.108c0.359,0.359,0.759,0.573,1.11,0.573c0.413,0,0.907-0.287,1.294-0.757
	c0.434-0.527,0.681-1.212,0.681-1.884C31.524,13.691,31.202,12.914,30.662,12.374z M24.821,14.587L24.821,14.587l-1.345,0.037
	c-0.036,0.783-0.348,1.491-0.843,2.034l3.768,3.982l-3.982-3.768c-0.543,0.494-1.251,0.805-2.035,0.842l-0.038,1.379l0,0
	l-0.112,4.101l-0.114-4.101l0,0l-0.038-1.38c-0.783-0.036-1.492-0.348-2.034-0.842l-0.996,0.942l0,0l-2.986,2.826l2.827-2.988l0,0
	l0.941-0.994c-0.494-0.542-0.806-1.251-0.843-2.034l-5.479-0.15l4.138-0.115l0,0l1.342-0.037c0.037-0.783,0.348-1.491,0.843-2.034
	l-0.909-0.96l0,0l-2.86-3.021l3.023,2.861l0,0l0.958,0.906c0.543-0.495,1.251-0.806,2.035-0.843l0.152-5.479l0.115,4.171l0,0
	l0.036,1.309c0.783,0.036,1.492,0.348,2.035,0.843L26.4,8.305l-3.768,3.982c0.495,0.542,0.806,1.251,0.843,2.034l5.48,0.152
	L24.821,14.587z"/>
<circle fill="#FFFFFF" cx="20.234" cy="14.523" r="2.214"/>
<g>
	<path fill="#FFFFFF" d="M36.106,23.575h-0.021l-0.761,2.158h-0.692l-0.761-2.158H33.85v2.158h-0.598v-2.933h1.065L35,24.737h0.017
		l0.684-1.937h1.064v2.933h-0.659v-2.158H36.106z"/>
	<path fill="#FFFFFF" d="M38.589,25.776c-0.714,0-1.308-0.466-1.308-1.3v-0.419c0-0.834,0.594-1.3,1.308-1.3
		c0.714,0,1.308,0.466,1.308,1.3v0.419C39.897,25.31,39.302,25.776,38.589,25.776z M38.589,23.284c-0.351,0-0.616,0.231-0.616,0.68
		v0.607c0,0.449,0.265,0.68,0.616,0.68c0.351,0,0.616-0.23,0.616-0.68v-0.607C39.205,23.515,38.939,23.284,38.589,23.284z"/>
	<path fill="#FFFFFF" d="M41.265,24.383c-0.077-0.111-0.235-0.38-0.235-0.38l-0.017,0.012v1.719h-0.603v-2.933h0.56l0.923,1.359
		c0.081,0.12,0.154,0.252,0.235,0.377l0.012-0.012v-1.722h0.603v2.933h-0.56L41.265,24.383z"/>
	<path fill="#FFFFFF" d="M43.363,22.801h2.065l-0.073,0.526h-1.342v0.641h1.252v0.526h-1.252v0.714h1.355l0.073,0.526h-2.077
		L43.363,22.801L43.363,22.801z"/>
	<path fill="#FFFFFF" d="M47.303,25.733h-0.659v-1.124l-1.005-1.808h0.744l0.612,1.162h0.021l0.612-1.162h0.676l-1,1.808
		L47.303,25.733L47.303,25.733z"/>
	<path fill="#FFFFFF" d="M49.581,22.801h0.662v2.385h1.205l0.073,0.547h-1.94C49.581,25.733,49.581,22.801,49.581,22.801z"/>
	<path fill="#FFFFFF" d="M51.859,22.801h2.065l-0.073,0.526h-1.342v0.641h1.252v0.526h-1.252v0.714h1.355l0.073,0.526h-2.078V22.801
		z"/>
	<path fill="#FFFFFF" d="M55.27,24.383c-0.077-0.111-0.235-0.38-0.235-0.38l-0.017,0.012v1.719h-0.603v-2.933h0.56l0.923,1.359
		c0.081,0.12,0.154,0.252,0.235,0.377l0.012-0.012v-1.722h0.604v2.933h-0.56L55.27,24.383z"/>
	<path fill="#FFFFFF" d="M59.788,24.101v0.334c0,0.834-0.594,1.3-1.308,1.3h-1.112v-2.933h1.112
		C59.194,22.801,59.788,23.267,59.788,24.101z M58.031,25.208h0.449c0.351,0,0.616-0.23,0.616-0.68v-0.522
		c0-0.449-0.265-0.68-0.616-0.68h-0.449C58.031,23.327,58.031,25.208,58.031,25.208z"/>
	<path fill="#FFFFFF" d="M61.651,22.801v0.526h-0.342v1.881h0.342v0.526H60.3v-0.526h0.346v-1.881H60.3v-0.526
		C60.3,22.801,61.651,22.801,61.651,22.801z"/>
	<path fill="#FFFFFF" d="M63.126,24.383c-0.077-0.111-0.235-0.38-0.235-0.38l-0.017,0.012v1.719h-0.603v-2.933h0.56l0.923,1.359
		c0.081,0.12,0.154,0.252,0.235,0.377l0.013-0.012v-1.722h0.602v2.933h-0.56L63.126,24.383z"/>
	<path fill="#FFFFFF" d="M66.438,25.251c0.342,0,0.564-0.197,0.564-0.633H66.34v-0.479h1.283v1.013c0,0.342,0.026,0.581,0.026,0.581
		h-0.363c-0.026-0.068-0.064-0.18-0.102-0.329c-0.184,0.23-0.491,0.372-0.825,0.372h-0.021c-0.705,0-1.214-0.5-1.214-1.3v-0.419
		c0-0.799,0.534-1.3,1.283-1.3h0.06c0.641,0,1.158,0.423,1.158,1.086h-0.626c0-0.393-0.265-0.56-0.573-0.56
		c-0.346,0-0.611,0.231-0.611,0.68v0.608C65.814,25.019,66.096,25.251,66.438,25.251z"/>
	<path fill="#FFFFFF" d="M69.152,22.801h0.662v2.385h1.205l0.073,0.547h-1.94V22.801z"/>
	<path fill="#FFFFFF" d="M72.781,22.801v0.526h-0.342v1.881h0.342v0.526H71.43v-0.526h0.346v-1.881H71.43v-0.526
		C71.43,22.801,72.781,22.801,72.781,22.801z"/>
	<path fill="#FFFFFF" d="M76.255,23.575h-0.021l-0.761,2.158h-0.692l-0.761-2.158h-0.021v2.158h-0.598v-2.933h1.065l0.684,1.937
		h0.017l0.684-1.937h1.065v2.933h-0.659V23.575z"/>
	<path fill="#FFFFFF" d="M78.884,22.801v0.526h-0.342v1.881h0.342v0.526h-1.351v-0.526h0.346v-1.881h-0.346v-0.526
		C77.533,22.801,78.884,22.801,78.884,22.801z"/>
	<path fill="#FFFFFF" d="M80.713,25.733H80.06v-2.402h-0.834v-0.53h2.317v0.53h-0.83C80.713,23.331,80.713,25.733,80.713,25.733z"/>
	<path fill="#FFFFFF" d="M81.884,22.801h2.065l-0.073,0.526h-1.342v0.641h1.252v0.526h-1.252v0.714h1.355l0.073,0.526h-2.077
		L81.884,22.801L81.884,22.801z"/>
	<path fill="#FFFFFF" d="M86.859,24.101v0.334c0,0.834-0.594,1.3-1.308,1.3H84.44v-2.933h1.112
		C86.265,22.801,86.859,23.267,86.859,24.101z M85.102,25.208h0.449c0.351,0,0.616-0.23,0.616-0.68v-0.522
		c0-0.449-0.265-0.68-0.616-0.68h-0.449V25.208z"/>
</g>
</svg>
