<?xml version="1.0" encoding="utf-8"?>
<!-- Generator: Adobe Illustrator 17.0.0, SVG Export Plug-In . SVG Version: 6.00 Build 0)  -->
<!DOCTYPE svg PUBLIC "-//W3C//DTD SVG 1.1//EN" "http://www.w3.org/Graphics/SVG/1.1/DTD/svg11.dtd">
<svg version="1.1" id="Layer_1" xmlns="http://www.w3.org/2000/svg" xmlns:xlink="http://www.w3.org/1999/xlink" x="0px" y="0px"
	 width="100px" height="100px" viewBox="0 0 100 100" enable-background="new 0 0 100 100" xml:space="preserve">
<g>
	<path fill="#505D75" d="M50.007,56.658l35.698-31.516C85.464,25.108,85.249,25,85,25H15c-0.154,0-0.283,0.073-0.434,0.088
		L50.007,56.658z"/>
	<path fill="#505D75" d="M90,30c0-0.596-0.149-1.147-0.34-1.677L64.453,50.576l24.883,21.773C89.721,71.638,90,70.865,90,70V30z"/>
	<path fill="#505D75" d="M10.391,28.066C10.142,28.662,10,29.314,10,30v40c0,0.73,0.174,1.411,0.454,2.036L35.576,50.5
		L10.391,28.066z"/>
	<path fill="#505D75" d="M60.674,53.911l-10.681,9.431l-10.652-9.487L14.734,74.947C14.826,74.951,14.907,75,15,75h69.775
		L60.674,53.911z"/>
</g>
</svg>
