<?xml version="1.0" encoding="utf-8"?>
<!-- Generator: Adobe Illustrator 17.0.0, SVG Export Plug-In . SVG Version: 6.00 Build 0)  -->
<!DOCTYPE svg PUBLIC "-//W3C//DTD SVG 1.1//EN" "http://www.w3.org/Graphics/SVG/1.1/DTD/svg11.dtd">
<svg version="1.1" id="Layer_1" xmlns="http://www.w3.org/2000/svg" xmlns:xlink="http://www.w3.org/1999/xlink" x="0px" y="0px"
	 width="980px" height="980px" viewBox="0 0 980 980" enable-background="new 0 0 980 980" xml:space="preserve" preserveAspectRatio="none">
<path fill="#C85628" d="M491.505,252.426c86.491,0,172.982-0.016,259.473,0.014c16.558,0.006,29.5,12.199,33.435,31.268
	c5.541,26.853-9.134,52.446-30.87,53.824c-1.164,0.074-2.333,0.041-3.499,0.041c-172.315,0.002-344.63-0.008-516.946,0.033
	c-7.503,0.002-14.565-1.698-20.898-7.203c-11.998-10.429-17.366-29.309-13.438-47.253c3.858-17.625,16.105-29.871,30.772-30.676
	c2.995-0.164,5.998-0.049,8.998-0.049C322.856,252.425,407.18,252.426,491.505,252.426z"/>
<path fill="#C85628" d="M491.505,448.426c86.491,0,172.982-0.016,259.473,0.014c16.558,0.006,29.505,12.203,33.435,31.268
	c5.537,26.86-9.134,52.447-30.871,53.824c-1.164,0.074-2.333,0.041-3.499,0.041c-172.315,0.002-344.63-0.008-516.945,0.034
	c-7.503,0.002-14.565-1.698-20.898-7.203c-11.998-10.429-17.366-29.309-13.438-47.253c3.858-17.625,16.105-29.871,30.772-30.676
	c2.995-0.164,5.999-0.049,8.998-0.049C322.856,448.425,407.18,448.426,491.505,448.426z"/>
<path fill="#C85628" d="M491.505,56.426c86.491,0,172.982-0.016,259.473,0.014c16.558,0.006,29.5,12.199,33.435,31.268
	c5.541,26.853-9.134,52.446-30.87,53.824c-1.164,0.074-2.333,0.041-3.499,0.041c-172.315,0.001-344.63-0.008-516.946,0.033
	c-7.503,0.002-14.565-1.698-20.898-7.203c-11.998-10.429-17.366-29.309-13.438-47.253c3.858-17.625,16.105-29.871,30.772-30.676
	c2.995-0.164,5.998-0.049,8.998-0.049C322.856,56.425,407.18,56.426,491.505,56.426z"/>
<path fill="#C85628" d="M491.748,644.424c86.324,0,172.649-0.012,258.973,0.011c16.876,0.005,29.877,12.242,33.739,31.582
	c5.329,26.685-9.128,51.919-30.661,53.498c-1.163,0.085-2.332,0.057-3.499,0.057c-172.482,0.002-344.964-0.006-517.446,0.031
	c-7.331,0.002-14.238-1.709-20.444-7.009c-12.062-10.301-17.512-29.065-13.716-47.122c3.704-17.617,15.924-30.021,30.582-30.994
	c1.829-0.121,3.665-0.052,5.499-0.052C320.432,644.423,406.09,644.424,491.748,644.424z"/>
<path fill="#C85628" d="M491.748,842.424c86.324,0,172.649-0.012,258.973,0.011c16.876,0.005,29.877,12.242,33.739,31.582
	c5.329,26.685-9.128,51.919-30.661,53.498c-1.163,0.085-2.332,0.057-3.499,0.057c-172.482,0.002-344.964-0.006-517.446,0.031
	c-7.331,0.002-14.238-1.709-20.444-7.009c-12.062-10.301-17.512-29.065-13.716-47.122c3.704-17.617,15.924-30.021,30.582-30.994
	c1.829-0.121,3.665-0.052,5.499-0.052C320.432,842.423,406.09,842.424,491.748,842.424z"/>
</svg>
