<?xml version="1.0" encoding="utf-8"?>
<!-- Generator: Adobe Illustrator 17.0.0, SVG Export Plug-In . SVG Version: 6.00 Build 0)  -->
<!DOCTYPE svg PUBLIC "-//W3C//DTD SVG 1.1//EN" "http://www.w3.org/Graphics/SVG/1.1/DTD/svg11.dtd">
<svg version="1.1" id="Layer_2" xmlns="http://www.w3.org/2000/svg" xmlns:xlink="http://www.w3.org/1999/xlink" x="0px" y="0px"
	 width="200px" height="100px" viewBox="0 0 200 100" enable-background="new 0 0 200 100" xml:space="preserve">
<g>
	<polygon fill="#FFFFFF" points="64.061,49.297 44.045,51.84 44.045,48.847 64.061,48.847 	"/>
	<polygon fill="#FFFFFF" points="65.791,59.258 47.275,66.412 48.389,68.965 66.107,59.942 	"/>
	<polygon fill="#FFFFFF" points="67.032,36.995 49.771,27.191 48.5,29.669 66.702,37.672 	"/>
	<polygon fill="#FFFFFF" points="76.231,27.29 64.974,10.94 62.749,12.616 75.639,27.756 	"/>
	<polygon fill="#FFFFFF" points="88.865,21.378 84.143,2.097 81.468,2.875 88.146,21.603 	"/>
	<polygon fill="#FFFFFF" points="102.352,21.236 104.686,1.523 101.909,1.314 101.6,21.195 	"/>
	<polygon fill="#FFFFFF" points="114.077,24.235 124.731,7.486 122.319,6.093 113.417,23.872 	"/>
	<polygon fill="#FFFFFF" points="123.6,31.928 139.94,20.655 138.262,18.432 123.134,31.336 	"/>
	<polygon fill="#FFFFFF" points="127.364,41.631 147.182,40.491 146.903,37.72 127.273,40.883 	"/>
	<path fill="#FFFFFF" d="M96.328,60.091c-0.247,0-0.488,0.021-0.721,0.062h1.442C96.816,60.112,96.575,60.091,96.328,60.091z"/>
	<path fill="#FFFFFF" d="M123.43,72.672h-11.032v-3.314h9.683c-0.241-0.966-0.372-1.968-0.372-2.998
		c0-0.974,0.115-1.924,0.331-2.841h-9.642v-3.314h10.941c1.649-2.935,4.435-5.27,7.838-6.535v-0.251h-26.67v1.653
		c0.342,0.257,0.672,0.53,0.983,0.822c2.114,1.985,3.278,4.585,3.278,7.321c0,3.225-1.635,6.169-4.261,8.143v8.099h24.934v-1.175
		C126.887,76.972,124.792,75.02,123.43,72.672z"/>
	<path fill="#FFFFFF" d="M139.7,63.203l-4.531,5.661h9.019h3.702l0.02,3.836l-9.286,0.009l-2.089,0.002
		c-2.635-0.335-4.799-1.93-5.672-4.061c-0.268-0.655-0.419-1.358-0.419-2.094c0-0.734,0.152-1.435,0.419-2.088
		c0.914-2.235,3.244-3.881,6.052-4.105l1.274-0.002l12.841-0.024l4.925-6.445c0,0-13.75,0-18.937,0
		c-1.603,0-3.142,0.242-4.577,0.681c-0.431,0.132-0.852,0.282-1.262,0.448c-2.688,1.093-4.92,2.915-6.374,5.183
		c-0.261,0.408-0.5,0.828-0.709,1.262c-0.124,0.258-0.237,0.522-0.341,0.789c-0.162,0.411-0.299,0.833-0.412,1.262
		c-0.24,0.913-0.371,1.863-0.371,2.841c0,1.034,0.144,2.038,0.412,2.998c0.12,0.43,0.262,0.852,0.431,1.262
		c0.11,0.268,0.232,0.53,0.362,0.789c0.217,0.434,0.461,0.856,0.731,1.262c1.121,1.691,2.679,3.125,4.535,4.184
		c0.407,0.232,0.828,0.446,1.262,0.64c1.898,0.85,4.041,1.331,6.312,1.331c2.909,0,18.305,0.015,18.305,0.015l0.02-15.642
		l-11.773,0.003L139.7,63.203z"/>
	<path fill="#FFFFFF" d="M125.509,56.011l1.561,0.23c0.137-0.93,0.225-1.874,0.275-2.822h-1.58
		C125.717,54.289,125.634,55.157,125.509,56.011z"/>
	<path fill="#FFFFFF" d="M104.508,56.708c-0.391-0.356-0.812-0.684-1.262-0.983c-1.597-1.059-3.543-1.739-5.661-1.881l-0.073-0.056
		H79.258l-4.892,6.365h21.241c0.233-0.041,0.474-0.062,0.721-0.062c0.247,0,0.488,0.021,0.721,0.062
		c1.63,0.284,2.856,1.509,2.856,2.978c0,1.46-1.214,2.674-2.829,2.966c-0.195,0.035-0.394,0.06-0.599,0.067h-0.298
		c-0.205-0.007-0.404-0.032-0.599-0.067H74.05v1.932v2.624V79.3h7.785V72.62l14.913-0.002c0.708,0,1.399-0.061,2.069-0.176
		c1.64-0.279,3.145-0.886,4.427-1.736c0.45-0.298,0.872-0.627,1.262-0.982c1.856-1.689,2.998-3.982,2.998-6.509
		C107.506,60.688,106.364,58.396,104.508,56.708z"/>
	<path fill="#FFFFFF" d="M72.788,66.045C70.316,61.782,69,56.925,69,51.841c0-15.663,12.743-28.406,28.406-28.406
		s28.406,12.743,28.406,28.406c0,0.105-0.005,0.21-0.006,0.316h1.578c0.001-0.105,0.006-0.21,0.006-0.316
		c0-16.533-13.451-29.984-29.984-29.984S67.422,35.308,67.422,51.841c0,6.239,1.876,12.154,5.366,17.136v-2.88V66.045z"/>
	<path fill="#FFFFFF" d="M96.474,66.097h-0.292c0.049,0.002,0.097,0.006,0.146,0.006S96.425,66.098,96.474,66.097z"/>
	<path fill="#FFFFFF" d="M100.931,86.77c0,0,3.261,0.105,7.154-1.473c3.893-1.578,7.049-3.893,8.101-4.208
		c1.052-0.316,2.315-0.316,2.63,0.736c0.316,1.052-0.736,1.789-2.104,2.525c-1.368,0.736-7.365,4.208-15.255,5.05L100.931,86.77z"/>
	<path fill="#FFFFFF" d="M102.193,90.347c0,0,0.026,2.841,0.631,2.841c0.605,0,1.262,0.421,5.26-0.842s9.048-3.577,12.099-5.892
		c0,0,0.391-0.21-0.736-1.789c-0.526-0.736-1.473-0.526-1.894-0.105c-1.652,1.652-6.733,4.314-10.1,4.945
		S103.982,90.137,102.193,90.347z"/>
	<path fill="#FFFFFF" d="M118.606,89.584c0,0-4.208,3.104-7.838,3.814c-3.63,0.71-4.235,0.526-4.655,0.973
		c-0.421,0.447-0.5,1.552,0.395,1.736c0.894,0.184,2.393-0.184,3.498-0.21c1.105-0.026,1.21-0.395,1.368,0.289
		c0.158,0.684,0.526,1.499,1.21,1.657s2.604,0.552,4.129-0.631c1.526-1.184,1.999-1.841,1.815-2.841s-0.999-1.262-0.605-1.578
		c0.395-0.316,2.551-1.236,2.604-1.789c0.053-0.552-0.086-1.785-0.894-1.92C119.316,89.032,118.606,89.584,118.606,89.584z"/>
</g>
</svg>
