<?xml version="1.0" encoding="UTF-8"?>
<svg width="131px" height="41px" viewBox="0 0 131 41" version="1.1" xmlns="http://www.w3.org/2000/svg" xmlns:xlink="http://www.w3.org/1999/xlink">
    <!-- Generator: Sketch 49 (51002) - http://www.bohemiancoding.com/sketch -->
    <title>petra logo</title>
    <desc>Created with Sketch.</desc>
    <defs></defs>
    <g id="Scratch" stroke="none" stroke-width="1" fill="none" fill-rule="evenodd">
        <g id="petra-logo" fill="#FFFFFF">
            <polygon id="Fill-1" points="117.939326 0 105 25 113.426966 19.2474573 117.983146 10.4226929 122.642697 19.3430997 131 25"></polygon>
            <polygon id="Fill-2" fill-opacity="0.400000006" points="113.350006 18.2999992 117.980063 9.29999924 122.650006 18.2734301"></polygon>
            <g id="Group-21">
                <path d="M14.0066068,7.58844245 C14.0066068,9.0006217 13.5977801,10.1633198 12.7869979,11.0405651 C11.9659091,11.9317349 11.0257223,12.3575934 9.89429175,12.3575934 C9.57478858,12.3575934 9.17855884,12.3309047 8.71590909,12.2717255 C8.31853418,12.2287915 7.86390063,12.1522066 7.36804087,12.0605368 L7.36804087,2.64987642 C8.15591966,2.47349906 8.81210359,2.38066887 9.32628612,2.38066887 C10.234408,2.38066887 11.0600775,2.59069717 11.7735201,3.00031038 C12.4789464,3.40528208 13.0286293,4.02724434 13.4191332,4.84995189 C13.8096371,5.68542358 14.0066068,6.61024434 14.0066068,7.58844245 M14.0787526,0.976612264 C12.83395,0.522904717 11.1173362,0.290829245 8.97700846,0.290829245 L0,0.290829245 L0,1.60785755 L1.21159267,1.60785755 C2.0143587,1.60785755 2.59839676,1.82368774 2.98890063,2.26811226 C3.12975687,2.43636698 3.38054968,3.00031038 3.38054968,4.85691415 L3.38054968,20.3084991 C3.38054968,22.0014896 3.19159619,22.5480274 3.08394996,22.7174425 C2.71291402,23.2825462 2.10139183,23.5610368 1.21159267,23.5610368 L0,23.5610368 L0,24.8699425 L10.7634778,24.8699425 L10.7634778,23.5610368 L9.5324172,23.5610368 C8.72965116,23.5610368 8.15591966,23.337084 7.77114165,22.8868575 C7.6222692,22.7174425 7.36804087,22.1593009 7.36804087,20.3084991 L7.36804087,13.7477255 C7.9910148,13.8718858 8.58306906,13.9670368 9.12931642,14.0366594 C9.8003876,14.1202066 10.4416843,14.1619802 11.0154158,14.1619802 C13.4065363,14.1619802 15.2914905,13.51565 16.6244715,12.2392349 C17.9528717,10.9581783 18.6262333,9.27215 18.6262333,7.24032925 C18.6262333,5.72951792 18.1819063,4.40900849 17.3035588,3.30897075 C16.4343728,2.21705566 15.3476039,1.43496132 14.0787526,0.976612264" id="Fill-3"></path>
                <path d="M43.3359672,18.3899311 C42.5996212,19.819516 41.8793076,20.9056292 41.1887685,21.6018557 C40.6711505,22.1159028 40.1294838,22.464016 39.5798009,22.6369123 C39.0117953,22.8121292 38.0647375,22.9014783 36.7661117,22.9014783 L32.768314,22.9014783 C31.9953224,22.9014783 31.7090292,22.805167 31.6036734,22.743667 C31.435333,22.6450349 31.3196705,22.5197142 31.256686,22.3584217 C31.2211857,22.270233 31.1444591,21.9244406 31.1444591,20.5540349 L31.1444591,12.9988179 L36.0034267,12.9988179 C36.9310166,12.9988179 37.6227008,13.1020915 38.0498502,13.3167613 C38.4655479,13.5233085 38.7564218,13.7913557 38.9327784,14.1417896 C39.030118,14.3402142 39.1904422,14.8797896 39.3851216,16.276884 L39.4252026,16.5634972 L40.6780215,16.5634972 L40.6780215,7.57753491 L39.4000088,7.57753491 L39.3851216,7.89315755 C39.3198467,9.15448774 39.0175211,10.0398557 38.4827255,10.5190915 C38.2170455,10.7650915 37.5665874,11.0551858 36.0034267,11.0551858 L31.1444591,11.0551858 L31.1444591,2.25952547 L37.2928911,2.25952547 C38.4151603,2.25952547 39.2064746,2.34075189 39.6175916,2.50204434 C40.1317741,2.71903491 40.5199877,3.03813868 40.7833774,3.44891226 C41.0559285,3.88057264 41.3124471,4.71720472 41.5460624,5.92399717 L41.59645,6.19204434 L42.8893499,6.19204434 L42.5927502,0.290365094 L23.7729827,0.290365094 L23.7729827,1.6073934 L24.9273168,1.6073934 C25.8056642,1.6073934 26.4240574,1.80465755 26.7767706,2.19686509 C26.9107558,2.35931792 27.1478066,2.91281792 27.1478066,4.78682736 L27.1478066,20.3266009 C27.1478066,21.7155726 27.0504669,22.2911198 26.9657241,22.5231953 C26.8638037,22.8202519 26.6645437,23.0360821 26.3656536,23.1904123 C25.9144556,23.4364123 25.4311927,23.5605726 24.9273168,23.5605726 L23.7729827,23.5605726 L23.7729827,24.8694783 L42.518314,24.8694783 L44.7777396,18.2135538 L43.4241455,18.2135538 L43.3359672,18.3899311 Z" id="Fill-5"></path>
                <path d="M50.232655,0.290713208 L49.9246036,6.56139245 L51.2266649,6.56139245 L51.2507135,6.25737358 C51.3240046,5.2420434 51.565636,4.42745849 51.9595754,3.84494906 C52.3477889,3.26940189 52.8173097,2.88067547 53.3475247,2.67876981 C53.7735289,2.53140189 54.5270525,2.45133585 55.5874824,2.45133585 L58.0977008,2.45133585 L58.0977008,20.3919302 C58.0977008,22.0535906 57.8950053,22.6036094 57.7770525,22.7788264 C57.4140328,23.2963547 56.8128171,23.5609208 55.9184373,23.5609208 L54.7595226,23.5609208 L54.7595226,24.8698264 L65.4164993,24.8698264 L65.4164993,23.5609208 L64.2770525,23.5609208 C63.4548185,23.5609208 62.8501674,23.3439302 62.4848573,22.9273547 C62.3348397,22.7614208 62.0954986,22.2044396 62.0954986,20.3919302 L62.0954986,2.45133585 L65.0912703,2.45133585 C66.0062632,2.45133585 66.7506254,2.60566604 67.2945825,2.89924151 C67.8328136,3.1916566 68.2714147,3.65116604 68.6000793,4.26964717 C68.797049,4.65953396 68.9619538,5.33371321 69.0867777,6.2771 L69.122278,6.56139245 L70.4071617,6.56139245 L70.1197234,0.290713208 L50.232655,0.290713208 Z" id="Fill-7"></path>
                <path d="M90.0520261,7.00546887 C90.0520261,8.44665755 89.5286822,9.6023934 88.453365,10.5306953 C87.3746124,11.4659594 85.7347252,11.9347519 83.5749295,11.9347519 C83.4707188,11.9347519 83.3424595,11.9347519 83.1901515,11.9277896 C83.1054087,11.9277896 83.0137949,11.919667 82.9233263,11.919667 L82.9233263,2.57166698 C83.9242072,2.38484623 84.7326991,2.29665755 85.3304792,2.29665755 C86.7768323,2.29665755 87.8945208,2.72599717 88.7671424,3.60208208 C89.6214412,4.46772358 90.0520261,5.61649717 90.0520261,7.00546887 L90.0520261,7.00546887 Z M99.3931994,23.5605726 C98.1644292,23.4213274 97.1589676,23.1057047 96.4042988,22.6218274 C95.6404686,22.1263462 94.7048626,21.1028934 93.6192389,19.5711953 L89.0270965,13.1020915 C90.834179,12.6321387 92.2152572,11.8651292 93.1165081,10.8265915 C94.1162438,9.68710094 94.6178295,8.3259783 94.6178295,6.77803491 C94.6178295,5.33452547 94.1746476,4.06391226 93.2985906,3.01145 C92.4294045,1.97407264 91.3609584,1.25463868 90.1150106,0.865912264 C88.9022727,0.485308491 87.0024313,0.290365094 84.4830514,0.290365094 L75.5518499,0.290365094 L75.5518499,1.6073934 L76.7657329,1.6073934 C77.5707893,1.6073934 78.1502467,1.82322358 78.544186,2.27577075 C78.6987844,2.44286509 78.9495772,3.00448774 78.9495772,4.85645 L78.9495772,20.3080349 C78.9495772,21.9987047 78.7503171,22.5382802 78.6335095,22.7169783 C78.271635,23.2820821 77.6589676,23.5605726 76.7657329,23.5605726 L75.5518499,23.5605726 L75.5518499,24.8694783 L86.3187632,24.8694783 L86.3187632,23.5605726 L85.0682347,23.5605726 C84.2792107,23.5605726 83.7134954,23.3366198 83.3241367,22.8863934 C83.1741191,22.7204594 82.9233263,22.1634783 82.9233263,20.3080349 L82.9233263,13.7054877 C83.0000529,13.7101292 83.060747,13.7101292 83.127167,13.7101292 C83.3069591,13.7182519 83.4707188,13.7205726 83.6264623,13.7205726 C83.9688689,13.7205726 84.3971635,13.7101292 84.9079105,13.6950443 L92.8943446,24.8694783 L99.6852185,24.8694783 L99.6852185,23.5895821 L99.3931994,23.5605726 Z" id="Fill-9"></path>
                <path d="M38.5752555,33.4669462 L36.9582717,33.5029179 C36.3272815,33.5156821 36.0696177,33.5911066 35.9081483,33.828984 C35.7970666,33.979833 35.7478242,34.1167575 35.7237755,34.1921821 C35.6974366,34.2803708 35.6745331,34.330267 35.6000969,34.330267 C35.5245155,34.330267 35.4993217,34.2676066 35.4993217,34.15505 C35.4993217,33.979833 35.7100335,32.9540594 35.7363724,32.8647104 C35.7592759,32.7289462 35.7970666,32.6662858 35.8589059,32.6662858 C35.9447939,32.6662858 36.0570208,32.7521538 36.3272815,32.7904462 C36.6490751,32.8264179 37.0579017,32.8403425 37.4140504,32.8403425 L41.8241103,32.8403425 C42.1710976,32.8403425 42.405858,32.8148142 42.565037,32.7904462 C42.7379581,32.7649179 42.8249912,32.74055 42.8616367,32.74055 C42.9360729,32.74055 42.9486698,32.8032104 42.9486698,32.9656632 C42.9486698,33.1907764 42.923476,33.979833 42.923476,34.2536821 C42.9120243,34.3662387 42.8879757,34.4288991 42.8249912,34.4288991 C42.7379581,34.4288991 42.7139094,34.3813236 42.7024577,34.2177104 L42.6898608,34.1051538 C42.6635218,33.828984 42.379519,33.5029179 41.4049771,33.4913142 L40.0330603,33.4669462 L40.0330603,37.7719462 C40.0330603,38.7478236 40.0456572,39.5867764 40.0960447,40.049767 C40.1326903,40.3503047 40.1945296,40.5487292 40.5151779,40.5986255 C40.6640504,40.6253142 40.9102625,40.6369179 41.0717319,40.6369179 C41.1942653,40.6369179 41.2435078,40.6995783 41.2435078,40.7506349 C41.2435078,40.8248991 41.1576198,40.8631915 41.032796,40.8631915 C40.3170631,40.8631915 39.5887333,40.8248991 39.2795366,40.8248991 C39.0333245,40.8248991 38.2912526,40.8631915 37.8595226,40.8631915 C37.7243922,40.8631915 37.6488108,40.8248991 37.6488108,40.7506349 C37.6488108,40.6995783 37.6877467,40.6369179 37.822877,40.6369179 C37.982056,40.6369179 38.1194767,40.6253142 38.2065099,40.5986255 C38.4286734,40.5487292 38.4893675,40.3503047 38.5271582,40.0358425 C38.5752555,39.5867764 38.5752555,38.7478236 38.5752555,37.7719462 L38.5752555,33.4669462 Z" id="Fill-11"></path>
                <path d="M50.0425564,36.7191358 C50.0425564,36.8316925 50.066605,36.8699849 50.1410412,36.9082774 C50.3758016,36.9825415 50.6953048,37.0092302 50.9690011,37.0092302 C51.4007311,37.0092302 51.5484584,36.9709377 51.7339764,36.8316925 C52.0683668,36.5938151 52.4382576,36.1319849 52.4382576,35.2559 C52.4382576,33.7543717 51.4247798,33.3668057 50.7823379,33.3668057 C50.5097868,33.3668057 50.252123,33.3784094 50.1410412,33.4050981 C50.066605,33.4283057 50.0425564,33.4665981 50.0425564,33.5536264 L50.0425564,36.7191358 Z M48.6580426,35.8941075 C48.6580426,34.2800226 48.6580426,33.9806453 48.6454457,33.6418151 C48.6213971,33.2774566 48.5217671,33.1649 48.1770701,33.0662679 C48.090037,33.0407396 47.9056642,33.0279755 47.7441949,33.0279755 C47.6331131,33.0279755 47.5598221,32.989683 47.5598221,32.9154189 C47.5598221,32.8411547 47.6445648,32.814466 47.8060342,32.814466 C48.3740398,32.814466 49.0645789,32.8411547 49.2890328,32.8411547 C49.6589235,32.8411547 50.6460624,32.814466 50.9793076,32.814466 C51.6732822,32.814466 52.4623062,32.8771264 53.0429087,33.2658528 C53.3509602,33.4793623 53.8090292,34.0154566 53.8090292,34.7314094 C53.8090292,35.5169849 53.3635571,36.2201736 52.301982,37.0834943 C53.2650722,38.2844849 54.0311927,39.2487585 54.6862315,39.9101736 C55.2908827,40.5251736 55.6745155,40.5750698 55.8462914,40.6133623 C55.9573732,40.6365698 56.0203576,40.6365698 56.1062456,40.6365698 C56.1932787,40.6365698 56.2425211,40.7003906 56.2425211,40.7502868 C56.2425211,40.8361547 56.1680849,40.8628434 56.0318094,40.8628434 L54.9942829,40.8628434 C54.3896318,40.8628434 54.0930321,40.800183 53.8090292,40.649334 C53.3395085,40.412617 52.931827,39.9101736 52.3260307,39.0863057 C51.8943006,38.5095981 51.4385218,37.795966 51.3022463,37.6335132 C51.240407,37.5696925 51.1762773,37.5580887 51.1041314,37.5580887 L50.1272992,37.5337208 C50.0780567,37.5337208 50.0425564,37.5580887 50.0425564,37.6207491 L50.0425564,37.7715981 C50.0425564,38.7590792 50.0540081,39.5875887 50.1032505,40.0354943 C50.1410412,40.3499566 50.1891385,40.5483811 50.5235289,40.5994377 C50.6849982,40.6261264 50.9197586,40.6365698 51.054889,40.6365698 C51.140777,40.6365698 51.1900194,40.7003906 51.1900194,40.7502868 C51.1900194,40.8245509 51.1041314,40.8628434 50.9690011,40.8628434 C50.3380109,40.8628434 49.43676,40.8245509 49.2752907,40.8245509 C49.0645789,40.8245509 48.3740398,40.8628434 47.9423097,40.8628434 C47.8060342,40.8628434 47.731598,40.8245509 47.731598,40.7502868 C47.731598,40.7003906 47.7682435,40.6365698 47.9056642,40.6365698 C48.0648432,40.6365698 48.189667,40.6261264 48.2881519,40.5994377 C48.5103154,40.5483811 48.5721547,40.3499566 48.6088002,40.0354943 C48.6580426,39.5875887 48.6580426,38.7474755 48.6580426,37.7715981 L48.6580426,35.8941075 Z" id="Fill-13"></path>
                <path d="M60.3089147,35.8936434 C60.3089147,34.2795585 60.3226568,33.9801811 60.2963178,33.6425113 C60.2722692,33.2653887 60.1726392,33.1644358 59.8279422,33.0658038 C59.7409091,33.0402755 59.5553911,33.0286717 59.4076638,33.0286717 C59.2839852,33.0286717 59.2221459,32.9903792 59.2221459,32.9161151 C59.2221459,32.8406906 59.2954369,32.8151623 59.4569063,32.8151623 C60.038654,32.8151623 60.7646934,32.8406906 61.0876321,32.8406906 C61.3590381,32.8406906 62.0873679,32.8151623 62.4824524,32.8151623 C62.6439218,32.8151623 62.7172128,32.8406906 62.7172128,32.9161151 C62.7172128,32.9903792 62.6565187,33.0286717 62.5442918,33.0286717 C62.4206131,33.0286717 62.3587738,33.0402755 62.2236434,33.0658038 C61.9396406,33.1145396 61.8526075,33.2653887 61.8274137,33.6425113 C61.803365,33.9801811 61.803365,34.2795585 61.803365,35.8936434 L61.803365,37.3835679 C61.803365,38.9349925 62.0999648,39.5372283 62.6301797,39.960766 C63.1122974,40.3494925 63.6310606,40.3877849 64.0020965,40.3877849 C64.4716173,40.3877849 65.0281712,40.2485396 65.4599013,39.8250019 C66.0634073,39.2494547 66.0886011,38.3211528 66.0886011,37.2315585 L66.0886011,35.8936434 C66.0886011,34.2795585 66.0771494,33.9801811 66.0634073,33.6425113 C66.0405039,33.2781528 65.9546159,33.1644358 65.6076286,33.0658038 C65.5217407,33.0402755 65.3362227,33.0286717 65.2113989,33.0286717 C65.0888654,33.0286717 65.0281712,32.9903792 65.0281712,32.9161151 C65.0281712,32.8406906 65.1014623,32.8151623 65.2491896,32.8151623 C65.8045983,32.8151623 66.5340733,32.8406906 66.5466702,32.8406906 C66.6703488,32.8406906 67.3975335,32.8151623 67.8201022,32.8151623 C67.9678295,32.8151623 68.0411205,32.8406906 68.0411205,32.9161151 C68.0411205,32.9903792 67.9792812,33.0286717 67.8556025,33.0286717 C67.7319239,33.0286717 67.6700846,33.0402755 67.5360994,33.0658038 C67.2383545,33.1145396 67.1639183,33.2653887 67.1398696,33.6425113 C67.1272727,33.9801811 67.1146758,34.2795585 67.1146758,35.8936434 L67.1146758,37.033134 C67.1146758,38.2225208 66.9909972,39.4745679 66.0771494,40.2369358 C65.3110289,40.8867472 64.4842142,40.9993038 63.7799331,40.9993038 C63.2119274,40.9993038 62.0873679,40.9760962 61.2971987,40.2752283 C60.7406448,39.7855491 60.3089147,38.9976528 60.3089147,37.4578321 L60.3089147,35.8936434 Z" id="Fill-15"></path>
                <path d="M73.2815451,40.7238302 C73.1097692,40.649566 73.0708333,40.5996698 73.0708333,40.3617925 C73.0708333,39.7862453 73.1212209,39.1225094 73.1338178,38.9472925 C73.1338178,38.786 73.1830603,38.6734434 73.2689482,38.6734434 C73.3685782,38.6734434 73.38003,38.7720755 73.38003,38.8486604 C73.38003,38.9855849 73.4178206,39.2106981 73.47966,39.3975189 C73.7144204,40.1877358 74.5297833,40.4511415 75.2088707,40.4511415 C76.1479123,40.4511415 76.7147727,39.8489057 76.7147727,39.0981415 C76.7147727,38.6351509 76.603691,38.1721604 75.6417459,37.5966132 L75.0107558,37.2194906 C73.7270173,36.458283 73.3055937,35.7434906 73.3055937,34.8047453 C73.3055937,33.5028019 74.541235,32.6661698 76.0482822,32.6661698 C76.7525634,32.6661698 77.3079722,32.7648019 77.591975,32.8413868 C77.691605,32.8657547 77.7419926,32.9028868 77.7419926,32.9783113 C77.7419926,33.1140755 77.7030567,33.416934 77.7030567,34.253566 C77.7030567,34.4798396 77.6538143,34.5912358 77.5679264,34.5912358 C77.4934901,34.5912358 77.4568446,34.5297358 77.4568446,34.4044151 C77.4568446,34.3034623 77.4087474,33.979717 77.1728418,33.7047075 C77.0125176,33.5028019 76.6655303,33.2034245 75.9623943,33.2034245 C75.1848221,33.2034245 74.4805409,33.6165189 74.4805409,34.3417547 C74.4805409,34.8175094 74.6523168,35.1934717 75.6280039,35.7434906 L76.073476,35.9941321 C77.506087,36.7959528 77.950414,37.608217 77.950414,38.5724906 C77.950414,39.3615472 77.6538143,39.9997547 76.8636452,40.5636981 C76.3460271,40.9373396 75.6280039,41 75.0485465,41 C74.4175564,41 73.7510659,40.9373396 73.2815451,40.7238302" id="Fill-17"></path>
                <path d="M85.697278,33.4669462 L84.0802942,33.5029179 C83.4493041,33.5156821 83.1916402,33.5911066 83.0313161,33.828984 C82.9190891,33.979833 82.8698467,34.1167575 82.8457981,34.1921821 C82.8194591,34.2803708 82.7965557,34.330267 82.7209743,34.330267 C82.6465381,34.330267 82.6213443,34.2676066 82.6213443,34.15505 C82.6213443,33.979833 82.832056,32.9540594 82.8572498,32.8647104 C82.8812984,32.7289462 82.9190891,32.6662858 82.9797833,32.6662858 C83.0668164,32.6662858 83.1790433,32.7521538 83.4493041,32.7904462 C83.7710976,32.8264179 84.1787791,32.8403425 84.5360729,32.8403425 L88.9461328,32.8403425 C89.2931202,32.8403425 89.5267354,32.8148142 89.6870595,32.7904462 C89.8599806,32.7649179 89.9470137,32.74055 89.9848044,32.74055 C90.0580955,32.74055 90.0695472,32.8032104 90.0695472,32.9656632 C90.0695472,33.1907764 90.0454986,33.979833 90.0454986,34.2536821 C90.0340469,34.3662387 90.0099982,34.4288991 89.9470137,34.4288991 C89.8599806,34.4288991 89.835932,34.3813236 89.8244803,34.2177104 L89.8118834,34.1051538 C89.7855444,33.828984 89.5026868,33.5029179 88.5269996,33.4913142 L87.1550828,33.4669462 L87.1550828,37.7719462 C87.1550828,38.7478236 87.1665345,39.5867764 87.2169221,40.049767 C87.2535677,40.3503047 87.3165521,40.5487292 87.6372005,40.5986255 C87.7849278,40.6253142 88.0322851,40.6369179 88.1937544,40.6369179 C88.3162879,40.6369179 88.3655303,40.6995783 88.3655303,40.7506349 C88.3655303,40.8248991 88.2796424,40.8631915 88.1548185,40.8631915 C87.4390856,40.8631915 86.7107558,40.8248991 86.4015592,40.8248991 C86.1542019,40.8248991 85.4144204,40.8631915 84.9815451,40.8631915 C84.8452696,40.8631915 84.7708333,40.8248991 84.7708333,40.7506349 C84.7708333,40.6995783 84.8097692,40.6369179 84.9448996,40.6369179 C85.1040786,40.6369179 85.2414993,40.6253142 85.3273872,40.5986255 C85.5495507,40.5487292 85.6113901,40.3503047 85.6491808,40.0358425 C85.697278,39.5867764 85.697278,38.7478236 85.697278,37.7719462 L85.697278,33.4669462 Z" id="Fill-19"></path>
            </g>
        </g>
    </g>
</svg>