<?xml version="1.0" encoding="utf-8"?>
<!-- Generator: Adobe Illustrator 17.0.0, SVG Export Plug-In . SVG Version: 6.00 Build 0)  -->
<!DOCTYPE svg PUBLIC "-//W3C//DTD SVG 1.1//EN" "http://www.w3.org/Graphics/SVG/1.1/DTD/svg11.dtd">
<svg version="1.1" id="Layer_1" xmlns="http://www.w3.org/2000/svg" xmlns:xlink="http://www.w3.org/1999/xlink" x="0px" y="0px"
	 width="120px" height="100px" viewBox="0 0 120 100" enable-background="new 0 0 120 100" xml:space="preserve">
<g id="New_Symbol_9">
	<g>
		<polygon fill="#C55428" points="96.466,26.786 96.466,17.5 65.715,17.5 57.59,26.786 		"/>
		<polygon fill="#C55428" points="63.799,40.237 59.113,45.357 120,45.357 120,36.071 49.465,36.071 46.025,40.237 		"/>
		<polygon fill="#C55428" points="104.591,63.929 104.591,54.643 50.988,54.643 42.863,63.929 		"/>
		<polygon fill="#C55428" points="71.124,82.5 71.124,73.214 34.738,73.214 26.613,82.5 		"/>
		<polygon fill="#C55428" points="26.406,36.071 34.531,26.786 42.656,17.5 17.773,17.5 12.695,26.786 7.617,36.071 2.539,45.357 
			0,50 17.773,50 15.742,54.643 11.68,63.929 7.617,73.214 3.555,82.5 11.68,73.214 19.805,63.929 27.93,54.643 36.055,45.357 
			39.102,41.875 21.328,41.875 		"/>
	</g>
</g>
</svg>
