<?xml version="1.0" encoding="utf-8"?>
<!-- Generator: Adobe Illustrator 17.0.0, SVG Export Plug-In . SVG Version: 6.00 Build 0)  -->
<!DOCTYPE svg PUBLIC "-//W3C//DTD SVG 1.1//EN" "http://www.w3.org/Graphics/SVG/1.1/DTD/svg11.dtd">
<svg version="1.1" id="Artwork" xmlns="http://www.w3.org/2000/svg" xmlns:xlink="http://www.w3.org/1999/xlink" x="0px" y="0px"
	 width="283.465px" height="90.709px" viewBox="0 0 283.465 90.709" enable-background="new 0 0 283.465 90.709"
	 xml:space="preserve">
<g>
	<path fill="#FFFFFF" d="M142.535,1.519c-16.502,0-29.88,13.378-29.88,29.879c0,16.502,13.377,29.878,29.88,29.878
		c16.5,0,29.878-13.377,29.878-29.878S159.035,1.519,142.535,1.519z M157.285,39.624c-0.746,1.464-1.723,2.817-2.914,4.001
		c-0.439,0.436-0.9,0.844-1.384,1.224c-1.696,1.336-3.652,2.314-5.723,2.885c-1.464,0.402-2.985,0.602-4.516,0.58
		c-0.572-0.008-1.14-0.047-1.703-0.116c-0.872-0.106-1.733-0.283-2.574-0.526c-2.766-0.801-5.327-2.324-7.402-4.436
		c-0.831-0.846-1.562-1.766-2.193-2.746c-0.964-1.498-1.69-3.134-2.181-4.842c-0.039-0.13-0.076-0.261-0.109-0.393
		c-0.259-0.972-0.441-1.965-0.55-2.972c-0.111-1.025-0.145-2.064-0.102-3.102c0.002-0.105,0.007-0.209,0.014-0.315
		c0.084-1.488,0.306-2.932,0.648-4.321c1.366-5.551,4.634-10.243,8.461-13.482c2.552-2.189,5.442-3.75,8.24-4.827
		c0.833-0.32,1.658-0.598,2.465-0.837c0.522-0.153,1.036-0.291,1.536-0.414c1.373-0.335,2.662-0.555,3.805-0.682
		c0.986-0.109,1.864-0.149,2.591-0.133c0.47,0.011,0.893,0.09,0.94,0.237c0.002,0.008,0.006,0.04,0.006,0.046
		c-0.02,0.103-0.215,0.235-0.665,0.394c-4.81,1.707-8.239,6.266-8.239,11.619c0,0.128,0.013,0.251,0.02,0.371
		c2.456,0.52,4.559,1.386,6.337,2.487c1.702,1.051,3.093,2.345,4.17,3.844c0.083,0.116,0.164,0.233,0.245,0.352
		c0.788,1.172,1.393,2.463,1.814,3.853c0.412,1.361,0.643,2.82,0.697,4.356c0.007,0.195,0.013,0.391,0.013,0.585
		C159.035,34.875,158.43,37.381,157.285,39.624z"/>
	<g>
		<polygon fill="#FFFFFF" points="81.671,73.796 85.511,83.926 89.225,73.796 94.036,73.796 87.748,89.328 83.191,89.328 
			76.648,73.796 		"/>
		<path fill="#FFFFFF" d="M102.225,89.709c-4.98,0-8.103-3.503-8.103-8.145c0-4.644,3.122-8.148,8.103-8.148
			c5.023,0,8.146,3.503,8.146,8.148C110.371,86.206,107.248,89.709,102.225,89.709z M102.225,76.962
			c-2.406,0-3.587,2.111-3.587,4.643c0,2.49,1.181,4.558,3.587,4.558c2.406,0,3.588-2.069,3.588-4.558
			C105.813,79.073,104.632,76.962,102.225,76.962z"/>
		<path fill="#FFFFFF" d="M127.677,67.465v21.569c-1.858,0.381-4.009,0.675-6.625,0.675c-5.361,0-8.823-2.828-8.823-8.231
			c0-4.558,3.123-8.061,7.808-8.061c1.351,0,2.66,0.295,3.378,0.591v-6.543C123.415,67.465,127.677,67.465,127.677,67.465z
			 M123.414,77.68c-0.677-0.38-1.731-0.718-3.041-0.718c-2.32,0-3.627,1.983-3.627,4.516c0,3.082,1.983,4.644,4.389,4.644
			c0.843,0,1.687-0.043,2.279-0.169V77.68z"/>
		<path fill="#FFFFFF" d="M129.661,81.901c0-4.898,3.63-8.485,8.821-8.485c2.574,0,5.19,0.634,6.669,1.224v14.688h-3.798
			l-0.298-1.35c-0.885,1.012-2.151,1.73-4.177,1.73C132.783,89.709,129.661,86.711,129.661,81.901z M140.845,77.384
			c-0.464-0.128-1.391-0.296-2.447-0.296c-2.069,0-4.221,1.604-4.221,4.643c0,2.997,1.689,4.432,3.588,4.432
			c1.433,0,2.574-0.759,3.08-1.604V77.384z"/>
		<path fill="#FFFFFF" d="M153.382,67.085c1.14,0,2.532,0.21,3.293,0.38v3.716c-0.675-0.085-1.816-0.17-2.407-0.17
			c-1.014,0-1.392,0.17-1.73,0.465c-0.296,0.296-0.38,0.718-0.38,1.393v0.927h3.925v3.759h-3.925v11.774h-4.264V72.53
			c0-1.814,0.591-3.165,1.562-4.095C150.383,67.549,151.82,67.085,153.382,67.085z"/>
		<path fill="#FFFFFF" d="M164.609,89.709c-5.024,0-8.146-3.503-8.146-8.145c0-4.644,3.122-8.148,8.146-8.148
			c5.022,0,8.104,3.503,8.104,8.148C172.712,86.206,169.63,89.709,164.609,89.709z M164.609,76.962
			c-2.406,0-3.587,2.111-3.587,4.643c0,2.49,1.182,4.558,3.587,4.558c2.406,0,3.588-2.069,3.588-4.558
			C168.198,79.073,167.014,76.962,164.609,76.962z"/>
		<path fill="#FFFFFF" d="M185.671,80.802c0-2.319-1.18-3.502-3.546-3.502c-1.183,0-2.49,0.209-3.165,0.38v11.648h-4.264V74.64
			c1.941-0.675,4.728-1.224,7.471-1.224c4.939,0,7.808,2.448,7.808,6.543v9.369h-4.305v-8.526H185.671z"/>
		<path fill="#FFFFFF" d="M191.96,81.477c0-4.938,3.122-8.103,7.639-8.103c4.559,0,7.217,3.545,7.217,7.892
			c0,0.591-0.041,1.393-0.085,1.731h-10.423c0.211,2.194,1.646,3.377,4.473,3.377c2.406,0,4.348-0.507,5.445-0.844v2.828
			c-1.392,0.675-3.209,1.308-5.613,1.308C195.124,89.666,191.96,86.754,191.96,81.477z M202.893,79.873
			c-0.129-1.603-1.268-2.912-3.294-2.912c-2.027,0-3.04,1.099-3.207,2.912H202.893z"/>
	</g>
</g>
</svg>
