<?xml version="1.0" encoding="utf-8"?>
<!-- Generator: Adobe Illustrator 17.0.0, SVG Export Plug-In . SVG Version: 6.00 Build 0)  -->
<!DOCTYPE svg PUBLIC "-//W3C//DTD SVG 1.1//EN" "http://www.w3.org/Graphics/SVG/1.1/DTD/svg11.dtd">
<svg version="1.1" id="Artwork" xmlns="http://www.w3.org/2000/svg" xmlns:xlink="http://www.w3.org/1999/xlink" x="0px" y="0px"
	 width="283.465px" height="90.709px" viewBox="0 0 283.465 90.709" enable-background="new 0 0 283.465 90.709"
	 xml:space="preserve">
<g>
	<path fill="#FFFFFF" d="M65.887,1.519c-16.502,0-29.88,13.378-29.88,29.879c0,16.502,13.377,29.878,29.88,29.878
		c16.5,0,29.878-13.377,29.878-29.878C95.765,14.897,82.386,1.519,65.887,1.519z M80.637,39.624
		c-0.746,1.464-1.723,2.817-2.914,4.001c-0.439,0.436-0.9,0.844-1.384,1.224c-1.696,1.336-3.652,2.314-5.723,2.885
		c-1.464,0.402-2.985,0.602-4.516,0.58c-0.572-0.008-1.14-0.047-1.703-0.116c-0.872-0.106-1.733-0.283-2.574-0.526
		c-2.766-0.801-5.327-2.324-7.402-4.436c-0.831-0.846-1.562-1.766-2.193-2.746c-0.964-1.498-1.69-3.134-2.181-4.842
		c-0.039-0.13-0.076-0.261-0.109-0.393c-0.259-0.972-0.441-1.965-0.55-2.972c-0.111-1.025-0.145-2.064-0.102-3.102
		c0.002-0.105,0.007-0.209,0.014-0.315c0.084-1.488,0.306-2.932,0.648-4.321c1.366-5.551,4.634-10.243,8.461-13.482
		c2.552-2.189,5.442-3.75,8.24-4.827c0.833-0.32,1.658-0.598,2.465-0.837c0.522-0.153,1.036-0.291,1.536-0.414
		c1.373-0.335,2.662-0.555,3.805-0.682c0.986-0.109,1.864-0.149,2.591-0.133c0.47,0.011,0.893,0.09,0.94,0.237
		c0.002,0.008,0.006,0.04,0.006,0.046c-0.02,0.103-0.215,0.235-0.665,0.394c-4.81,1.707-8.239,6.266-8.239,11.619
		c0,0.128,0.013,0.251,0.02,0.371c2.456,0.52,4.559,1.386,6.337,2.487c1.702,1.051,3.093,2.345,4.17,3.844
		c0.083,0.116,0.164,0.233,0.245,0.352c0.788,1.172,1.393,2.463,1.814,3.853c0.412,1.361,0.643,2.82,0.697,4.356
		c0.007,0.195,0.013,0.391,0.013,0.585C82.386,34.875,81.781,37.381,80.637,39.624z"/>
	<g>
		<polygon fill="#FFFFFF" points="5.022,73.796 8.863,83.926 12.577,73.796 17.388,73.796 11.1,89.328 6.543,89.328 0,73.796 		"/>
		<path fill="#FFFFFF" d="M25.577,89.709c-4.98,0-8.103-3.503-8.103-8.145c0-4.644,3.122-8.148,8.103-8.148
			c5.023,0,8.146,3.503,8.146,8.148C33.723,86.206,30.6,89.709,25.577,89.709z M25.577,76.962c-2.406,0-3.587,2.111-3.587,4.643
			c0,2.49,1.181,4.558,3.587,4.558c2.406,0,3.588-2.069,3.588-4.558C29.165,79.073,27.983,76.962,25.577,76.962z"/>
		<path fill="#FFFFFF" d="M51.029,67.465v21.569c-1.858,0.381-4.009,0.675-6.625,0.675c-5.361,0-8.823-2.828-8.823-8.231
			c0-4.558,3.123-8.061,7.808-8.061c1.351,0,2.66,0.295,3.378,0.591v-6.543H51.029z M46.766,77.68
			c-0.677-0.38-1.731-0.718-3.041-0.718c-2.32,0-3.627,1.983-3.627,4.516c0,3.082,1.983,4.644,4.389,4.644
			c0.843,0,1.687-0.043,2.279-0.169V77.68z"/>
		<path fill="#FFFFFF" d="M53.013,81.901c0-4.898,3.63-8.485,8.821-8.485c2.574,0,5.19,0.634,6.669,1.224v14.688h-3.798l-0.298-1.35
			c-0.885,1.012-2.151,1.73-4.177,1.73C56.135,89.709,53.013,86.711,53.013,81.901z M64.197,77.384
			c-0.464-0.128-1.391-0.296-2.447-0.296c-2.069,0-4.221,1.604-4.221,4.643c0,2.997,1.689,4.432,3.588,4.432
			c1.433,0,2.574-0.759,3.08-1.604V77.384z"/>
		<path fill="#FFFFFF" d="M76.733,67.085c1.14,0,2.532,0.21,3.293,0.38v3.716c-0.675-0.085-1.816-0.17-2.407-0.17
			c-1.014,0-1.392,0.17-1.73,0.465c-0.296,0.296-0.38,0.718-0.38,1.393v0.927h3.925v3.759h-3.925v11.774h-4.264V72.53
			c0-1.814,0.591-3.165,1.562-4.095C73.735,67.549,75.172,67.085,76.733,67.085z"/>
		<path fill="#FFFFFF" d="M87.961,89.709c-5.024,0-8.146-3.503-8.146-8.145c0-4.644,3.122-8.148,8.146-8.148
			c5.022,0,8.104,3.503,8.104,8.148C96.064,86.206,92.982,89.709,87.961,89.709z M87.961,76.962c-2.406,0-3.587,2.111-3.587,4.643
			c0,2.49,1.182,4.558,3.587,4.558c2.406,0,3.588-2.069,3.588-4.558C91.549,79.073,90.366,76.962,87.961,76.962z"/>
		<path fill="#FFFFFF" d="M109.022,80.802c0-2.319-1.18-3.502-3.546-3.502c-1.183,0-2.49,0.209-3.165,0.38v11.648h-4.264V74.64
			c1.941-0.675,4.728-1.224,7.471-1.224c4.939,0,7.808,2.448,7.808,6.543v9.369h-4.305V80.802z"/>
		<path fill="#FFFFFF" d="M115.312,81.477c0-4.938,3.122-8.103,7.639-8.103c4.559,0,7.217,3.545,7.217,7.892
			c0,0.591-0.041,1.393-0.085,1.731h-10.423c0.211,2.194,1.646,3.377,4.473,3.377c2.406,0,4.348-0.507,5.445-0.844v2.828
			c-1.392,0.675-3.209,1.308-5.613,1.308C118.476,89.666,115.312,86.754,115.312,81.477z M126.244,79.873
			c-0.129-1.603-1.268-2.912-3.294-2.912c-2.027,0-3.04,1.099-3.207,2.912H126.244z"/>
	</g>
	<g>
		<rect x="159.433" y="1.111" fill="#FFFFFF" width="1.588" height="88.212"/>
	</g>
	<g>
		<path fill="#FFFFFF" d="M248.81,66.685c-1.438,0-2.602-1.166-2.602-2.603V23.891c0-1.438,1.164-2.602,2.602-2.602
			c1.436,0,2.602,1.165,2.602,2.602v40.191C251.412,65.519,250.246,66.685,248.81,66.685z M239.79,64.082V33.779
			c0-1.436-1.165-2.602-2.602-2.602c-1.437,0-2.603,1.166-2.603,2.602v30.303c0,1.437,1.166,2.603,2.603,2.603
			C238.625,66.685,239.79,65.519,239.79,64.082z M228.169,64.082V43.668c0-1.437-1.165-2.602-2.601-2.602
			c-1.438,0-2.603,1.166-2.603,2.602v20.415c0,1.437,1.165,2.603,2.603,2.603C227.004,66.685,228.169,65.519,228.169,64.082z
			 M216.548,64.082V53.556c0-1.438-1.165-2.602-2.603-2.602c-1.436,0-2.602,1.164-2.602,2.602v10.526
			c0,1.437,1.166,2.603,2.602,2.603C215.383,66.685,216.548,65.519,216.548,64.082z M263.034,37.126V18.013
			c3.249-0.524,6.247-2.437,8.036-5.5c2.134-3.645,2.013-7.987,0.066-11.411c-3.941-0.018-7.782,2.006-9.914,5.653
			c-0.818,1.4-1.301,2.903-1.481,4.417c-0.135-0.302-0.29-0.599-0.466-0.889c-1.521-2.488-4.2-3.835-6.92-3.769
			c-1.3,2.389-1.325,5.39,0.196,7.878c1.212,1.983,3.161,3.238,5.28,3.634v46.056c0,1.437,1.165,2.603,2.602,2.603
			c1.435,0,2.601-1.166,2.601-2.603V47.115c2.799-0.237,5.445-1.782,6.973-4.392c1.67-2.857,1.576-6.26,0.048-8.943
			C267.384,33.766,264.772,34.955,263.034,37.126z"/>
		<g>
			<path fill="#FFFFFF" d="M190.938,89.373V78.944h6.946v2.42h-4.277v1.889h3.42v2.375h-3.42v3.746H190.938z"/>
			<path fill="#FFFFFF" d="M202.46,89.373l-0.203-0.595c-0.208,0.199-0.479,0.368-0.813,0.51c-0.332,0.14-0.724,0.209-1.168,0.209
				c-0.335,0-0.645-0.052-0.93-0.156c-0.287-0.104-0.535-0.258-0.743-0.46c-0.208-0.202-0.373-0.446-0.492-0.726
				c-0.12-0.281-0.179-0.603-0.179-0.969c0-0.375,0.066-0.703,0.202-0.983c0.135-0.281,0.317-0.52,0.548-0.718
				c0.227-0.198,0.496-0.36,0.803-0.484c0.306-0.125,0.628-0.213,0.96-0.267c0.312-0.051,0.607-0.088,0.882-0.109
				c0.274-0.02,0.528-0.037,0.757-0.046v-0.265c0-0.572-0.319-0.859-0.952-0.859c-0.303,0-0.604,0.049-0.907,0.148
				c-0.302,0.098-0.593,0.232-0.874,0.4l-0.749-1.656c0.127-0.083,0.291-0.171,0.499-0.266c0.209-0.093,0.442-0.182,0.703-0.265
				c0.26-0.083,0.539-0.154,0.835-0.21c0.298-0.058,0.596-0.085,0.899-0.085c0.946,0,1.702,0.244,2.264,0.732
				c0.561,0.49,0.843,1.245,0.843,2.265v4.855H202.46z M202.085,85.937c-0.145,0.011-0.296,0.025-0.446,0.039
				c-0.15,0.017-0.304,0.04-0.459,0.071c-0.303,0.062-0.517,0.174-0.642,0.336c-0.124,0.161-0.186,0.362-0.186,0.601
				c0,0.198,0.07,0.362,0.209,0.492c0.141,0.13,0.342,0.195,0.603,0.195c0.175,0,0.344-0.031,0.505-0.095
				c0.163-0.062,0.3-0.14,0.415-0.234V85.937z"/>
			<path fill="#FFFFFF" d="M211.201,83.877c-0.167-0.052-0.315-0.086-0.445-0.102c-0.13-0.015-0.257-0.022-0.382-0.022
				c-0.177,0-0.342,0.027-0.492,0.085c-0.151,0.058-0.29,0.128-0.413,0.21c-0.127,0.084-0.241,0.173-0.344,0.266
				c-0.105,0.092-0.188,0.176-0.251,0.248v4.81h-2.607v-7.68h2.311l0.155,0.779c0.177-0.207,0.418-0.408,0.719-0.6
				c0.303-0.193,0.666-0.291,1.093-0.291c0.176,0,0.353,0.014,0.531,0.039c0.176,0.027,0.322,0.066,0.436,0.118L211.201,83.877z"/>
			<path fill="#FFFFFF" d="M221.333,89.373V84.72c0-0.363-0.066-0.649-0.195-0.859c-0.131-0.208-0.371-0.312-0.726-0.312
				c-0.198,0-0.38,0.044-0.546,0.132c-0.168,0.089-0.323,0.186-0.469,0.288c0.011,0.053,0.019,0.128,0.025,0.228
				c0.005,0.097,0.008,0.174,0.008,0.225v4.95h-2.592V84.72c0-0.343-0.062-0.624-0.187-0.843c-0.125-0.219-0.35-0.328-0.671-0.328
				c-0.209,0-0.402,0.052-0.58,0.156c-0.177,0.104-0.329,0.214-0.451,0.329v5.339h-2.608v-7.68h2.294l0.109,0.64
				c0.209-0.209,0.484-0.397,0.828-0.563c0.343-0.166,0.724-0.248,1.14-0.248c0.436,0,0.832,0.066,1.186,0.202
				c0.354,0.135,0.65,0.343,0.889,0.624c0.332-0.261,0.693-0.464,1.077-0.609c0.386-0.145,0.811-0.218,1.281-0.218
				c0.967,0,1.673,0.255,2.122,0.771c0.448,0.516,0.672,1.247,0.672,2.194v4.887H221.333z"/>
			<path fill="#FFFFFF" d="M227.78,86.064c0.021,0.468,0.169,0.825,0.445,1.076c0.277,0.25,0.68,0.375,1.211,0.375
				c0.436,0,0.799-0.08,1.093-0.242c0.291-0.161,0.576-0.361,0.857-0.601l0.765,1.843c-0.125,0.114-0.281,0.228-0.47,0.343
				c-0.187,0.115-0.406,0.225-0.655,0.329c-0.25,0.104-0.537,0.187-0.867,0.249c-0.326,0.062-0.694,0.093-1.1,0.093
				c-0.551,0-1.06-0.08-1.522-0.241c-0.462-0.163-0.866-0.409-1.208-0.742c-0.345-0.335-0.614-0.75-0.807-1.249
				c-0.193-0.501-0.287-1.088-0.287-1.766c0-0.634,0.092-1.202,0.28-1.701c0.187-0.499,0.448-0.921,0.781-1.265
				c0.334-0.342,0.726-0.604,1.178-0.781c0.453-0.175,0.94-0.264,1.461-0.264c1.082,0,1.941,0.374,2.576,1.122
				c0.634,0.75,0.958,1.89,0.967,3.42H227.78z M230.043,84.611c-0.021-0.396-0.131-0.719-0.335-0.969
				c-0.203-0.249-0.457-0.374-0.758-0.374c-0.322,0-0.588,0.118-0.796,0.357c-0.208,0.241-0.328,0.569-0.358,0.985H230.043z"/>
			<path fill="#FFFFFF" d="M238.661,83.877c-0.166-0.052-0.315-0.086-0.446-0.102c-0.129-0.015-0.257-0.022-0.381-0.022
				c-0.177,0-0.342,0.027-0.492,0.085c-0.15,0.058-0.29,0.128-0.414,0.21c-0.124,0.084-0.239,0.173-0.344,0.266
				c-0.104,0.092-0.187,0.176-0.249,0.248v4.81h-2.607v-7.68h2.311l0.155,0.779c0.177-0.207,0.417-0.408,0.718-0.6
				c0.303-0.193,0.668-0.291,1.093-0.291c0.176,0,0.354,0.014,0.531,0.039c0.177,0.027,0.323,0.066,0.438,0.118L238.661,83.877z"/>
			<path fill="#FFFFFF" d="M245.92,87.014c0,0.459-0.09,0.846-0.272,1.164c-0.183,0.318-0.431,0.575-0.743,0.771
				c-0.312,0.199-0.672,0.344-1.077,0.438c-0.406,0.095-0.833,0.142-1.28,0.142c-0.406,0-0.788-0.032-1.147-0.093
				c-0.36-0.063-0.681-0.142-0.968-0.234c-0.286-0.095-0.531-0.196-0.734-0.306c-0.203-0.109-0.356-0.205-0.461-0.289l0.797-1.779
				c0.115,0.093,0.265,0.189,0.452,0.289c0.188,0.098,0.393,0.192,0.618,0.281c0.222,0.089,0.459,0.161,0.71,0.219
				c0.248,0.057,0.494,0.085,0.733,0.085c0.24,0,0.447-0.031,0.625-0.092c0.177-0.064,0.266-0.193,0.266-0.391
				c0-0.176-0.084-0.309-0.251-0.399c-0.167-0.089-0.479-0.19-0.937-0.303c-0.499-0.127-0.928-0.261-1.288-0.408
				c-0.358-0.144-0.654-0.313-0.888-0.506c-0.237-0.193-0.407-0.422-0.517-0.687c-0.109-0.266-0.164-0.58-0.164-0.945
				c0-0.384,0.079-0.727,0.234-1.03c0.156-0.302,0.378-0.558,0.665-0.772c0.286-0.214,0.634-0.375,1.037-0.485
				c0.406-0.108,0.853-0.162,1.342-0.162c0.416,0,0.792,0.03,1.125,0.091c0.334,0.065,0.624,0.142,0.873,0.235
				c0.252,0.093,0.464,0.192,0.642,0.297c0.176,0.105,0.316,0.193,0.421,0.265l-0.781,1.656c-0.125-0.095-0.274-0.188-0.446-0.283
				c-0.17-0.092-0.354-0.176-0.545-0.248c-0.194-0.072-0.39-0.132-0.595-0.18c-0.201-0.046-0.397-0.07-0.584-0.07
				c-0.239,0-0.455,0.026-0.647,0.078c-0.194,0.052-0.289,0.176-0.289,0.374c0,0.084,0.015,0.155,0.045,0.21
				c0.032,0.059,0.095,0.118,0.188,0.18c0.092,0.063,0.229,0.125,0.406,0.188c0.177,0.063,0.416,0.13,0.718,0.203
				c0.47,0.123,0.87,0.257,1.211,0.397c0.337,0.141,0.617,0.306,0.843,0.499c0.224,0.193,0.39,0.421,0.498,0.679
				C245.867,86.355,245.92,86.661,245.92,87.014z"/>
			<path fill="#FFFFFF" d="M247.731,83.518l-0.671-0.843c0.177-0.124,0.36-0.29,0.546-0.491c0.187-0.203,0.306-0.384,0.358-0.539
				c-0.334-0.052-0.611-0.196-0.834-0.439c-0.225-0.238-0.336-0.539-0.336-0.905c0-0.363,0.116-0.681,0.35-0.952
				c0.234-0.27,0.57-0.406,1.008-0.406c0.438,0,0.788,0.151,1.053,0.453c0.266,0.303,0.4,0.692,0.4,1.172
				c0,0.477-0.149,0.972-0.446,1.482C248.862,82.561,248.387,83.049,247.731,83.518z"/>
			<path fill="#FFFFFF" d="M261.264,88.404c-0.332,0.291-0.801,0.561-1.405,0.813c-0.603,0.248-1.309,0.375-2.122,0.375
				c-0.782,0-1.47-0.126-2.069-0.375c-0.598-0.252-1.101-0.61-1.507-1.079c-0.404-0.467-0.714-1.034-0.928-1.701
				c-0.212-0.667-0.321-1.416-0.321-2.248c0-0.894,0.12-1.683,0.361-2.364c0.238-0.682,0.568-1.25,0.989-1.702
				c0.423-0.453,0.921-0.794,1.501-1.022c0.576-0.231,1.203-0.344,1.881-0.344c0.488,0,0.926,0.06,1.312,0.179
				c0.386,0.12,0.727,0.279,1.03,0.477c0.302,0.198,0.569,0.427,0.804,0.686c0.233,0.261,0.439,0.532,0.616,0.814l-1.78,1.452
				c-0.27-0.448-0.562-0.771-0.874-0.969c-0.311-0.199-0.687-0.298-1.124-0.298c-0.626,0-1.108,0.261-1.452,0.781
				c-0.343,0.522-0.514,1.29-0.514,2.311c0,0.989,0.202,1.75,0.609,2.287c0.405,0.536,0.983,0.804,1.73,0.804
				c0.552,0,1.022-0.11,1.407-0.328c0.386-0.219,0.727-0.458,1.029-0.718L261.264,88.404z"/>
			<path fill="#FFFFFF" d="M265.029,86.875c0,0.208,0.032,0.361,0.102,0.46c0.067,0.099,0.2,0.148,0.397,0.148
				c0.166,0,0.348-0.04,0.546-0.124l0.328,1.858c-0.147,0.063-0.388,0.13-0.725,0.202c-0.339,0.073-0.703,0.11-1.086,0.11
				c-0.719,0-1.26-0.177-1.625-0.532c-0.363-0.354-0.545-0.92-0.545-1.7V78.96h2.608V86.875z"/>
			<path fill="#FFFFFF" d="M272.194,89.373l-0.141-0.64c-0.251,0.239-0.557,0.435-0.92,0.584c-0.366,0.151-0.764,0.227-1.203,0.227
				c-0.853,0-1.522-0.252-2.007-0.758c-0.482-0.504-0.725-1.247-0.725-2.223v-4.87h2.623v4.543c0,0.394,0.07,0.701,0.21,0.919
				c0.14,0.219,0.371,0.329,0.694,0.329c0.26,0,0.481-0.048,0.664-0.148c0.182-0.099,0.336-0.201,0.46-0.304v-5.339h2.622v7.68
				H272.194z"/>
			<path fill="#FFFFFF" d="M283.465,85.36c0,0.708-0.102,1.322-0.305,1.841c-0.203,0.522-0.488,0.957-0.859,1.305
				c-0.368,0.349-0.804,0.609-1.305,0.782c-0.499,0.171-1.043,0.257-1.639,0.257c-0.654,0-1.248-0.06-1.779-0.18
				c-0.53-0.119-1.014-0.267-1.451-0.445v-9.976h2.608v2.779c0.198-0.064,0.408-0.112,0.632-0.148
				c0.224-0.037,0.48-0.054,0.774-0.054c0.53,0,1.001,0.095,1.411,0.289c0.412,0.192,0.758,0.46,1.04,0.803
				c0.281,0.343,0.497,0.75,0.647,1.218C283.389,84.298,283.465,84.808,283.465,85.36z M280.905,85.485
				c0-0.646-0.136-1.126-0.408-1.444c-0.27-0.318-0.608-0.477-1.014-0.477c-0.145,0-0.277,0.014-0.39,0.039
				c-0.115,0.025-0.233,0.059-0.358,0.102v3.716c0.114,0.032,0.219,0.054,0.321,0.071c0.098,0.014,0.22,0.022,0.365,0.022
				c0.438,0,0.794-0.169,1.068-0.509C280.767,86.67,280.905,86.162,280.905,85.485z"/>
		</g>
	</g>
</g>
</svg>
