<?xml version="1.0" encoding="utf-8"?>
<!-- Generator: Adobe Illustrator 24.0.3, SVG Export Plug-In . SVG Version: 6.00 Build 0)  -->
<svg version="1.1" id="Layer_1" xmlns="http://www.w3.org/2000/svg" xmlns:xlink="http://www.w3.org/1999/xlink" x="0px" y="0px"
	 viewBox="0 0 100 100" style="enable-background:new 0 0 100 100;" xml:space="preserve">
<style type="text/css">
	.st0{fill:#48556B;}
	.st1{fill:#FFFFFF;}
</style>
<path class="st0" d="M50,10.5c21.7-0.1,39.6,17.7,39.4,39.8C89.3,72,71.5,89.7,49.6,89.5c-21.8-0.2-39.5-18.2-39.1-40.3
	C11,27.8,28.5,10.5,50,10.5z"/>
<g id="XMLID_3_">
	<path id="XMLID_58_" class="st1" d="M24,47c-1.4,0-2.7,0.5-3.7,1.5v-4.6h7.4c0.3,0,0.6-0.3,0.6-0.6s-0.3-0.6-0.6-0.6h-8
		c-0.3,0-0.6,0.3-0.6,0.6v6.9c0,0.3,0.2,0.5,0.4,0.6c0.3,0.1,0.5-0.1,0.6-0.3c0.7-1.4,2.2-2.3,3.7-2.3c2.3,0,4.2,1.9,4.2,4.2
		c0,2.3-1.9,4.2-4.2,4.2c-1.9,0-3.5-1.3-4-3c-0.1-0.3-0.4-0.5-0.7-0.4c-0.3,0.1-0.5,0.4-0.4,0.7c0.7,2.3,2.8,3.9,5.2,3.9
		c3,0,5.4-2.4,5.4-5.4C29.3,49.4,26.9,47,24,47z"/>
	<path id="XMLID_61_" class="st1" d="M38,42.4c-4.1,0-7.5,3.4-7.5,7.5s3.4,7.5,7.5,7.5s7.5-3.4,7.5-7.5S42.1,42.4,38,42.4z M38,56.2
		c-3.5,0-6.4-2.9-6.4-6.4c0-3.5,2.9-6.4,6.4-6.4c3.5,0,6.4,2.9,6.4,6.4C44.4,53.4,41.5,56.2,38,56.2z"/>
	<path id="XMLID_64_" class="st1" d="M54.9,42.4c-4.1,0-7.5,3.4-7.5,7.5s3.4,7.5,7.5,7.5s7.5-3.4,7.5-7.5S59,42.4,54.9,42.4z
		 M54.9,56.2c-3.5,0-6.4-2.9-6.4-6.4c0-3.5,2.9-6.4,6.4-6.4c3.5,0,6.4,2.9,6.4,6.4C61.2,53.4,58.4,56.2,54.9,56.2z"/>
	<path id="XMLID_65_" class="st1" d="M68.2,42.3c-2.2,0-3.9,1.8-3.9,3.9v7.4c0,0.3,0.3,0.6,0.6,0.6c0.3,0,0.6-0.3,0.6-0.6v-7.4
		c0-1.5,1.2-2.8,2.8-2.8c1.5,0,2.8,1.2,2.8,2.8c0,1.5-1.2,2.8-2.8,2.8c-0.1,0-0.2,0-0.3,0c-0.3,0-0.6,0.2-0.6,0.5
		c0,0.3,0.2,0.6,0.5,0.6c0.1,0,0.2,0,0.4,0c2.2,0,3.9-1.8,3.9-3.9C72.1,44.1,70.3,42.3,68.2,42.3z"/>
	<path id="XMLID_66_" class="st1" d="M81,49.5l-3.1-3.1l3.1-3.1c0.2-0.2,0.2-0.6,0-0.8c-0.2-0.2-0.6-0.2-0.8,0l-3.1,3.1L74,42.5
		c-0.2-0.2-0.6-0.2-0.8,0c-0.2,0.2-0.2,0.6,0,0.8l3.1,3.1l-3.1,3.1c-0.2,0.2-0.2,0.6,0,0.8c0.1,0.1,0.3,0.2,0.4,0.2
		c0.1,0,0.3-0.1,0.4-0.2l3.1-3.1l3.1,3.1c0.1,0.1,0.3,0.2,0.4,0.2c0.1,0,0.3-0.1,0.4-0.2C81.2,50.1,81.2,49.7,81,49.5z"/>
</g>
</svg>
