<?xml version="1.0" encoding="utf-8"?>
<!-- Generator: Adobe Illustrator 24.0.3, SVG Export Plug-In . SVG Version: 6.00 Build 0)  -->
<svg version="1.1" id="Layer_1" xmlns="http://www.w3.org/2000/svg" xmlns:xlink="http://www.w3.org/1999/xlink" x="0px" y="0px"
	 viewBox="0 0 200 100" style="enable-background:new 0 0 200 100;" xml:space="preserve">
<style type="text/css">
	.st0{fill:#48556B;}
</style>
<g id="XMLID_3_">
	<path id="XMLID_58_" class="st0" d="M20.1,40.8c-4.2,0-8.2,1.6-11.1,4.4v-14h22.3c1,0,1.7-0.8,1.7-1.7s-0.8-1.7-1.7-1.7H7.2
		c-1,0-1.7,0.8-1.7,1.7v20.9c0,0.8,0.6,1.5,1.3,1.7c0.8,0.2,1.6-0.2,2-0.9c2.2-4.3,6.5-6.9,11.3-6.9c7,0,12.7,5.7,12.7,12.7
		c0,7-5.7,12.7-12.7,12.7c-5.6,0-10.7-3.8-12.2-9.2c-0.3-0.9-1.2-1.5-2.2-1.2c-0.9,0.3-1.5,1.2-1.2,2.2c2,6.9,8.4,11.8,15.6,11.8
		c8.9,0,16.2-7.3,16.2-16.2S29,40.8,20.1,40.8z"/>
	<path id="XMLID_61_" class="st0" d="M62.4,26.9c-12.5,0-22.7,10.2-22.7,22.7s10.2,22.7,22.7,22.7s22.7-10.2,22.7-22.7
		S74.9,26.9,62.4,26.9z M62.4,68.8c-10.6,0-19.2-8.6-19.2-19.2s8.6-19.2,19.2-19.2S81.6,39,81.6,49.6S73,68.8,62.4,68.8z"/>
	<path id="XMLID_64_" class="st0" d="M113.4,26.9c-12.5,0-22.7,10.2-22.7,22.7s10.2,22.7,22.7,22.7s22.7-10.2,22.7-22.7
		S125.9,26.9,113.4,26.9z M113.4,68.8c-10.6,0-19.2-8.6-19.2-19.2s8.6-19.2,19.2-19.2s19.2,8.6,19.2,19.2S124,68.8,113.4,68.8z"/>
	<path id="XMLID_65_" class="st0" d="M153.6,26.9c-6.5,0-11.8,5.3-11.8,11.8v22.4c0,1,0.8,1.7,1.7,1.7c1,0,1.7-0.8,1.7-1.7V38.7
		c0-4.6,3.7-8.3,8.3-8.3c4.6,0,8.3,3.7,8.3,8.3s-3.7,8.3-8.3,8.3c-0.3,0-0.5,0-0.8,0c-1-0.1-1.8,0.6-1.9,1.6c-0.1,1,0.6,1.8,1.6,1.9
		c0.4,0,0.8,0.1,1.1,0.1c6.5,0,11.8-5.3,11.8-11.8C165.4,32.2,160.1,26.9,153.6,26.9z"/>
	<path id="XMLID_66_" class="st0" d="M192.4,48.4l-9.3-9.2l9.2-9.3c0.7-0.7,0.7-1.8,0-2.5c-0.7-0.7-1.8-0.7-2.5,0l-9.2,9.3l-9.4-9.3
		c-0.7-0.7-1.8-0.7-2.5,0c-0.7,0.7-0.7,1.8,0,2.5l9.4,9.3l-9.3,9.4c-0.7,0.7-0.7,1.8,0,2.5c0.3,0.3,0.8,0.5,1.2,0.5
		c0.4,0,0.9-0.2,1.2-0.5l9.3-9.4l9.3,9.2c0.3,0.3,0.8,0.5,1.2,0.5c0.4,0,0.9-0.2,1.2-0.5C193.1,50.2,193.1,49.1,192.4,48.4z"/>
</g>
</svg>
