<?xml version="1.0" encoding="utf-8"?>
<!-- Generator: Adobe Illustrator 24.0.3, SVG Export Plug-In . SVG Version: 6.00 Build 0)  -->
<svg version="1.1" id="Layer_1" xmlns="http://www.w3.org/2000/svg" xmlns:xlink="http://www.w3.org/1999/xlink" x="0px" y="0px"
	 viewBox="0 0 100 100" style="enable-background:new 0 0 100 100;" xml:space="preserve">
<style type="text/css">
	.st0{fill:#48556B;}
</style>
<g id="XMLID_3_">
	<path id="XMLID_58_" class="st0" d="M12.1,45.6c-2,0-3.9,0.8-5.4,2.1V41h10.8c0.5,0,0.8-0.4,0.8-0.8s-0.4-0.8-0.8-0.8H5.9
		c-0.5,0-0.8,0.4-0.8,0.8v10.1c0,0.4,0.3,0.7,0.6,0.8c0.4,0.1,0.8-0.1,0.9-0.4c1.1-2.1,3.1-3.3,5.5-3.3c3.4,0,6.1,2.7,6.1,6.1
		c0,3.4-2.7,6.1-6.1,6.1c-2.7,0-5.2-1.8-5.9-4.4c-0.1-0.4-0.6-0.7-1-0.6c-0.4,0.1-0.7,0.6-0.6,1c0.9,3.3,4,5.7,7.5,5.7
		c4.3,0,7.8-3.5,7.8-7.8S16.4,45.6,12.1,45.6z"/>
	<path id="XMLID_61_" class="st0" d="M32.5,38.9c-6,0-11,4.9-11,11s4.9,11,11,11s11-4.9,11-11S38.5,38.9,32.5,38.9z M32.5,59.1
		c-5.1,0-9.3-4.2-9.3-9.3s4.2-9.3,9.3-9.3s9.3,4.2,9.3,9.3S37.6,59.1,32.5,59.1z"/>
	<path id="XMLID_64_" class="st0" d="M57.1,38.9c-6,0-11,4.9-11,11s4.9,11,11,11c6,0,11-4.9,11-11S63.1,38.9,57.1,38.9z M57.1,59.1
		c-5.1,0-9.3-4.2-9.3-9.3s4.2-9.3,9.3-9.3s9.3,4.2,9.3,9.3S62.2,59.1,57.1,59.1z"/>
	<path id="XMLID_65_" class="st0" d="M76.5,38.8c-3.1,0-5.7,2.6-5.7,5.7v10.8c0,0.5,0.4,0.8,0.8,0.8c0.5,0,0.8-0.4,0.8-0.8V44.5
		c0-2.2,1.8-4,4-4c2.2,0,4,1.8,4,4s-1.8,4-4,4c-0.1,0-0.3,0-0.4,0c-0.5,0-0.9,0.3-0.9,0.8c0,0.5,0.3,0.9,0.8,0.9c0.2,0,0.4,0,0.5,0
		c3.1,0,5.7-2.6,5.7-5.7C82.2,41.4,79.6,38.8,76.5,38.8z"/>
	<path id="XMLID_66_" class="st0" d="M95.2,49.2l-4.5-4.5l4.5-4.5c0.3-0.3,0.3-0.9,0-1.2c-0.3-0.3-0.9-0.3-1.2,0l-4.5,4.5L85,39.1
		c-0.3-0.3-0.9-0.3-1.2,0c-0.3,0.3-0.3,0.9,0,1.2l4.5,4.5l-4.5,4.5c-0.3,0.3-0.3,0.9,0,1.2c0.2,0.2,0.4,0.2,0.6,0.2
		c0.2,0,0.4-0.1,0.6-0.2l4.5-4.5l4.5,4.5c0.2,0.2,0.4,0.2,0.6,0.2c0.2,0,0.4-0.1,0.6-0.2C95.6,50.1,95.6,49.5,95.2,49.2z"/>
</g>
</svg>
