<?xml version="1.0" encoding="utf-8"?>
<!-- Generator: Adobe Illustrator 17.0.0, SVG Export Plug-In . SVG Version: 6.00 Build 0)  -->
<!DOCTYPE svg PUBLIC "-//W3C//DTD SVG 1.1//EN" "http://www.w3.org/Graphics/SVG/1.1/DTD/svg11.dtd">
<svg version="1.1" id="Layer_1" xmlns="http://www.w3.org/2000/svg" xmlns:xlink="http://www.w3.org/1999/xlink" x="0px" y="0px"
	 width="100px" height="100px" viewBox="0 0 100 100" enable-background="new 0 0 100 100" xml:space="preserve">
<g>
	<path fill="#FFFFFF" d="M50.006,56.658l26.773-31.516C76.598,25.108,76.437,25,76.25,25h-52.5c-0.116,0-0.212,0.073-0.326,0.088
		L50.006,56.658z"/>
	<path fill="#FFFFFF" d="M80,30c0-0.596-0.112-1.147-0.255-1.677L60.84,50.576l18.663,21.773C79.791,71.638,80,70.865,80,70V30z"/>
	<path fill="#FFFFFF" d="M20.292,28.066C20.106,28.662,20,29.314,20,30v40c0,0.73,0.13,1.411,0.341,2.036L39.182,50.5L20.292,28.066
		z"/>
	<path fill="#FFFFFF" d="M58.006,53.911l-8.011,9.431l-7.988-9.487L23.551,74.947C23.62,74.951,23.68,75,23.75,75h52.332
		L58.006,53.911z"/>
</g>
</svg>
