<?xml version="1.0" encoding="utf-8"?>
<!-- Generator: Adobe Illustrator 17.0.0, SVG Export Plug-In . SVG Version: 6.00 Build 0)  -->
<!DOCTYPE svg PUBLIC "-//W3C//DTD SVG 1.1//EN" "http://www.w3.org/Graphics/SVG/1.1/DTD/svg11.dtd">
<svg version="1.1" id="Layer_1" xmlns="http://www.w3.org/2000/svg" xmlns:xlink="http://www.w3.org/1999/xlink" x="0px" y="0px"
	 width="100px" height="100px" viewBox="0 0 100 100" enable-background="new 0 0 100 100" xml:space="preserve">
<g>
	<path fill="#4F5D75" d="M50.007,56.658l32.128-31.516C81.918,25.108,81.724,25,81.5,25h-63c-0.139,0-0.255,0.073-0.391,0.088
		L50.007,56.658z"/>
	<path fill="#4F5D75" d="M86,30c0-0.596-0.134-1.147-0.306-1.677L63.008,50.576l22.395,21.773C85.749,71.638,86,70.865,86,70V30z"/>
	<path fill="#4F5D75" d="M14.351,28.066C14.127,28.662,14,29.314,14,30v40c0,0.73,0.156,1.411,0.409,2.036L37.018,50.5
		L14.351,28.066z"/>
	<path fill="#4F5D75" d="M59.607,53.911l-9.613,9.431l-9.586-9.487L18.261,74.947C18.344,74.951,18.416,75,18.5,75h62.798
		L59.607,53.911z"/>
</g>
</svg>
