<?xml version="1.0" encoding="utf-8"?>
<!-- Generator: Adobe Illustrator 17.0.0, SVG Export Plug-In . SVG Version: 6.00 Build 0)  -->
<!DOCTYPE svg PUBLIC "-//W3C//DTD SVG 1.1//EN" "http://www.w3.org/Graphics/SVG/1.1/DTD/svg11.dtd">
<svg version="1.1" id="Layer_1" xmlns="http://www.w3.org/2000/svg" xmlns:xlink="http://www.w3.org/1999/xlink" x="0px" y="0px"
	 width="240px" height="100px" viewBox="0 0 240 100" enable-background="new 0 0 240 100" xml:space="preserve">
<g id="New_Symbol_151">
	<rect x="10" y="9.2" fill="#C55528" width="55" height="8"/>
	<rect x="10" y="27.6" fill="#C55528" width="80" height="8"/>
	<rect x="10" y="46" fill="#C55528" width="60" height="8"/>
	<rect x="10" y="64.4" fill="#C55528" width="75" height="8"/>
	<rect x="10" y="82.8" fill="#C55528" width="55" height="8"/>
</g>
<g>
	<rect x="151" y="9.2" fill="#C55528" width="55" height="8"/>
	<rect x="151" y="27.6" fill="#C55528" width="80" height="8"/>
	<rect x="151" y="46" fill="#C55528" width="60" height="8"/>
	<rect x="151" y="64.4" fill="#C55528" width="75" height="8"/>
	<rect x="151" y="82.8" fill="#C55528" width="55" height="8"/>
</g>
<g>
	
		<rect x="126.011" y="40.44" transform="matrix(0.7071 -0.7071 0.7071 0.7071 21.2944 149.4098)" fill="#C55528" width="129.98" height="17.12"/>
	<path fill="#FFFFFF" d="M230.902,1.941l7.157,7.157l-86.961,86.961l-7.157-7.157L230.902,1.941 M230.902-7.958l-4.95,4.95
		l-86.961,86.96l-4.95,4.95l4.95,4.95l7.157,7.157l4.95,4.95l4.95-4.95l86.961-86.961l4.95-4.95l-4.95-4.95l-7.157-7.157
		L230.902-7.958L230.902-7.958z"/>
</g>
</svg>
