<?xml version="1.0" encoding="utf-8"?>
<!-- Generator: Adobe Illustrator 17.0.0, SVG Export Plug-In . SVG Version: 6.00 Build 0)  -->
<!DOCTYPE svg PUBLIC "-//W3C//DTD SVG 1.1//EN" "http://www.w3.org/Graphics/SVG/1.1/DTD/svg11.dtd">
<svg version="1.1" id="Layer_1" xmlns="http://www.w3.org/2000/svg" xmlns:xlink="http://www.w3.org/1999/xlink" x="0px" y="0px"
	 width="100px" height="100px" viewBox="0 0 100 100" enable-background="new 0 0 100 100" xml:space="preserve">
<g>
	<path fill="#C55528" d="M74.692,15.104c-2.244-2.206-4.135-4.103-6.072-5.952c-0.816-0.78-1.168-1.683-0.776-2.712
		c0.41-1.076,1.369-1.34,2.465-1.338c7.23,0.013,14.459-0.009,21.689,0.005c2.119,0.004,2.991,0.941,2.993,3.112
		c0.004,6.943-0.005,13.885,0.009,20.828c0.002,1.112-0.124,2.172-1.269,2.658c-1.19,0.504-2.199,0.115-3.088-0.823
		c-1.809-1.909-3.672-3.766-5.609-5.743c-0.474,0.439-0.854,0.771-1.211,1.127c-4.708,4.704-9.412,9.412-14.12,14.117
		c-1.762,1.761-2.821,1.755-4.599-0.021c-1.999-1.996-3.999-3.991-5.988-5.996c-1.471-1.483-1.486-2.417-0.024-3.898
		c4.71-4.77,9.429-9.53,14.158-14.281C73.617,15.817,74.088,15.552,74.692,15.104z"/>
	<path fill="#C55528" d="M25.16,15.121c2.529,2.513,5.006,4.968,7.476,7.43c2.68,2.672,5.357,5.346,8.026,8.029
		c1.468,1.476,1.487,2.455,0.051,3.91c-2.086,2.114-4.187,4.214-6.3,6.3c-1.368,1.35-2.708,1.333-4.111-0.053
		c-4.603-4.542-9.199-9.091-13.78-13.654c-0.471-0.469-0.828-1.054-1.323-1.697c-1.98,1.985-3.694,3.706-5.411,5.423
		c-0.338,0.338-0.636,0.827-1.046,0.961c-0.772,0.252-1.786,0.637-2.375,0.335c-0.643-0.33-1.287-1.372-1.296-2.111
		c-0.093-7.471-0.07-14.944-0.045-22.416C5.027,6.125,5.897,5.22,7.352,5.214c7.425-0.033,14.849-0.022,22.274-0.007
		c1.038,0.002,2.041,0.425,2.176,1.487c0.098,0.772-0.163,1.834-0.672,2.397C29.27,11.147,27.239,13.048,25.16,15.121z"/>
	<path fill="#C55528" d="M14.947,74.704c0.452-0.431,0.832-0.779,1.197-1.144c4.743-4.741,9.482-9.486,14.226-14.225
		c1.646-1.644,2.558-1.634,4.206,0.045c2.046,2.085,4.086,4.177,6.124,6.271c1.433,1.473,1.438,2.406-0.032,3.908
		c-4.69,4.793-9.393,9.573-14.089,14.361c-0.329,0.335-0.639,0.688-1.135,1.225c1.895,1.837,3.739,3.635,5.597,5.42
		c0.867,0.833,1.607,1.705,1.035,3.009c-0.534,1.218-1.6,1.328-2.764,1.325c-7.089-0.019-14.178-0.009-21.267-0.01
		c-2.154,0-2.955-0.768-2.958-2.92C5.08,84.879,5.093,77.79,5.088,70.701c-0.001-1.178,0.247-2.174,1.485-2.672
		c1.159-0.466,1.917,0.15,2.649,0.889C11.108,70.821,12.992,72.727,14.947,74.704z"/>
	<path fill="#C55528" d="M74.608,84.884c-4.742-4.735-9.349-9.334-13.955-13.934c-0.644-0.643-1.313-1.264-1.92-1.94
		c-0.977-1.087-1.001-2.134,0.036-3.178c2.364-2.378,4.759-4.726,7.191-7.034c1.106-1.05,2.121-0.925,3.382,0.318
		c4.469,4.406,8.927,8.822,13.375,13.249c0.705,0.701,1.335,1.478,2.105,2.337c2.098-2.118,4.002-3.997,5.851-5.928
		c0.772-0.807,1.65-1.249,2.688-0.838c1.095,0.433,1.45,1.392,1.446,2.564c-0.027,7.185-0.013,14.371-0.028,21.556
		c-0.004,1.906-0.809,2.738-2.686,2.742c-7.186,0.017-14.371,0.005-21.557,0.018c-1.233,0.002-2.149-0.5-2.639-1.616
		c-0.469-1.068,0.188-1.819,0.888-2.516C70.683,88.792,72.582,86.902,74.608,84.884z"/>
</g>
</svg>
