<?xml version="1.0" encoding="utf-8"?>
<!-- Generator: Adobe Illustrator 17.0.0, SVG Export Plug-In . SVG Version: 6.00 Build 0)  -->
<!DOCTYPE svg PUBLIC "-//W3C//DTD SVG 1.1//EN" "http://www.w3.org/Graphics/SVG/1.1/DTD/svg11.dtd">
<svg version="1.1" id="Layer_1" xmlns="http://www.w3.org/2000/svg" xmlns:xlink="http://www.w3.org/1999/xlink" x="0px" y="0px"
	 width="100px" height="100px" viewBox="0 0 100 100" enable-background="new 0 0 100 100" xml:space="preserve">
<g>
	<path fill="#C55428" d="M84.999,42.087c0,5.275,0,10.551,0,15.828c-0.01,0.045-0.028,0.091-0.029,0.138
		c-0.038,1.576-0.049,3.152-0.118,4.727c-0.064,1.464-0.152,2.929-0.296,4.387c-0.202,2.037-0.686,4.013-1.456,5.914
		c-1.822,4.497-4.948,7.752-9.368,9.747c-2.662,1.202-5.488,1.753-8.387,1.903c-2.411,0.125-4.829,0.163-7.242,0.24
		c-0.051,0.001-0.101,0.019-0.153,0.029c-5.3,0-10.6,0-15.9,0c-0.045-0.011-0.091-0.028-0.136-0.029
		c-1.849-0.05-3.698-0.093-5.547-0.148c-1.759-0.052-3.512-0.192-5.245-0.514c-2.155-0.4-4.23-1.049-6.15-2.11
		c-3.727-2.06-6.426-5.055-8.037-9.012c-1.018-2.501-1.517-5.117-1.667-7.798c-0.117-2.078-0.156-4.159-0.231-6.238
		c-0.01-0.278-0.024-0.555-0.036-0.832c0-5.544,0-11.088,0-16.631c0.011-0.045,0.028-0.092,0.029-0.138
		c0.026-1.15,0.04-2.301,0.077-3.45c0.057-1.77,0.112-3.54,0.327-5.3c0.227-1.861,0.628-3.68,1.29-5.435
		c1.734-4.597,4.815-7.965,9.257-10.061c2.739-1.293,5.664-1.867,8.669-2.033c2.072-0.115,4.147-0.154,6.22-0.229
		c0.272-0.009,0.542-0.023,0.814-0.036c5.544,0,11.088,0,16.631,0c0.046,0.011,0.092,0.028,0.138,0.029
		c1.478,0.038,2.956,0.066,4.434,0.113c1.539,0.049,3.076,0.125,4.605,0.327c1.828,0.243,3.614,0.653,5.334,1.325
		c4.751,1.858,8.143,5.131,10.151,9.821c1.097,2.563,1.61,5.266,1.751,8.036c0.124,2.418,0.163,4.84,0.24,7.26
		C84.971,41.971,84.989,42.028,84.999,42.087z M21.324,50.002c-0.013,0-0.026,0-0.037,0c0.035,3.629,0.056,7.259,0.111,10.888
		c0.027,1.813,0.086,3.627,0.294,5.431c0.149,1.296,0.406,2.571,0.841,3.804c1.228,3.488,3.559,5.905,7.02,7.221
		c1.84,0.7,3.761,0.985,5.712,1.099c2.711,0.16,5.425,0.217,8.141,0.226c2.382,0.008,4.763,0.009,7.146,0.006
		c2.504-0.003,5.007-0.002,7.51-0.028c1.643-0.018,3.286-0.075,4.929-0.124c1.521-0.047,3.04-0.135,4.543-0.399
		c1.574-0.276,3.097-0.719,4.499-1.496c2.542-1.41,4.325-3.486,5.333-6.223c0.674-1.829,0.987-3.729,1.078-5.662
		c0.11-2.334,0.164-4.671,0.224-7.008c0.028-1.12,0.015-2.241,0.015-3.362c0-3.016,0.009-6.03-0.009-9.046
		c-0.015-2.41-0.042-4.822-0.108-7.232c-0.04-1.447-0.132-2.894-0.258-4.336c-0.134-1.539-0.486-3.036-1.058-4.476
		c-1.1-2.768-2.988-4.819-5.648-6.145c-1.867-0.93-3.877-1.365-5.94-1.515c-1.771-0.129-3.549-0.199-5.324-0.254
		c-1.606-0.049-3.215-0.048-4.822-0.054c-2.26-0.008-4.521-0.014-6.78,0.001c-3.507,0.022-7.015,0.04-10.522,0.105
		c-1.507,0.028-3.015,0.141-4.518,0.272c-1.416,0.122-2.798,0.442-4.131,0.946c-3.293,1.246-5.587,3.507-6.868,6.789
		c-0.723,1.851-1.045,3.789-1.134,5.758c-0.114,2.535-0.188,5.072-0.226,7.61C21.295,45.201,21.324,47.601,21.324,50.002z"/>
	<path fill="#C55428" d="M50.013,32.028C59.878,32,68.056,40.075,67.974,50.154c-0.079,9.872-8.161,17.908-18.146,17.82
		c-9.932-0.087-18.001-8.281-17.803-18.343C32.216,39.886,40.214,31.992,50.013,32.028z M38.34,49.995
		c0,6.414,5.21,11.65,11.587,11.667c6.47,0.017,11.699-5.18,11.732-11.599c0.033-6.484-5.176-11.629-11.47-11.726
		C43.625,38.238,38.327,43.548,38.34,49.995z"/>
	<path fill="#C55428" d="M72.882,31.319c0,2.336-1.885,4.209-4.224,4.199c-2.32-0.011-4.184-1.883-4.184-4.205
		c0-2.319,1.896-4.216,4.208-4.207C71.009,27.114,72.882,28.995,72.882,31.319z"/>
</g>
</svg>
