<?xml version="1.0" encoding="utf-8"?>
<!-- Generator: Adobe Illustrator 17.0.0, SVG Export Plug-In . SVG Version: 6.00 Build 0)  -->
<!DOCTYPE svg PUBLIC "-//W3C//DTD SVG 1.1//EN" "http://www.w3.org/Graphics/SVG/1.1/DTD/svg11.dtd">
<svg version="1.1" id="Layer_1" xmlns="http://www.w3.org/2000/svg" xmlns:xlink="http://www.w3.org/1999/xlink" x="0px" y="0px"
	 width="72px" height="72px" viewBox="0 0 72 72" enable-background="new 0 0 72 72" xml:space="preserve">
<g>
	<path fill="#C55428" d="M17.198,27.48h8.061v25.927h-8.061C17.198,53.407,17.198,27.48,17.198,27.48z M21.228,14.593
		c2.576,0,4.67,2.093,4.67,4.674c0,2.578-2.093,4.672-4.67,4.672c-2.582,0-4.67-2.093-4.67-4.672
		C16.559,16.686,18.646,14.593,21.228,14.593"/>
	<path fill="#C55428" d="M30.312,27.48h7.729v3.546h0.11c1.076-2.039,3.705-4.187,7.624-4.187c8.159,0,9.665,5.368,9.665,12.349
		v14.219h-8.054V40.799c0-3.007-0.052-6.875-4.187-6.875c-4.193,0-4.833,3.278-4.833,6.658v12.824h-8.055L30.312,27.48L30.312,27.48
		z"/>
</g>
</svg>
