<?xml version="1.0" encoding="utf-8"?>
<!-- Generator: Adobe Illustrator 17.0.0, SVG Export Plug-In . SVG Version: 6.00 Build 0)  -->
<!DOCTYPE svg PUBLIC "-//W3C//DTD SVG 1.1//EN" "http://www.w3.org/Graphics/SVG/1.1/DTD/svg11.dtd">
<svg version="1.1" id="Layer_1" xmlns="http://www.w3.org/2000/svg" xmlns:xlink="http://www.w3.org/1999/xlink" x="0px" y="0px"
	 width="72px" height="72px" viewBox="0 0 72 72" enable-background="new 0 0 72 72" xml:space="preserve">
<g>
	<path fill="#4F5D75" d="M13.33,28.139h9.719V59.4H13.33V28.139z M18.189,12.6c3.106,0,5.631,2.524,5.631,5.636
		c0,3.108-2.524,5.633-5.631,5.633c-3.113,0-5.631-2.524-5.631-5.633C12.559,15.124,15.076,12.6,18.189,12.6"/>
	<path fill="#4F5D75" d="M29.142,28.139h9.319v4.275h0.133c1.297-2.459,4.467-5.049,9.193-5.049c9.838,0,11.654,6.472,11.654,14.89
		V59.4H49.73V44.198c0-3.626-0.063-8.289-5.049-8.289c-5.056,0-5.827,3.952-5.827,8.028V59.4h-9.712V28.139z"/>
</g>
</svg>
