<?xml version="1.0" encoding="utf-8"?>
<!-- Generator: Adobe Illustrator 17.0.0, SVG Export Plug-In . SVG Version: 6.00 Build 0)  -->
<!DOCTYPE svg PUBLIC "-//W3C//DTD SVG 1.1//EN" "http://www.w3.org/Graphics/SVG/1.1/DTD/svg11.dtd">
<svg version="1.1" id="Layer_1" xmlns="http://www.w3.org/2000/svg" xmlns:xlink="http://www.w3.org/1999/xlink" x="0px" y="0px"
	 width="100px" height="100px" viewBox="0 0 100 100" enable-background="new 0 0 100 100" xml:space="preserve">
<path fill="#C55428" d="M51.864,1.96c1.687,0.276,3.394,0.465,5.057,0.844c4.351,0.99,8.269,2.913,11.759,5.699
	c3.611,2.882,6.413,6.401,8.423,10.569c2.611,5.414,3.242,11.116,2.735,17.037c-0.572,6.683-2.313,13.072-4.659,19.316
	c-2.097,5.581-4.592,10.992-7.515,16.183c-2.341,4.158-4.77,8.281-7.417,12.249c-3.059,4.586-6.398,8.984-9.62,13.461
	c-0.162,0.225-0.364,0.42-0.629,0.722c-0.797-1.014-1.576-1.979-2.328-2.965c-4.11-5.385-7.923-10.971-11.436-16.766
	c-3.567-5.885-6.791-11.946-9.509-18.268c-2.785-6.476-5.011-13.133-6.087-20.125c-0.711-4.623-0.966-9.278-0.043-13.896
	c0.674-3.374,1.925-6.555,3.721-9.519c2.274-3.754,5.221-6.877,8.827-9.335c3.61-2.46,7.591-4.088,11.939-4.746
	c0.982-0.149,1.962-0.306,2.943-0.46C49.306,1.96,50.585,1.96,51.864,1.96z M49.951,13.967c-9.895,0.022-17.985,8.178-17.934,18.08
	c0.051,9.967,8.112,17.997,18.039,17.968c9.947-0.028,17.991-8.1,17.971-18.034C68.007,22.009,59.915,13.944,49.951,13.967z"/>
</svg>
