<?xml version="1.0" encoding="utf-8"?>
<!-- Generator: Adobe Illustrator 17.0.0, SVG Export Plug-In . SVG Version: 6.00 Build 0)  -->
<!DOCTYPE svg PUBLIC "-//W3C//DTD SVG 1.1//EN" "http://www.w3.org/Graphics/SVG/1.1/DTD/svg11.dtd">
<svg version="1.1" id="Layer_1" xmlns="http://www.w3.org/2000/svg" xmlns:xlink="http://www.w3.org/1999/xlink" x="0px" y="0px"
	 width="50px" height="100px" viewBox="0 0 50 100" enable-background="new 0 0 50 100" xml:space="preserve">
<path fill="#48556B" d="M25.43,16.366c1.293,0.212,2.602,0.356,3.877,0.647c3.336,0.759,6.34,2.233,9.015,4.369
	c2.768,2.21,4.917,4.907,6.458,8.103c2.002,4.151,2.486,8.522,2.097,13.062c-0.439,5.124-1.773,10.022-3.572,14.809
	c-1.608,4.279-3.521,8.427-5.761,12.407c-1.795,3.188-3.657,6.349-5.686,9.391c-2.345,3.516-4.905,6.888-7.375,10.32
	c-0.124,0.172-0.279,0.322-0.482,0.554c-0.611-0.777-1.208-1.517-1.785-2.273c-3.151-4.128-6.074-8.411-8.768-12.854
	c-2.735-4.512-5.206-9.159-7.29-14.005C4.022,55.929,2.315,50.826,1.49,45.465c-0.545-3.544-0.741-7.113-0.033-10.654
	c0.517-2.587,1.476-5.025,2.853-7.298c1.743-2.878,4.003-5.272,6.767-7.157c2.768-1.886,5.82-3.134,9.153-3.639
	c0.753-0.114,1.504-0.235,2.256-0.353C23.469,16.366,24.449,16.366,25.43,16.366z M23.963,25.571
	c-7.586,0.017-13.788,6.27-13.749,13.861c0.039,7.641,6.219,13.798,13.83,13.775c7.626-0.021,13.793-6.21,13.778-13.826
	C37.806,31.736,31.602,25.553,23.963,25.571z"/>
</svg>
