<?xml version="1.0" encoding="utf-8"?>
<!-- Generator: Adobe Illustrator 17.0.0, SVG Export Plug-In . SVG Version: 6.00 Build 0)  -->
<!DOCTYPE svg PUBLIC "-//W3C//DTD SVG 1.1//EN" "http://www.w3.org/Graphics/SVG/1.1/DTD/svg11.dtd">
<svg version="1.1" id="Layer_1" xmlns="http://www.w3.org/2000/svg" xmlns:xlink="http://www.w3.org/1999/xlink" x="0px" y="0px"
	 width="100px" height="100px" viewBox="0 0 100 100" enable-background="new 0 0 100 100" xml:space="preserve">
<path fill="#C65728" d="M22.627,32.774c-2.529-2.513-5.006-4.968-7.476-7.43c-2.68-2.672-0.422-0.411-3.091-3.094
	c-1.468-1.476-1.487-2.455-0.051-3.91c2.086-2.114,4.187-4.214,6.3-6.3c1.368-1.35,2.708-1.333,4.111,0.053
	c4.603,4.542,4.264,4.156,8.845,8.719c0.471,0.469,0.828,1.054,1.323,1.697c1.98-1.985,5.815-5.827,7.532-7.544
	c0.338-0.338,0.636-0.827,1.046-0.961c0.772-0.252,1.786-0.637,2.375-0.335c0.643,0.33,1.287,1.372,1.296,2.111
	c0.093,7.471-2.051,17.065-2.076,24.537c-0.001,1.453-0.871,2.358-2.326,2.364c-7.425,0.033-16.97,2.143-24.395,2.128
	c-1.038-0.002-2.041-0.425-2.176-1.487c-0.098-0.772,0.163-1.834,0.672-2.397C16.395,38.869,20.548,34.847,22.627,32.774z"/>
<path fill="#C65728" d="M85.465,40.925c0.509,0.563,0.77,1.625,0.672,2.397c-0.135,1.062-1.138,1.485-2.176,1.487
	c-7.425,0.015-16.97-2.095-24.395-2.128c-1.455-0.006-2.325-0.911-2.326-2.364c-0.025-7.472-2.169-17.066-2.076-24.537
	c0.009-0.739,0.653-1.781,1.296-2.111c0.589-0.302,1.603,0.083,2.375,0.335c0.41,0.134,0.708,0.623,1.046,0.961
	c1.717,1.717,5.552,5.559,7.532,7.544c0.495-0.643,0.852-1.228,1.323-1.697c4.581-4.563,4.242-4.177,8.845-8.719
	c1.403-1.386,2.743-1.403,4.111-0.053c2.113,2.086,4.214,4.186,6.3,6.3c1.436,1.455,1.417,2.434-0.051,3.91
	c-2.669,2.683-0.411,0.422-3.091,3.094c-2.47,2.462-4.947,4.917-7.476,7.43C79.452,34.847,83.605,38.869,85.465,40.925z"/>
<path fill="#C65728" d="M14.535,59.075c-0.509-0.563-0.77-1.625-0.672-2.397c0.135-1.062,1.138-1.485,2.176-1.487
	c7.425-0.015,16.97,2.095,24.395,2.128c1.455,0.006,2.325,0.911,2.326,2.364c0.025,7.472,2.169,17.066,2.076,24.537
	c-0.009,0.739-0.653,1.781-1.296,2.111c-0.589,0.302-1.603-0.083-2.375-0.335c-0.41-0.134-0.708-0.623-1.046-0.961
	c-1.717-1.717-5.552-5.559-7.532-7.544c-0.495,0.643-0.852,1.228-1.323,1.697c-4.581,4.563-4.242,4.177-8.845,8.719
	c-1.403,1.386-2.743,1.403-4.111,0.053c-2.113-2.086-4.214-4.186-6.3-6.3c-1.436-1.455-1.417-2.434,0.051-3.91
	c2.669-2.683,0.411-0.422,3.091-3.094c2.47-2.462,4.947-4.917,7.476-7.43C20.548,65.153,16.395,61.131,14.535,59.075z"/>
<path fill="#C65728" d="M77.373,67.226c2.529,2.513,5.006,4.968,7.476,7.43c2.68,2.672,0.422,0.411,3.091,3.094
	c1.468,1.476,1.487,2.455,0.051,3.91c-2.086,2.114-4.187,4.214-6.3,6.3c-1.368,1.35-2.708,1.333-4.111-0.053
	c-4.603-4.542-4.264-4.156-8.845-8.719c-0.471-0.469-0.828-1.054-1.323-1.697c-1.98,1.985-5.815,5.827-7.532,7.544
	c-0.338,0.338-0.636,0.827-1.046,0.961c-0.772,0.252-1.786,0.637-2.375,0.335c-0.643-0.33-1.287-1.372-1.296-2.111
	c-0.093-7.471,2.051-17.065,2.076-24.537c0.001-1.453,0.871-2.358,2.326-2.364c7.425-0.033,16.97-2.143,24.395-2.128
	c1.038,0.002,2.041,0.425,2.176,1.487c0.098,0.772-0.163,1.834-0.672,2.397C83.605,61.131,79.452,65.153,77.373,67.226z"/>
</svg>
