<?xml version="1.0" encoding="utf-8"?>
<!-- Generator: Adobe Illustrator 17.0.0, SVG Export Plug-In . SVG Version: 6.00 Build 0)  -->
<!DOCTYPE svg PUBLIC "-//W3C//DTD SVG 1.1//EN" "http://www.w3.org/Graphics/SVG/1.1/DTD/svg11.dtd">
<svg version="1.1" id="Layer_1" xmlns="http://www.w3.org/2000/svg" xmlns:xlink="http://www.w3.org/1999/xlink" x="0px" y="0px"
	 width="200px" height="480px" viewBox="0 0 200 480" enable-background="new 0 0 200 480" xml:space="preserve">
<g>
	<path fill="#FFFFFF" d="M198.822,372.012c-1.877-3.841-5.81-6.493-10.373-6.493s-8.504,2.649-10.373,6.493
		c-1.436,2.953-3.437,2.541-4.769,2.796H15.67v4.523h158.497c1.226,0.086,2.726,0.308,3.909,2.796
		c1.836,3.861,5.81,6.493,10.373,6.493s8.496-2.652,10.373-6.493c0.747-1.529,1.178-3.241,1.178-5.058
		S199.569,373.541,198.822,372.012z"/>
	<path fill="#D85C2A" d="M153.347,372.012c-1.877-3.841-5.81-6.493-10.373-6.493s-8.504,2.649-10.373,6.493
		c-1.436,2.953-3.437,2.541-4.769,2.796h-13.551c-1.226-0.086-2.726-0.307-3.909-2.796c-1.836-3.861-5.81-6.493-10.373-6.493h0h0
		c-4.563,0-8.504,2.649-10.373,6.493c-1.436,2.953-3.437,2.541-4.769,2.796H71.307c-1.226-0.086-2.726-0.307-3.909-2.796
		c-1.836-3.861-5.81-6.493-10.373-6.493h0h0c-4.563,0-8.504,2.649-10.373,6.493c-1.436,2.953-3.437,2.541-4.769,2.796H25.833
		c-1.226-0.086-2.726-0.307-3.909-2.796c-1.836-3.861-5.81-6.493-10.373-6.493s-8.496,2.652-10.373,6.493
		C0.431,373.541,0,375.253,0,377.069s0.431,3.529,1.178,5.058c1.877,3.841,5.81,6.493,10.373,6.493s8.504-2.649,10.373-6.493
		c1.436-2.953,3.437-2.541,4.769-2.796h16.051c1.226,0.086,2.726,0.308,3.909,2.796c1.836,3.861,5.81,6.493,10.373,6.493h0h0
		c4.563,0,8.504-2.649,10.373-6.493c1.436-2.953,3.437-2.541,4.769-2.796h13.552c1.226,0.086,2.726,0.308,3.909,2.796
		c1.836,3.861,5.81,6.493,10.373,6.493h0h0c4.563,0,8.504-2.649,10.373-6.493c1.436-2.953,3.437-2.541,4.769-2.796h13.552
		c1.226,0.086,2.726,0.308,3.909,2.796c1.836,3.861,5.81,6.493,10.373,6.493s8.496-2.652,10.373-6.493
		c0.747-1.529,1.178-3.241,1.178-5.058S154.094,373.541,153.347,372.012z"/>
</g>
<path fill="#D85C2A" d="M198.822,463.391c-1.877-3.841-5.81-6.493-10.373-6.493s-8.504,2.649-10.373,6.493
	c-1.436,2.953-3.437,2.541-4.769,2.796h-16.051c-1.226-0.086-2.726-0.307-3.909-2.796c-1.836-3.861-5.81-6.493-10.373-6.493h0h0
	c-4.563,0-8.504,2.649-10.373,6.493c-1.436,2.953-3.437,2.541-4.769,2.796h-13.551c-1.226-0.086-2.726-0.307-3.909-2.796
	c-1.836-3.861-5.81-6.493-10.373-6.493h0h0c-4.563,0-8.504,2.649-10.373,6.493c-1.436,2.953-3.437,2.541-4.769,2.796H71.307
	c-1.226-0.086-2.726-0.307-3.909-2.796c-1.836-3.861-5.81-6.493-10.373-6.493h0h0c-4.563,0-8.504,2.649-10.373,6.493
	c-1.436,2.953-3.437,2.541-4.769,2.796H25.833c-1.226-0.086-2.726-0.307-3.909-2.796c-1.836-3.861-5.81-6.493-10.373-6.493
	s-8.496,2.652-10.373,6.493C0.431,464.921,0,466.633,0,468.449s0.431,3.529,1.178,5.058C3.055,477.348,6.988,480,11.551,480
	s8.504-2.649,10.373-6.493c1.436-2.953,3.437-2.541,4.769-2.796h16.051c1.226,0.086,2.726,0.308,3.909,2.796
	c1.836,3.861,5.81,6.493,10.373,6.493h0h0c4.563,0,8.504-2.649,10.373-6.493c1.436-2.953,3.437-2.541,4.769-2.796h13.552
	c1.226,0.086,2.726,0.308,3.909,2.796C91.463,477.367,95.437,480,100,480h0h0c4.563,0,8.504-2.649,10.373-6.493
	c1.436-2.953,3.437-2.541,4.769-2.796h13.552c1.226,0.086,2.726,0.308,3.909,2.796c1.836,3.861,5.81,6.493,10.373,6.493h0h0
	c4.563,0,8.504-2.649,10.373-6.493c1.436-2.953,3.437-2.541,4.769-2.796h16.051c1.226,0.086,2.726,0.308,3.909,2.796
	c1.836,3.861,5.81,6.493,10.373,6.493s8.496-2.652,10.373-6.493c0.747-1.529,1.178-3.241,1.178-5.058
	S199.569,464.921,198.822,463.391z"/>
<path fill="#FFFFFF" d="M198.822,6.493C196.945,2.652,193.012,0,188.449,0s-8.504,2.649-10.373,6.493
	c-1.436,2.953-3.437,2.541-4.769,2.796h-16.051c-1.226-0.086-2.726-0.307-3.909-2.796C151.512,2.633,147.538,0,142.975,0h0h0
	c-4.563,0-8.504,2.649-10.373,6.493c-1.436,2.953-3.437,2.541-4.769,2.796h-13.551c-1.226-0.086-2.726-0.307-3.909-2.796
	C108.537,2.633,104.563,0,100,0h0h0c-4.563,0-8.504,2.649-10.373,6.493c-1.436,2.953-3.437,2.541-4.769,2.796H71.307
	c-1.226-0.086-2.726-0.307-3.909-2.796C65.562,2.633,61.588,0,57.025,0h0h0c-4.563,0-8.504,2.649-10.373,6.493
	c-1.436,2.953-3.437,2.541-4.769,2.796H25.832c-1.226-0.086-2.726-0.308-3.909-2.796C20.088,2.633,16.114,0,11.551,0
	S3.055,2.652,1.178,6.493C0.431,8.022,0,9.734,0,11.551s0.431,3.529,1.178,5.058c1.877,3.841,5.81,6.493,10.373,6.493
	s8.504-2.649,10.373-6.493c1.436-2.953,3.437-2.541,4.769-2.796h16.051c1.226,0.086,2.726,0.308,3.909,2.796
	c1.836,3.861,5.81,6.493,10.373,6.493h0h0c4.563,0,8.504-2.649,10.373-6.493c1.436-2.953,3.437-2.541,4.769-2.796h13.552
	c1.226,0.086,2.726,0.308,3.909,2.796c1.836,3.861,5.81,6.493,10.373,6.493h0h0c4.563,0,8.504-2.649,10.373-6.493
	c1.436-2.953,3.437-2.541,4.769-2.796h13.552c1.226,0.086,2.726,0.308,3.909,2.796c1.836,3.861,5.81,6.493,10.373,6.493h0h0
	c4.563,0,8.504-2.649,10.373-6.493c1.436-2.953,3.437-2.541,4.769-2.796h16.051c1.226,0.086,2.726,0.308,3.909,2.796
	c1.836,3.861,5.81,6.493,10.373,6.493s8.496-2.652,10.373-6.493c0.747-1.529,1.178-3.241,1.178-5.058S199.569,8.022,198.822,6.493z"
	/>
<g>
	<path fill="#FFFFFF" d="M198.822,280.632c-1.877-3.841-5.81-6.493-10.373-6.493s-8.504,2.649-10.373,6.493
		c-1.436,2.953-3.437,2.541-4.769,2.796h-16.051c-1.226-0.086-2.726-0.307-3.909-2.796c-1.836-3.861-5.81-6.493-10.373-6.493h0h0
		c-4.563,0-8.504,2.649-10.373,6.493c-1.436,2.953-3.437,2.541-4.769,2.796H15.67v4.523h113.023
		c1.226,0.086,2.726,0.308,3.909,2.796c1.836,3.861,5.81,6.493,10.373,6.493h0h0c4.563,0,8.504-2.649,10.373-6.493
		c1.436-2.953,3.437-2.541,4.769-2.796h16.051c1.226,0.086,2.726,0.308,3.909,2.796c1.836,3.861,5.81,6.493,10.373,6.493
		s8.496-2.652,10.373-6.493c0.747-1.529,1.178-3.241,1.178-5.058S199.569,282.161,198.822,280.632z"/>
	<path fill="#D85C2A" d="M110.373,280.632c-1.877-3.841-5.81-6.493-10.373-6.493s-8.504,2.649-10.373,6.493
		c-1.436,2.953-3.437,2.541-4.769,2.796H71.307c-1.226-0.086-2.726-0.307-3.909-2.796c-1.836-3.861-5.81-6.493-10.373-6.493h0h0
		c-4.563,0-8.504,2.649-10.373,6.493c-1.436,2.953-3.437,2.541-4.769,2.796H25.833c-1.226-0.086-2.726-0.307-3.909-2.796
		c-1.836-3.861-5.81-6.493-10.373-6.493s-8.496,2.652-10.373,6.493C0.431,282.161,0,283.873,0,285.69s0.431,3.529,1.178,5.058
		c1.877,3.841,5.81,6.493,10.373,6.493s8.504-2.649,10.373-6.493c1.436-2.953,3.437-2.541,4.769-2.796h16.051
		c1.226,0.086,2.726,0.308,3.909,2.796c1.836,3.861,5.81,6.493,10.373,6.493h0h0c4.563,0,8.504-2.649,10.373-6.493
		c1.436-2.953,3.437-2.541,4.769-2.796h13.552c1.226,0.086,2.726,0.308,3.909,2.796c1.836,3.861,5.81,6.493,10.373,6.493
		s8.496-2.652,10.373-6.493c0.747-1.529,1.178-3.241,1.178-5.058S111.12,282.161,110.373,280.632z"/>
</g>
<g>
	<path fill="#FFFFFF" d="M198.822,97.873c-1.877-3.841-5.81-6.493-10.373-6.493s-8.504,2.649-10.373,6.493
		c-1.436,2.953-3.437,2.541-4.769,2.796h-16.051c-1.226-0.086-2.726-0.307-3.909-2.796c-1.836-3.861-5.81-6.493-10.373-6.493h0h0
		c-4.563,0-8.504,2.649-10.373,6.493c-1.436,2.953-3.437,2.541-4.769,2.796h-13.551c-1.226-0.086-2.726-0.307-3.909-2.796
		c-1.836-3.861-5.81-6.493-10.373-6.493h0h0c-4.563,0-8.504,2.649-10.373,6.493c-1.436,2.953-3.437,2.541-4.769,2.796H71.307
		c-1.226-0.086-2.726-0.307-3.909-2.796c-1.836-3.861-5.81-6.493-10.373-6.493h0h0c-4.563,0-8.504,2.649-10.373,6.493
		c-1.436,2.953-3.437,2.541-4.769,2.796H15.67v4.523h27.073c1.226,0.086,2.726,0.308,3.909,2.796
		c1.836,3.861,5.81,6.493,10.373,6.493h0h0c4.563,0,8.504-2.649,10.373-6.493c1.436-2.953,3.437-2.541,4.769-2.796h13.552
		c1.226,0.086,2.726,0.308,3.909,2.796c1.836,3.861,5.81,6.493,10.373,6.493h0h0c4.563,0,8.504-2.649,10.373-6.493
		c1.436-2.953,3.437-2.541,4.769-2.796h13.552c1.226,0.086,2.726,0.308,3.909,2.796c1.836,3.861,5.81,6.493,10.373,6.493h0h0
		c4.563,0,8.504-2.649,10.373-6.493c1.436-2.953,3.437-2.541,4.769-2.796h16.051c1.226,0.086,2.726,0.308,3.909,2.796
		c1.836,3.861,5.81,6.493,10.373,6.493s8.496-2.652,10.373-6.493c0.747-1.529,1.178-3.241,1.178-5.058
		S199.569,99.402,198.822,97.873z"/>
	<circle fill="#D85C2A" cx="11.551" cy="102.931" r="11.551"/>
</g>
<g>
	<path fill="#FFFFFF" d="M198.822,189.252c-1.877-3.841-5.81-6.493-10.373-6.493s-8.504,2.649-10.373,6.493
		c-1.436,2.953-3.437,2.541-4.769,2.796h-16.051c-1.226-0.086-2.726-0.307-3.909-2.796c-1.836-3.861-5.81-6.493-10.373-6.493h0h0
		c-4.563,0-8.504,2.649-10.373,6.493c-1.436,2.953-3.437,2.541-4.769,2.796h-13.551c-1.226-0.086-2.726-0.307-3.909-2.796
		c-1.836-3.861-5.81-6.493-10.373-6.493h0h0c-4.563,0-8.504,2.649-10.373,6.493c-1.436,2.953-3.437,2.541-4.769,2.796H15.67v4.523
		h70.048c1.226,0.086,2.726,0.308,3.909,2.796c1.836,3.861,5.81,6.493,10.373,6.493h0h0c4.563,0,8.504-2.649,10.373-6.493
		c1.436-2.953,3.437-2.541,4.769-2.796h13.552c1.226,0.086,2.726,0.308,3.909,2.796c1.836,3.861,5.81,6.493,10.373,6.493h0h0
		c4.563,0,8.504-2.649,10.373-6.493c1.436-2.953,3.437-2.541,4.769-2.796h16.051c1.226,0.086,2.726,0.308,3.909,2.796
		c1.836,3.861,5.81,6.493,10.373,6.493s8.496-2.652,10.373-6.493c0.747-1.529,1.178-3.241,1.178-5.058
		S199.569,190.782,198.822,189.252z"/>
	<path fill="#D85C2A" d="M67.398,189.252c-1.877-3.841-5.81-6.493-10.373-6.493s-8.504,2.649-10.373,6.493
		c-1.436,2.953-3.437,2.541-4.769,2.796H25.833c-1.226-0.086-2.726-0.307-3.909-2.796c-1.836-3.861-5.81-6.493-10.373-6.493
		s-8.496,2.652-10.373,6.493C0.431,190.782,0,192.494,0,194.31s0.431,3.529,1.178,5.058c1.877,3.841,5.81,6.493,10.373,6.493
		s8.504-2.649,10.373-6.493c1.436-2.953,3.437-2.541,4.769-2.796h16.051c1.226,0.086,2.726,0.308,3.909,2.796
		c1.836,3.861,5.81,6.493,10.373,6.493s8.496-2.652,10.373-6.493c0.747-1.529,1.178-3.241,1.178-5.058
		S68.145,190.782,67.398,189.252z"/>
</g>
</svg>
