<?xml version="1.0" encoding="utf-8"?>
<!-- Generator: Adobe Illustrator 17.0.0, SVG Export Plug-In . SVG Version: 6.00 Build 0)  -->
<!DOCTYPE svg PUBLIC "-//W3C//DTD SVG 1.1//EN" "http://www.w3.org/Graphics/SVG/1.1/DTD/svg11.dtd">
<svg version="1.1" id="Layer_1" xmlns="http://www.w3.org/2000/svg" xmlns:xlink="http://www.w3.org/1999/xlink" x="0px" y="0px"
	 width="200px" height="24px" viewBox="0 0 200 24" enable-background="new 0 0 200 24" xml:space="preserve">
<g>
	<rect x="15.67" y="9.738" fill="#FFFFFF" width="168.659" height="4.523"/>
	<path fill="#FFFFFF" d="M198.822,6.942c-1.877-3.841-5.81-6.493-10.373-6.493s-8.504,2.649-10.373,6.493
		c-2.336,4.805-6.178,0.695-6.178,5.058s3.755-0.037,6.178,5.058c1.836,3.861,5.81,6.493,10.373,6.493s8.496-2.652,10.373-6.493
		C199.569,15.529,200,13.817,200,12S199.569,8.471,198.822,6.942z"/>
	<path fill="#FFFFFF" d="M1.178,17.058c1.877,3.841,5.81,6.493,10.373,6.493s8.504-2.649,10.373-6.493
		c2.336-4.805,6.178-0.695,6.178-5.058s-3.755,0.037-6.178-5.058c-1.836-3.861-5.81-6.493-10.373-6.493S3.055,3.101,1.178,6.942
		C0.431,8.471,0,10.183,0,12S0.431,15.529,1.178,17.058z"/>
	<path fill="#FFFFFF" d="M67.398,6.942c-1.836-3.861-5.81-6.493-10.373-6.493h0h0c-4.563,0-8.504,2.649-10.373,6.493
		c-2.336,4.805-6.178,0.695-6.178,5.058c0,4.363,3.755-0.037,6.178,5.058c1.836,3.861,5.81,6.493,10.373,6.493h0h0
		c4.563,0,8.504-2.649,10.373-6.493c2.336-4.805,6.178-0.695,6.178-5.058C73.576,7.637,69.82,12.037,67.398,6.942z"/>
	<path fill="#FFFFFF" d="M110.373,6.942c-1.836-3.861-5.81-6.493-10.373-6.493h0h0c-4.563,0-8.504,2.649-10.373,6.493
		c-2.336,4.805-6.178,0.695-6.178,5.058c0,4.363,3.755-0.037,6.178,5.058c1.836,3.861,5.81,6.493,10.373,6.493h0h0
		c4.563,0,8.504-2.649,10.373-6.493c2.336-4.805,6.178-0.695,6.178-5.058C116.551,7.637,112.795,12.037,110.373,6.942z"/>
	<path fill="#FFFFFF" d="M153.347,6.942c-1.836-3.861-5.81-6.493-10.373-6.493h0h0c-4.563,0-8.504,2.649-10.373,6.493
		c-2.336,4.805-6.178,0.695-6.178,5.058c0,4.363,3.755-0.037,6.178,5.058c1.836,3.861,5.81,6.493,10.373,6.493h0h0
		c4.563,0,8.504-2.649,10.373-6.493c2.336-4.805,6.178-0.695,6.178-5.058C159.525,7.637,155.77,12.037,153.347,6.942z"/>
</g>
</svg>
