<?xml version="1.0" encoding="utf-8"?>
<!-- Generator: Adobe Illustrator 17.0.0, SVG Export Plug-In . SVG Version: 6.00 Build 0)  -->
<!DOCTYPE svg PUBLIC "-//W3C//DTD SVG 1.1//EN" "http://www.w3.org/Graphics/SVG/1.1/DTD/svg11.dtd">
<svg version="1.1" id="Logo_FIXED" xmlns="http://www.w3.org/2000/svg" xmlns:xlink="http://www.w3.org/1999/xlink" x="0px" y="0px"
	 width="100px" height="100px" viewBox="0 0 100 100" enable-background="new 0 0 100 100" xml:space="preserve">
<title>Twitter_Logo_Blue</title>
<path fill="#4F5D75" d="M38.405,75.392c23.585,0,36.485-19.54,36.485-36.485c0-0.555,0-1.107-0.037-1.658
	c2.51-1.815,4.676-4.063,6.397-6.637c-2.34,1.037-4.823,1.717-7.365,2.018c2.677-1.603,4.68-4.123,5.637-7.093
	c-2.517,1.494-5.271,2.546-8.142,3.112c-4.856-5.164-12.979-5.413-18.143-0.557c-3.33,3.132-4.743,7.799-3.71,12.252
	c-10.31-0.517-19.916-5.387-26.427-13.398c-3.403,5.859-1.665,13.355,3.97,17.118c-2.041-0.06-4.037-0.611-5.82-1.605
	c0,0.053,0,0.107,0,0.162c0.002,6.104,4.304,11.361,10.288,12.57c-1.888,0.515-3.869,0.59-5.79,0.22
	c1.68,5.224,6.494,8.802,11.98,8.905c-4.541,3.569-10.15,5.506-15.925,5.5c-1.02-0.002-2.039-0.064-3.053-0.185
	c5.864,3.763,12.687,5.759,19.655,5.75"/>
</svg>
